<?xml version="1.0" encoding="utf-8"?>
<!-- Generator: Adobe Illustrator 16.0.0, SVG Export Plug-In . SVG Version: 6.00 Build 0)  -->
<!DOCTYPE svg PUBLIC "-//W3C//DTD SVG 1.1 Tiny//EN" "http://www.w3.org/Graphics/SVG/1.1/DTD/svg11-tiny.dtd">
<svg version="1.1" baseProfile="tiny" id="Layer_1" xmlns="http://www.w3.org/2000/svg" xmlns:xlink="http://www.w3.org/1999/xlink"
	 x="0px" y="0px" width="1000px" height="1000px" viewBox="0 0 1000 1000" xml:space="preserve">
<g>
	<rect x="960" y="910.354" fill="#FF6950" width="10" height="10"/>
	<rect x="940" y="910.354" fill="#FF6950" width="10" height="10"/>
	<rect x="920" y="910.354" fill="#FF6950" width="10" height="10"/>
	<rect x="900" y="910.354" fill="#FF6950" width="10" height="10"/>
	<rect x="880" y="910.354" fill="#FF6950" width="10" height="10"/>
	<rect x="860" y="910.354" fill="#FF6950" width="10" height="10"/>
	<rect x="840" y="910.354" fill="#FF6950" width="10" height="10"/>
	<rect x="820" y="910.354" fill="#FF6950" width="10" height="10"/>
	<rect x="800" y="910.354" fill="#FF6950" width="10" height="10"/>
	<rect x="780" y="910.354" fill="#FF6950" width="10" height="10"/>
	<rect x="760" y="910.354" fill="#FF6950" width="10" height="10"/>
	<rect x="740" y="910.354" fill="#FF6950" width="10" height="10"/>
	<rect x="720" y="910.354" fill="#FF6950" width="10" height="10"/>
	<rect x="700" y="910.354" fill="#FF6950" width="10" height="10"/>
	<rect x="680" y="910.354" fill="#FF6950" width="10" height="10"/>
	<rect x="660" y="910.354" fill="#FF6950" width="10" height="10"/>
	<rect x="640" y="910.354" fill="#FF6950" width="10" height="10"/>
	<rect x="620" y="910.354" fill="#FF6950" width="10" height="10"/>
	<rect x="600" y="910.354" fill="#FF6950" width="10" height="10"/>
	<rect x="580" y="910.354" fill="#FF6950" width="10" height="10"/>
	<rect x="560" y="910.354" fill="#FF6950" width="10" height="10"/>
	<rect x="540" y="910.354" fill="#FF6950" width="10" height="10"/>
	<rect x="520" y="910.354" fill="#FF6950" width="10" height="10"/>
	<rect x="500" y="910.354" fill="#FF6950" width="10" height="10"/>
	<rect x="480" y="910.354" fill="#FF6950" width="10" height="10"/>
	<rect x="460" y="910.354" fill="#FF6950" width="10" height="10"/>
	<rect x="440" y="910.354" fill="#FF6950" width="10" height="10"/>
	<rect x="420" y="910.354" fill="#FF6950" width="10" height="10"/>
	<rect x="400" y="910.354" fill="#FF6950" width="10" height="10"/>
	<rect x="380" y="910.354" fill="#FF6950" width="10" height="10"/>
	<rect x="360" y="910.354" fill="#FF6950" width="10" height="10"/>
	<rect x="340" y="910.354" fill="#FF6950" width="10" height="10"/>
	<rect x="320" y="910.354" fill="#FF6950" width="10" height="10"/>
	<rect x="300" y="910.354" fill="#FF6950" width="10" height="10"/>
	<rect x="280" y="910.354" fill="#FF6950" width="10" height="10"/>
	<rect x="260" y="910.354" fill="#FF6950" width="10" height="10"/>
	<rect x="240" y="910.354" fill="#FF6950" width="10" height="10"/>
	<rect x="220" y="910.354" fill="#FF6950" width="10" height="10"/>
	<rect x="200" y="910.354" fill="#FF6950" width="10" height="10"/>
	<rect x="180" y="910.354" fill="#FF6950" width="10" height="10"/>
	<rect x="160" y="910.354" fill="#FF6950" width="10" height="10"/>
	<rect x="140" y="910.354" fill="#FF6950" width="10" height="10"/>
	<rect x="120" y="910.354" fill="#FF6950" width="10" height="10"/>
	<rect x="100" y="910.354" fill="#FF6950" width="10" height="10"/>
	<rect x="80" y="910.354" fill="#FF6950" width="10" height="10"/>
	<rect x="60" y="910.354" fill="#FF6950" width="10" height="10"/>
	<rect x="40" y="910.354" fill="#FF6950" width="10" height="10"/>
	<rect x="20" y="910.354" fill="#FF6950" width="10" height="10"/>
	<rect y="910.354" fill="#FF6950" width="10" height="10"/>
	<rect x="960" y="717.895" fill="#FF6950" width="10" height="10"/>
	<rect x="940" y="717.895" fill="#FF6950" width="10" height="10"/>
	<rect x="920" y="717.895" fill="#FF6950" width="10" height="10"/>
	<rect x="900" y="717.895" fill="#FF6950" width="10" height="10"/>
	<rect x="880" y="717.895" fill="#FF6950" width="10" height="10"/>
	<rect x="860" y="717.895" fill="#FF6950" width="10" height="10"/>
	<rect x="840" y="717.895" fill="#FF6950" width="10" height="10"/>
	<rect x="820" y="717.895" fill="#FF6950" width="10" height="10"/>
	<rect x="800" y="717.895" fill="#FF6950" width="10" height="10"/>
	<rect x="780" y="717.895" fill="#FF6950" width="10" height="10"/>
	<rect x="760" y="717.895" fill="#FF6950" width="10" height="10"/>
	<rect x="740" y="717.895" fill="#FF6950" width="10" height="10"/>
	<rect x="720" y="717.895" fill="#FF6950" width="10" height="10"/>
	<rect x="700" y="717.895" fill="#FF6950" width="10" height="10"/>
	<rect x="680" y="717.895" fill="#FF6950" width="10" height="10"/>
	<rect x="660" y="717.895" fill="#FF6950" width="10" height="10"/>
	<rect x="640" y="717.895" fill="#FF6950" width="10" height="10"/>
	<rect x="620" y="717.895" fill="#FF6950" width="10" height="10"/>
	<rect x="600" y="717.895" fill="#FF6950" width="10" height="10"/>
	<rect x="580" y="717.895" fill="#FF6950" width="10" height="10"/>
	<rect x="560" y="717.895" fill="#FF6950" width="10" height="10"/>
	<rect x="540" y="717.895" fill="#FF6950" width="10" height="10"/>
	<rect x="520" y="717.895" fill="#FF6950" width="10" height="10"/>
	<rect x="500" y="717.895" fill="#FF6950" width="10" height="10"/>
	<rect x="480" y="717.895" fill="#FF6950" width="10" height="10"/>
	<rect x="460" y="717.895" fill="#FF6950" width="10" height="10"/>
	<rect x="440" y="717.895" fill="#FF6950" width="10" height="10"/>
	<rect x="420" y="717.895" fill="#FF6950" width="10" height="10"/>
	<rect x="400" y="717.895" fill="#FF6950" width="10" height="10"/>
	<rect x="380" y="717.895" fill="#FF6950" width="10" height="10"/>
	<rect x="360" y="717.895" fill="#FF6950" width="10" height="10"/>
	<rect x="340" y="717.895" fill="#FF6950" width="10" height="10"/>
	<rect x="320" y="717.895" fill="#FF6950" width="10" height="10"/>
	<rect x="300" y="717.895" fill="#FF6950" width="10" height="10"/>
	<rect x="280" y="717.895" fill="#FF6950" width="10" height="10"/>
	<rect x="260" y="717.895" fill="#FF6950" width="10" height="10"/>
	<rect x="240" y="717.895" fill="#FF6950" width="10" height="10"/>
	<rect x="220" y="717.895" fill="#FF6950" width="10" height="10"/>
	<rect x="200" y="717.895" fill="#FF6950" width="10" height="10"/>
	<rect x="180" y="717.895" fill="#FF6950" width="10" height="10"/>
	<rect x="160" y="717.895" fill="#FF6950" width="10" height="10"/>
	<rect x="140" y="717.895" fill="#FF6950" width="10" height="10"/>
	<rect x="120" y="717.895" fill="#FF6950" width="10" height="10"/>
	<rect x="100" y="717.895" fill="#FF6950" width="10" height="10"/>
	<rect x="80" y="717.895" fill="#FF6950" width="10" height="10"/>
	<rect x="60" y="717.895" fill="#FF6950" width="10" height="10"/>
	<rect x="40" y="717.895" fill="#FF6950" width="10" height="10"/>
	<rect x="20" y="717.895" fill="#FF6950" width="10" height="10"/>
	<rect y="717.895" fill="#FF6950" width="10" height="10"/>
	<rect x="960" y="310.395" fill="#FF6950" width="10" height="10"/>
	<rect x="940" y="310.395" fill="#FF6950" width="10" height="10"/>
	<rect x="920" y="310.395" fill="#FF6950" width="10" height="10"/>
	<rect x="900" y="310.395" fill="#FF6950" width="10" height="10"/>
	<rect x="880" y="310.395" fill="#FF6950" width="10" height="10"/>
	<rect x="860" y="310.395" fill="#FF6950" width="10" height="10"/>
	<rect x="840" y="310.395" fill="#FF6950" width="10" height="10"/>
	<rect x="820" y="310.395" fill="#FF6950" width="10" height="10"/>
	<rect x="800" y="310.395" fill="#FF6950" width="10" height="10"/>
	<rect x="780" y="310.395" fill="#FF6950" width="10" height="10"/>
	<rect x="760" y="310.395" fill="#FF6950" width="10" height="10"/>
	<rect x="740" y="310.395" fill="#FF6950" width="10" height="10"/>
	<rect x="720" y="310.395" fill="#FF6950" width="10" height="10"/>
	<rect x="700" y="310.395" fill="#FF6950" width="10" height="10"/>
	<rect x="680" y="310.395" fill="#FF6950" width="10" height="10"/>
	<rect x="660" y="310.395" fill="#FF6950" width="10" height="10"/>
	<rect x="640" y="310.395" fill="#FF6950" width="10" height="10"/>
	<rect x="620" y="310.395" fill="#FF6950" width="10" height="10"/>
	<rect x="600" y="310.395" fill="#FF6950" width="10" height="10"/>
	<rect x="580" y="310.395" fill="#FF6950" width="10" height="10"/>
	<rect x="560" y="310.395" fill="#FF6950" width="10" height="10"/>
	<rect x="540" y="310.395" fill="#FF6950" width="10" height="10"/>
	<rect x="520" y="310.395" fill="#FF6950" width="10" height="10"/>
	<rect x="500" y="310.395" fill="#FF6950" width="10" height="10"/>
	<rect x="480" y="310.395" fill="#FF6950" width="10" height="10"/>
	<rect x="460" y="310.395" fill="#FF6950" width="10" height="10"/>
	<rect x="440" y="310.395" fill="#FF6950" width="10" height="10"/>
	<rect x="420" y="310.395" fill="#FF6950" width="10" height="10"/>
	<rect x="400" y="310.395" fill="#FF6950" width="10" height="10"/>
	<rect x="380" y="310.395" fill="#FF6950" width="10" height="10"/>
	<rect x="360" y="310.395" fill="#FF6950" width="10" height="10"/>
	<rect x="340" y="310.395" fill="#FF6950" width="10" height="10"/>
	<rect x="320" y="310.395" fill="#FF6950" width="10" height="10"/>
	<rect x="300" y="310.395" fill="#FF6950" width="10" height="10"/>
	<rect x="280" y="310.395" fill="#FF6950" width="10" height="10"/>
	<rect x="260" y="310.395" fill="#FF6950" width="10" height="10"/>
	<rect x="240" y="310.395" fill="#FF6950" width="10" height="10"/>
	<rect x="220" y="310.395" fill="#FF6950" width="10" height="10"/>
	<rect x="200" y="310.395" fill="#FF6950" width="10" height="10"/>
	<rect x="180" y="310.395" fill="#FF6950" width="10" height="10"/>
	<rect x="160" y="310.395" fill="#FF6950" width="10" height="10"/>
	<rect x="140" y="310.395" fill="#FF6950" width="10" height="10"/>
	<rect x="120" y="310.395" fill="#FF6950" width="10" height="10"/>
	<rect x="100" y="310.395" fill="#FF6950" width="10" height="10"/>
	<rect x="80" y="310.395" fill="#FF6950" width="10" height="10"/>
	<rect x="60" y="310.395" fill="#FF6950" width="10" height="10"/>
	<rect x="40" y="310.395" fill="#FF6950" width="10" height="10"/>
	<rect x="20" y="310.395" fill="#FF6950" width="10" height="10"/>
	<rect y="310.395" fill="#FF6950" width="10" height="10"/>
	<rect x="960" y="125.812" fill="#FF6950" width="10" height="10"/>
	<rect x="940" y="125.812" fill="#FF6950" width="10" height="10"/>
	<rect x="920" y="125.812" fill="#FF6950" width="10" height="10"/>
	<rect x="900" y="125.812" fill="#FF6950" width="10" height="10"/>
	<rect x="880" y="125.812" fill="#FF6950" width="10" height="10"/>
	<rect x="860" y="125.812" fill="#FF6950" width="10" height="10"/>
	<rect x="840" y="125.812" fill="#FF6950" width="10" height="10"/>
	<rect x="820" y="125.812" fill="#FF6950" width="10" height="10"/>
	<rect x="800" y="125.812" fill="#FF6950" width="10" height="10"/>
	<rect x="780" y="125.812" fill="#FF6950" width="10" height="10"/>
	<rect x="760" y="125.812" fill="#FF6950" width="10" height="10"/>
	<rect x="740" y="125.812" fill="#FF6950" width="10" height="10"/>
	<rect x="720" y="125.812" fill="#FF6950" width="10" height="10"/>
	<rect x="700" y="125.812" fill="#FF6950" width="10" height="10"/>
	<rect x="680" y="125.812" fill="#FF6950" width="10" height="10"/>
	<rect x="660" y="125.812" fill="#FF6950" width="10" height="10"/>
	<rect x="640" y="125.812" fill="#FF6950" width="10" height="10"/>
	<rect x="620" y="125.812" fill="#FF6950" width="10" height="10"/>
	<rect x="600" y="125.812" fill="#FF6950" width="10" height="10"/>
	<rect x="580" y="125.812" fill="#FF6950" width="10" height="10"/>
	<rect x="560" y="125.812" fill="#FF6950" width="10" height="10"/>
	<rect x="540" y="125.812" fill="#FF6950" width="10" height="10"/>
	<rect x="520" y="125.812" fill="#FF6950" width="10" height="10"/>
	<rect x="500" y="125.812" fill="#FF6950" width="10" height="10"/>
	<rect x="480" y="125.812" fill="#FF6950" width="10" height="10"/>
	<rect x="460" y="125.812" fill="#FF6950" width="10" height="10"/>
	<rect x="440" y="125.812" fill="#FF6950" width="10" height="10"/>
	<rect x="420" y="125.812" fill="#FF6950" width="10" height="10"/>
	<rect x="400" y="125.812" fill="#FF6950" width="10" height="10"/>
	<rect x="380" y="125.812" fill="#FF6950" width="10" height="10"/>
	<rect x="360" y="125.812" fill="#FF6950" width="10" height="10"/>
	<rect x="340" y="125.812" fill="#FF6950" width="10" height="10"/>
	<rect x="320" y="125.812" fill="#FF6950" width="10" height="10"/>
	<rect x="300" y="125.812" fill="#FF6950" width="10" height="10"/>
	<rect x="280" y="125.812" fill="#FF6950" width="10" height="10"/>
	<rect x="260" y="125.812" fill="#FF6950" width="10" height="10"/>
	<rect x="240" y="125.812" fill="#FF6950" width="10" height="10"/>
	<rect x="220" y="125.812" fill="#FF6950" width="10" height="10"/>
	<rect x="200" y="125.812" fill="#FF6950" width="10" height="10"/>
	<rect x="180" y="125.812" fill="#FF6950" width="10" height="10"/>
	<rect x="160" y="125.812" fill="#FF6950" width="10" height="10"/>
	<rect x="140" y="125.812" fill="#FF6950" width="10" height="10"/>
	<rect x="120" y="125.812" fill="#FF6950" width="10" height="10"/>
	<rect x="100" y="125.812" fill="#FF6950" width="10" height="10"/>
	<rect x="80" y="125.812" fill="#FF6950" width="10" height="10"/>
	<rect x="60" y="125.812" fill="#FF6950" width="10" height="10"/>
	<rect x="40" y="125.812" fill="#FF6950" width="10" height="10"/>
	<rect x="20" y="125.812" fill="#FF6950" width="10" height="10"/>
	<rect y="125.812" fill="#FF6950" width="10" height="10"/>
	<rect x="960" y="79.875" fill="#FF6950" width="10" height="10"/>
	<rect x="980" y="910.354" fill="#FF6950" width="10" height="10"/>
	<rect x="980" y="717.895" fill="#FF6950" width="10" height="10"/>
	<rect x="980" y="310.395" fill="#FF6950" width="10" height="10"/>
	<rect x="980" y="125.812" fill="#FF6950" width="10" height="10"/>
	<rect x="980" y="79.875" fill="#FF6950" width="10" height="10"/>
	<rect x="940" y="79.875" fill="#FF6950" width="10" height="10"/>
	<rect x="920" y="79.875" fill="#FF6950" width="10" height="10"/>
	<rect x="900" y="79.875" fill="#FF6950" width="10" height="10"/>
	<rect x="880" y="79.875" fill="#FF6950" width="10" height="10"/>
	<rect x="860" y="79.875" fill="#FF6950" width="10" height="10"/>
	<rect x="840" y="79.875" fill="#FF6950" width="10" height="10"/>
	<rect x="820" y="79.875" fill="#FF6950" width="10" height="10"/>
	<rect x="800" y="79.875" fill="#FF6950" width="10" height="10"/>
	<rect x="780" y="79.875" fill="#FF6950" width="10" height="10"/>
	<rect x="760" y="79.875" fill="#FF6950" width="10" height="10"/>
	<rect x="740" y="79.875" fill="#FF6950" width="10" height="10"/>
	<rect x="720" y="79.875" fill="#FF6950" width="10" height="10"/>
	<rect x="700" y="79.875" fill="#FF6950" width="10" height="10"/>
	<rect x="680" y="79.875" fill="#FF6950" width="10" height="10"/>
	<rect x="660" y="79.875" fill="#FF6950" width="10" height="10"/>
	<rect x="640" y="79.875" fill="#FF6950" width="10" height="10"/>
	<rect x="620" y="79.875" fill="#FF6950" width="10" height="10"/>
	<rect x="600" y="79.875" fill="#FF6950" width="10" height="10"/>
	<rect x="580" y="79.875" fill="#FF6950" width="10" height="10"/>
	<rect x="560" y="79.875" fill="#FF6950" width="10" height="10"/>
	<rect x="540" y="79.875" fill="#FF6950" width="10" height="10"/>
	<rect x="520" y="79.875" fill="#FF6950" width="10" height="10"/>
	<rect x="500" y="79.875" fill="#FF6950" width="10" height="10"/>
	<rect x="480" y="79.875" fill="#FF6950" width="10" height="10"/>
	<rect x="460" y="79.875" fill="#FF6950" width="10" height="10"/>
	<rect x="440" y="79.875" fill="#FF6950" width="10" height="10"/>
	<rect x="420" y="79.875" fill="#FF6950" width="10" height="10"/>
	<rect x="400" y="79.875" fill="#FF6950" width="10" height="10"/>
	<rect x="380" y="79.875" fill="#FF6950" width="10" height="10"/>
	<rect x="360" y="79.875" fill="#FF6950" width="10" height="10"/>
	<rect x="340" y="79.875" fill="#FF6950" width="10" height="10"/>
	<rect x="320" y="79.875" fill="#FF6950" width="10" height="10"/>
	<rect x="300" y="79.875" fill="#FF6950" width="10" height="10"/>
	<rect x="280" y="79.875" fill="#FF6950" width="10" height="10"/>
	<rect x="260" y="79.875" fill="#FF6950" width="10" height="10"/>
	<rect x="240" y="79.875" fill="#FF6950" width="10" height="10"/>
	<rect x="220" y="79.875" fill="#FF6950" width="10" height="10"/>
	<rect x="200" y="79.875" fill="#FF6950" width="10" height="10"/>
	<rect x="180" y="79.875" fill="#FF6950" width="10" height="10"/>
	<rect x="160" y="79.875" fill="#FF6950" width="10" height="10"/>
	<rect x="140" y="79.875" fill="#FF6950" width="10" height="10"/>
	<rect x="120" y="79.875" fill="#FF6950" width="10" height="10"/>
	<rect x="100" y="79.875" fill="#FF6950" width="10" height="10"/>
	<rect x="80" y="79.875" fill="#FF6950" width="10" height="10"/>
	<rect x="60" y="79.875" fill="#FF6950" width="10" height="10"/>
	<rect x="40" y="79.875" fill="#FF6950" width="10" height="10"/>
	<rect x="20" y="79.875" fill="#FF6950" width="10" height="10"/>
	<rect y="79.875" fill="#FF6950" width="10" height="10"/>
</g>
</svg>
