<?xml version="1.0" encoding="UTF-8" standalone="no"?>
<!-- Generator: Adobe Illustrator 16.0.0, SVG Export Plug-In . SVG Version: 6.00 Build 0)  -->

<svg
   xmlns:dc="http://purl.org/dc/elements/1.1/"
   xmlns:cc="http://creativecommons.org/ns#"
   xmlns:rdf="http://www.w3.org/1999/02/22-rdf-syntax-ns#"
   xmlns:svg="http://www.w3.org/2000/svg"
   xmlns="http://www.w3.org/2000/svg"
   xmlns:sodipodi="http://sodipodi.sourceforge.net/DTD/sodipodi-0.dtd"
   xmlns:inkscape="http://www.inkscape.org/namespaces/inkscape"
   version="1.1"
   id="Layer_1"
   x="0px"
   y="0px"
   width="48"
   height="48"
   viewBox="0 0 48.000001 48.000001"
   enable-background="new 0 0 904.8 598.972"
   xml:space="preserve"
   inkscape:version="0.48.4 r9939"
   sodipodi:docname="favicon.svg"
   inkscape:export-filename="/home/nicholas/Desktop/favicon.png"
   inkscape:export-xdpi="90"
   inkscape:export-ydpi="90"><metadata
     id="metadata37"><rdf:RDF><cc:Work
         rdf:about=""><dc:format>image/svg+xml</dc:format><dc:type
           rdf:resource="http://purl.org/dc/dcmitype/StillImage" /><dc:title /></cc:Work></rdf:RDF></metadata><defs
     id="defs35" /><sodipodi:namedview
     pagecolor="#ffffff"
     bordercolor="#666666"
     borderopacity="1"
     objecttolerance="10"
     gridtolerance="10"
     guidetolerance="10"
     inkscape:pageopacity="0"
     inkscape:pageshadow="2"
     inkscape:window-width="1317"
     inkscape:window-height="744"
     id="namedview33"
     showgrid="false"
     inkscape:zoom="5.3404068"
     inkscape:cx="-2.6693384"
     inkscape:cy="16.135225"
     inkscape:window-x="49"
     inkscape:window-y="24"
     inkscape:window-maximized="1"
     inkscape:current-layer="Layer_1"
     fit-margin-top="0"
     fit-margin-left="0"
     fit-margin-right="0"
     fit-margin-bottom="0" /><path
     style="font-size:40px;font-style:normal;font-weight:normal;line-height:125%;letter-spacing:0px;word-spacing:0px;fill:#282828;fill-opacity:1;stroke:none;font-family:Sans"
     d="M 22.673277,4.7624923 9.6791802,37.267247 c -0.2996888,0.699268 -0.6035341,1.295512 -0.9365115,1.79498 -0.299688,0.466177 -0.659724,0.870959 -1.0925971,1.170639 -0.3995805,0.299687 -0.8777211,0.535895 -1.4437885,0.702384 -0.5327727,0.166493 -1.1852078,0.290321 -1.9510657,0.390213 l 0,1.912045 12.1356286,0 0,-1.912045 c -1.398535,3e-6 -2.405284,-0.174294 -3.004642,-0.507277 -0.599376,-0.366276 -0.897497,-1.018713 -0.89749,-1.951065 -7e-6,-0.332978 0.05618,-0.754927 0.156085,-1.287703 0.09988,-0.532765 0.235161,-1.185201 0.468256,-1.951066 0.266377,-0.76585 0.614968,-1.660218 1.014555,-2.69247 0.399568,-1.065531 0.877708,-2.263746 1.443788,-3.628984 l 13.345289,0 2.029108,5.384943 c 0.233061,0.566077 0.413079,1.049941 0.546299,1.482809 0.166464,0.399584 0.284568,0.75962 0.351192,1.092597 0.09987,0.332987 0.200801,0.675855 0.234128,0.975534 0.03328,0.266389 0.03899,0.564512 0.03902,0.89749 -2.8e-5,0.765861 -0.348618,1.305916 -1.014555,1.638895 -0.665989,0.332983 -1.864202,0.507279 -3.628982,0.507277 l 0,1.951065 16.271888,0 0,-1.951065 c -0.865791,2e-6 -1.630608,-0.106651 -2.263237,-0.273149 C 40.882146,40.846805 40.336369,40.486769 39.803634,39.920697 39.270829,39.354631 38.730773,38.522178 38.164739,37.423333 37.598636,36.2912 36.940477,34.800587 36.174652,32.935882 L 24.819449,4.7624923 l -2.146172,0 z m -0.234128,7.2969857 5.541027,14.750056 -11.394224,0 5.853197,-14.750056 z"
     id="text3014"
     inkscape:connector-curvature="0" /></svg>