<?xml version="1.0" encoding="UTF-8" standalone="no"?>
<!-- Generator: Adobe Illustrator 16.0.0, SVG Export Plug-In . SVG Version: 6.00 Build 0)  -->

<svg
   xmlns:dc="http://purl.org/dc/elements/1.1/"
   xmlns:cc="http://creativecommons.org/ns#"
   xmlns:rdf="http://www.w3.org/1999/02/22-rdf-syntax-ns#"
   xmlns:svg="http://www.w3.org/2000/svg"
   xmlns="http://www.w3.org/2000/svg"
   xmlns:sodipodi="http://sodipodi.sourceforge.net/DTD/sodipodi-0.dtd"
   xmlns:inkscape="http://www.inkscape.org/namespaces/inkscape"
   version="1.1"
   id="Layer_1"
   x="0px"
   y="0px"
   width="82"
   height="400"
   viewBox="0 0 82.000001 400.00001"
   enable-background="new 0 0 904.8 598.972"
   xml:space="preserve"
   inkscape:version="0.48.4 r9939"
   sodipodi:docname="mobile_logo.svg"><metadata
     id="metadata37"><rdf:RDF><cc:Work
         rdf:about=""><dc:format>image/svg+xml</dc:format><dc:type
           rdf:resource="http://purl.org/dc/dcmitype/StillImage" /><dc:title /></cc:Work></rdf:RDF></metadata><defs
     id="defs35" /><sodipodi:namedview
     pagecolor="#ffffff"
     bordercolor="#666666"
     borderopacity="1"
     objecttolerance="10"
     gridtolerance="10"
     guidetolerance="10"
     inkscape:pageopacity="0"
     inkscape:pageshadow="2"
     inkscape:window-width="1317"
     inkscape:window-height="744"
     id="namedview33"
     showgrid="false"
     inkscape:zoom="0.66755085"
     inkscape:cx="64.411673"
     inkscape:cy="272.73148"
     inkscape:window-x="49"
     inkscape:window-y="24"
     inkscape:window-maximized="1"
     inkscape:current-layer="Layer_1" /><path
     style="font-size:40px;font-style:normal;font-weight:normal;line-height:125%;letter-spacing:0px;word-spacing:0px;fill:#f4f4f4;fill-opacity:1;stroke:none;font-family:Sans"
     d="m 81.690145,347.67757 c -5e-5,-1.32975 -0.45795,-2.43574 -1.37848,-3.35631 -0.92065,-0.92058 -2.02664,-1.37847 -3.35631,-1.37847 -1.32979,0 -2.49571,0.45789 -3.41624,1.37847 -0.92065,0.92057 -1.37854,2.02656 -1.37848,3.35631 -6e-5,1.32974 0.45783,2.49563 1.37848,3.41624 0.92053,0.92057 2.08645,1.37847 3.41624,1.37848 1.32967,0 2.43566,-0.45791 3.35631,-1.37848 0.92053,-0.92061 1.37843,-2.0865 1.37848,-3.41624 z m -1.91789,-98.23195 c -5e-5,-4.50067 -0.81196,-8.69925 -2.39736,-12.58614 -1.58552,-3.88695 -3.71118,-7.26484 -6.47288,-10.12886 -2.76182,-2.86407 -6.0446,-5.13596 -9.82919,-6.77255 -3.78467,-1.63662 -7.88815,-2.4573 -12.28648,-2.4573 -4.24497,0 -8.25334,0.73438 -11.98682,2.21756 -3.68237,1.53431 -6.89643,3.6336 -9.70932,6.29308 -2.76176,2.65946 -5.02487,5.84715 -6.71261,9.52952 -1.6366,3.68233 -2.48367,7.6907 -2.6371,11.98681 l -5.69374,-10.00899 c -0.66486,-1.17634 -1.20906,-2.09213 -1.61822,-2.75698 -0.4602803,-0.66489 -0.8318703,-1.14035 -1.1387503,-1.49834 -0.35799,-0.30688 -0.70321,-0.49708 -0.95894,-0.59934 -0.25572,-0.1023 -0.541,-0.17982 -0.89901,-0.1798 -1.27859,-2e-5 -1.91788,0.73438 -1.9179,2.21756 2e-5,0.86942 0.26772,1.59501 0.77915,2.15763 0.51144,0.6137 1.07323,1.25299 1.73809,1.91789 0.61374,0.66483 1.16673,1.39923 1.67815,2.21756 0.5114403,0.81826 0.7791403,1.90667 0.7791403,3.23644 0,1.94343 -0.5441803,3.87889 -1.6182203,5.87354 -1.12515,1.99456 -2.31744,4.08506 -3.59604,6.23314 -1.32971,2.19913 -2.52201,4.48861 -3.59605,6.89242 C 0.55300467,265.68531 2.4670842e-5,268.3376 4.6708416e-6,271.2017 2.4670842e-5,273.09397 0.27652467,274.89916 0.83908467,276.53583 c 0.56259003,1.63654 1.37451003,3.01901 2.39736003,4.19539 0.97174,1.22737 2.09531,2.15197 3.47618,2.8169 1.32975,0.71595 2.85846,1.07874 4.4950503,1.07881 0.5626,-7e-5 1.11558,-0.009 1.67816,-0.0599 0.56259,-0.0512 1.03805,-0.13751 1.49835,-0.23974 l 0,-1.91789 c -2.50603,-0.76723 -4.25131,-1.76933 -5.2742003,-2.9967 -1.02287,-1.22751 -1.49833,-3.05031 -1.49835,-5.454 2e-5,-2.09695 0.2853,-4.04121 0.89901,-5.93348 0.56259,-1.89236 1.21069,-3.80147 1.9778203,-5.69373 0.71603,-1.89237 1.3641,-3.81904 1.97783,-5.81361 0.56259,-1.99464 0.89901,-4.17145 0.89901,-6.47288 l 0,-1.43842 c -0.0511,-0.51146 -0.12865,-0.95179 -0.1798,-1.25861 l 0.29967,0 c 0.8183,1.07398 1.5439,2.25747 2.15762,3.53611 0.61373,1.32969 1.17552,2.6946 1.73809,4.07552 1.07402,2.91515 2.24873,5.73125 3.47618,8.39077 1.2786,2.65942 2.83368,5.04399 4.67486,7.19208 2.86404,3.27313 6.25071,5.8479 10.18879,7.79143 3.98919,1.99453 8.37796,2.99663 13.18549,2.99671 4.34719,-8e-5 8.43308,-0.82076 12.16662,-2.4573 3.78459,-1.63667 7.06737,-3.84863 9.82919,-6.71262 2.7617,-2.8641 4.88735,-6.24198 6.47288,-10.12885 1.5854,-3.88697 2.39731,-8.08554 2.39736,-12.58616 z M 78.993115,1e-5 l -14.62391,0 0,2.81691 c 2.71057,0.0511 4.81864,0.49146 6.35301,1.25861 1.53425,0.76716 2.64024,1.76926 3.35631,2.99671 0.76709,1.27858 1.22499,2.74735 1.37848,4.43512 0.15337,1.73887 0.23968,3.57924 0.23974,5.57387 -6e-5,1.63657 -0.0177,2.98389 -0.11987,3.95564 -0.0512,0.9717 -0.21502,1.7061 -0.41954,2.21757 -0.20464,0.56255 -0.47234,0.92536 -0.77914,1.07881 -0.25577,0.20454 -0.55865,0.29965 -1.01888,0.29967 l -41.05484,0 c -1.63662,-2e-5 -3.07902,-0.10391 -4.25532,-0.35961 -1.17632,-0.2046 -2.10968,-0.72243 -2.87684,-1.43841 -0.71602,-0.6649 -1.26901,-1.60706 -1.67815,-2.93677 -0.35802,-1.32975 -0.60813,-3.06625 -0.65928,-5.21427 l -2.87683,0 0,28.94816 2.87683,0 c 0.0512,-2.14808 0.30126,-3.88457 0.65928,-5.21426 0.40914,-1.27864 0.96213,-2.28074 1.67815,-2.99671 0.76716,-0.66491 1.70052,-1.12281 2.87684,-1.37848 1.1763,-0.20462 2.6187,-0.29971 4.25532,-0.29967 l 41.05484,0 c 0.46023,-4e-5 0.76311,0.0863 1.01888,0.23973 0.3068,0.20455 0.5745,0.64486 0.77914,1.25862 0.20452,0.61369 0.36833,1.45196 0.41954,2.57717 0.10222,1.17626 0.11981,2.72256 0.11987,4.61492 -6e-5,2.19913 -0.18146,4.10824 -0.53941,5.69374 -0.35807,1.5854 -0.92862,2.87278 -1.79802,3.89571 -0.81835,1.07396 -1.99306,1.89467 -3.47618,2.4573 -1.48322,0.56252 -3.3148,0.92532 -5.51393,1.07881 l 0,3.11657 14.62391,-0.77914 0,-57.89632 z m -3.41624,249.44561 c -6e-5,3.37545 -0.63935,6.39932 -1.91789,9.10998 -1.22751,2.71057 -3.04151,5.00006 -5.39407,6.89242 -2.30151,1.89229 -5.12641,3.35226 -8.4507,4.37519 -3.27325,1.02281 -6.9364,1.55822 -11.02787,1.55828 -4.19382,-6e-5 -8.01201,-0.53546 -11.38748,-1.55828 -3.32435,-1.02293 -6.16682,-2.49171 -8.57057,-4.43513 -2.35262,-1.89236 -4.17542,-4.18183 -5.454,-6.89241 -1.2786,-2.65952 -1.91789,-5.6746 -1.91789,-9.05005 0,-3.37552 0.63929,-6.39939 1.91789,-9.10998 1.27858,-2.71065 3.10138,-5.06005 5.454,-6.95235 2.40375,-1.89235 5.24622,-3.35234 8.57057,-4.37519 3.37547,-1.02289 7.19366,-1.49837 11.38748,-1.49835 4.09147,-2e-5 7.75462,0.47546 11.02787,1.49835 3.32429,1.02285 6.14919,2.48284 8.4507,4.37519 2.35256,1.8923 4.16656,4.2417 5.39407,6.95235 1.27854,2.71059 1.91783,5.73446 1.91789,9.10998 z M 61.372495,127.59966 c -4e-5,-2.50607 -0.55302,-4.70046 -1.67815,-6.59275 -1.12521,-1.89234 -2.67151,-3.63763 -4.61493,-5.2742 l 0,-0.29967 5.99341,0 -2.93677,-14.74379 -2.57716,0 c -4e-5,2.55719 -0.25896,4.29368 -0.71921,5.21427 -0.40918,0.92059 -1.22989,1.54228 -2.4573,1.79803 -0.71604,0.20456 -2.00343,0.30844 -3.89571,0.3596 -1.89235,0.10228 -4.34566,0.1798 -7.31196,0.1798 l -28.70842,0 c -1.84118,0 -3.3099603,-0.0951 -4.4351203,-0.29967 -1.1763,-0.20459 -2.0921,-0.6361 -2.75697,-1.19869 -0.66486,-0.51144 -1.12275,-1.24583 -1.37849,-2.21755 -0.25569,-0.9206 -0.4283,-2.12167 -0.47947,-3.65598 l -2.63710003,0 0,23.61403 2.63710003,0 c 0.0512,-1.89236 0.22378,-3.43865 0.47947,-4.61494 0.25574,-1.12518 0.71363,-1.96345 1.37849,-2.57714 0.66487,-0.61375 1.6494,-1.05406 2.87683,-1.25863 1.22747,-0.2046 2.8089303,-0.29969 4.8546603,-0.29966 l 11.20768,0 c -1.79003,1.68772 -3.07741,3.50171 -3.89572,5.39407 -0.76716,1.94342 -1.13875,4.0603 -1.13875,6.41292 0,2.86404 0.47549,5.5163 1.49836,7.97125 1.02286,2.45486 2.47407,4.62288 4.31525,6.41294 1.84117,1.78998 4.03555,3.17246 6.59275,4.19538 2.60831,1.02283 5.51071,1.55823 8.6305,1.55829 3.06861,-5e-5 5.83355,-0.53546 8.39077,-1.55829 2.6083,-0.97178 4.88021,-2.34546 6.77255,-4.13545 1.89229,-1.79007 3.35228,-3.89814 4.37519,-6.35302 1.07398,-2.40378 1.61818,-5.116 1.61822,-8.03115 z m 0,44.35121 c -4e-5,-3.06865 -0.54424,-5.96227 -1.61822,-8.57057 -1.07406,-2.5572 -2.54283,-4.76038 -4.43512,-6.65268 -1.89234,-1.84118 -4.17304,-3.29239 -6.83248,-4.31526 -2.6595,-1.02288 -5.57071,-1.49835 -8.69044,-1.49835 -3.06865,0 -5.89353,0.46668 -8.45071,1.43842 -2.50605,0.97172 -4.6317,2.33662 -6.47288,4.07552 -1.79002,1.79002 -3.23245,3.89809 -4.25532,6.353 -0.97174,2.45489 -1.43842,5.19347 -1.43842,8.21097 0,6.44408 2.64349,11.83493 7.9113,16.1822 l 2.15763,-2.33742 c -2.14804,-1.9435 -3.76308,-3.8526 -4.73479,-5.69374 -0.92059,-1.84121 -1.37849,-3.84539 -1.37849,-5.99341 0,-2.04577 0.44031,-3.88614 1.25862,-5.57386 0.86944,-1.63662 2.06173,-3.08783 3.59604,-4.31527 1.5343,-1.17631 3.36588,-2.09211 5.51394,-2.75697 2.19917,-0.61374 4.65245,-0.95896 7.31195,-0.95894 0.71599,-2e-5 1.3553,0.0687 1.91789,0.11987 0.61371,0.0511 1.08917,0.13743 1.49836,0.23973 l 0,25.23226 c -2e-5,1.02283 0.0863,1.66214 0.23973,1.91789 0.15341,0.30682 0.60251,0.4195 1.31855,0.41953 5.01206,-4e-5 8.84784,-1.305 11.50734,-4.01558 2.71058,-2.71066 4.07548,-6.54644 4.07552,-11.50734 z m 0,179.80222 -2.93677,-15.04346 -2.69703,0 c -4e-5,2.55718 -0.19902,4.29368 -0.65928,5.21428 -0.40918,0.92058 -1.22108,1.54229 -2.39736,1.79801 -0.71604,0.20457 -2.01221,0.30845 -3.95565,0.3596 -1.89234,0.10228 -4.34565,0.1798 -7.31195,0.17981 l -9.82919,0 c -1.79005,-10e-6 -3.25882,-0.15504 -4.43512,-0.35961 -1.12517,-0.15342 -2.03218,-0.4563 -2.69704,-1.01887 -0.61372,-0.51144 -1.07162,-1.30578 -1.37848,-2.27749 -0.25571,-0.97174 -0.42832,-2.1816 -0.47947,-3.71592 l -2.6371,0 0,21.99581 2.6371,0 c 0.0512,-1.53433 0.22376,-2.73541 0.47947,-3.65598 0.25571,-0.92061 0.71361,-1.6462 1.37848,-2.15763 0.71601,-0.51146 1.70052,-0.87425 2.87684,-1.07881 1.22745,-0.15345 2.8001,-0.23975 4.79472,-0.23973 l 29.24783,0 z m -0.77914,-303.14654 -2.69703,0 c -0.10232,1.02287 -0.215,1.85235 -0.41954,2.51723 -0.15347,0.66486 -0.50748,1.28658 -1.01888,1.79802 -0.46033,0.56258 -1.10843,1.03806 -1.97783,1.49835 -0.81832,0.51143 -1.98425,1.13315 -3.41624,1.79803 l -31.94486,14.68384 -5.39407,-2.6371 c -0.97172,-0.46031 -1.79242,-0.98692 -2.45729,-1.49835 -0.66486,-0.46031 -1.20906,-1.00451 -1.6182203,-1.61822 -0.46028,-0.61374 -0.82309,-1.27062 -1.07882,-2.03776 -0.30685,-0.76717 -0.50583,-1.68296 -0.65927,-2.75696 -0.40915,-2.40377 -0.93576,-4.05394 -1.49835,-4.97453 -0.61372,-0.86946 -1.53832,-1.31855 -2.81692,-1.31855 -2.40373,0 -3.596020029158,1.57267 -3.5960400291584,4.79473 C 1.4670842e-5,63.81621 2.6435047,67.47057 7.9112947,69.82321 L 45.070415,86.54482 c 2.86404,1.22741 5.14471,2.29822 6.83249,3.11658 1.68771,0.86939 2.9663,1.61257 3.83578,2.27749 0.92055,0.71597 1.54227,1.43277 1.79803,2.09769 0.25567,0.66481 0.35956,1.48552 0.3596,2.45729 l 2.69704,0 0,-16.90141 -2.69704,0 c -4e-5,2.09688 -0.19901,3.47935 -0.65927,4.19539 -0.46033,0.76712 -1.36734,1.19864 -2.69704,1.19868 -0.40918,-4e-5 -0.8583,-0.0776 -1.31854,-0.1798 -0.46033,-0.0512 -1.02211,-0.2238 -1.73809,-0.47947 -0.66489,-0.20461 -1.56312,-0.49869 -2.6371,-0.95895 -1.07404,-0.40918 -2.44773,-0.95338 -4.13545,-1.61822 l -17.26102,-7.01229 0,-0.3596 20.43753,-8.4507 c 1.48313,-0.61375 2.94313,-1.08923 4.37518,-1.49836 1.432,-0.40916 2.45168,-0.65929 3.11657,-0.65927 1.68771,-2e-5 2.5172,1.72767 2.51723,5.15434 l 2.69704,0 0,-20.31766 z m 0,235.9005 -2.69703,0 c -0.15347,1.48317 -0.34367,2.59794 -0.59935,3.41625 -0.20461,0.86943 -0.65371,1.50873 -1.31854,1.9179 -0.61377,0.46029 -1.52956,0.73676 -2.75697,0.83907 -1.17634,0.10227 -2.81773,0.1798 -4.9146,0.1798 l -12.16661,0 c -3.17093,0 -5.79685,0.18139 -7.79143,0.5394 -1.99461,0.40915 -3.54971,1.04845 -4.67486,1.9179 -1.38088,1.02287 -2.47807,2.50043 -3.29637,4.49506 -0.81831,2.04574 -1.19869,4.14502 -1.19869,6.29308 0,2.76174 0.7256,5.40523 2.15763,7.91129 1.48316,2.55717 3.78143,4.82906 6.95235,6.77255 l 0,0.29967 -9.16991,0.83908 0.89901,12.64608 2.69703,0 c 0,-1.17636 0.009,-2.10972 0.0599,-2.87683 0.10228,-0.71606 0.27489,-1.33777 0.47947,-1.79803 0.25571,-0.46033 0.541,-0.82314 0.89901,-1.07881 0.40915,-0.20462 0.95335,-0.37723 1.61822,-0.47947 0.92059,-0.15347 2.29428,-0.25736 4.13545,-0.35961 1.84116,-0.0512 4.21695,-0.06 7.13216,-0.0599 l 23.55409,0 0,-13.90471 -2.69703,0 c -0.15347,1.48315 -0.34367,2.65786 -0.59935,3.47618 -0.20461,0.86942 -0.65371,1.50871 -1.31854,1.9179 -0.61377,0.46025 -1.52956,0.73676 -2.75697,0.83907 -1.17634,0.10225 -2.81773,0.11983 -4.9146,0.11987 l -7.49176,0 c -1.07403,-4e-5 -1.98983,-0.009 -2.75696,-0.0599 -0.76718,-0.0512 -1.48399,-0.13749 -2.0977,-0.23973 -0.61374,-0.10232 -1.16673,-0.20623 -1.67815,-0.35961 -0.51144,-0.15347 -1.06445,-0.34365 -1.67815,-0.59934 -5.88154,-2.50607 -8.81031,-6.04778 -8.81031,-10.5484 0,-2.86406 1.20986,-4.96336 3.71591,-6.29307 2.50603,-1.27862 6.59194,-1.91791 12.16662,-1.91789 l 20.91699,0 0,-13.84478 z m 0,82.16962 -10.60833,-1.19867 0,2.4573 c 1.58542,0.25571 2.85522,0.61851 3.77584,1.07881 0.9717,0.46029 1.70608,1.10837 2.21757,1.97781 0.56253,0.92057 0.92534,2.09528 1.07881,3.47618 0.20454,1.43201 0.29963,3.25479 0.29967,5.454 l 0,8.51064 -37.09919,-26.5508 -0.29967,0 0,36.79953 11.86694,1.31854 0,-2.51723 c -1.79004,-0.46033 -3.24123,-1.01331 -4.31525,-1.67815 -1.07402,-0.61376 -1.90351,-1.51197 -2.51723,-2.6371 -0.61373,-1.07406 -0.99412,-2.45653 -1.19868,-4.19538 -0.20458,-1.68777 -0.29967,-3.86457 -0.29967,-6.47288 l 0,-8.99012 36.79952,26.19119 0.29967,0 0,-33.02366 z m -2.93677,-239.97603 c -4e-5,1.84113 -0.38922,3.49132 -1.25862,4.97453 -0.86947,1.53427 -2.13048,2.88159 -3.71591,3.95564 -1.53435,1.07398 -3.37472,1.8947 -5.57387,2.4573 -2.14805,0.61369 -4.59258,0.89897 -7.25202,0.89901 -5.37011,-4e-5 -9.49996,-1.09722 -12.46629,-3.29637 -2.96634,-2.14808 -4.43512,-4.98176 -4.43512,-8.51064 0,-1.79006 0.38916,-3.51776 1.25862,-5.15433 0.92058,-1.63661 2.19916,-3.01911 3.83578,-4.19539 0.51142,-0.40916 1.05562,-0.76318 1.61822,-1.01888 0.56257,-0.25573 1.20186,-0.44592 1.91789,-0.59934 0.716,-0.15345 1.54549,-0.31727 2.51723,-0.41953 1.02287,-0.0512 2.27508,-0.06 3.65598,-0.0599 l 5.93347,0 c 2.2503,-2e-5 4.0731,0.17259 5.454,0.47947 1.43199,0.358 2.69301,0.83346 3.71591,1.49836 1.53428,1.02285 2.71777,2.30145 3.53611,3.83578 0.8694,1.58542 1.25858,3.31313 1.25862,5.15433 z m 0,43.99161 c -4e-5,2.60831 -0.6657,4.63007 -2.09769,6.11327 -1.38092,1.53428 -3.28123,2.33739 -5.63381,2.33743 -0.46033,-4e-5 -0.83192,-0.0775 -1.13874,-0.1798 -0.25575,-0.10232 -0.44593,-0.29252 -0.59934,-0.59934 -0.15345,-0.3069 -0.24856,-0.7648 -0.29967,-1.37848 -0.0512,-0.61377 -0.11989,-1.43445 -0.11987,-2.4573 l 0,-14.08451 c 6.5975,1.32973 9.88908,4.72518 9.88912,10.24873 z"
     id="text3014"
     inkscape:connector-curvature="0" /></svg>