<?xml version="1.0" encoding="utf-8"?>
<!-- Generator: Adobe Illustrator 17.1.0, SVG Export Plug-In . SVG Version: 6.00 Build 0)  -->
<!DOCTYPE svg PUBLIC "-//W3C//DTD SVG 1.1//EN" "http://www.w3.org/Graphics/SVG/1.1/DTD/svg11.dtd">
<svg version="1.1" xmlns="http://www.w3.org/2000/svg" xmlns:xlink="http://www.w3.org/1999/xlink" x="0px" y="0px"
	 viewBox="276.106 -7256.554 195.305 195.305" enable-background="new 276.106 -7256.554 195.305 195.305" xml:space="preserve">
<g id="Aperature">
</g>
<g id="Apex">
</g>
<g id="Arc">
</g>
<g id="Arm">
</g>
<g id="Ascender">
</g>
<g id="Ascender_Line">
</g>
<g id="Ascender_height">
</g>
<g id="Ascent_Line">
</g>
<g id="Axis">
</g>
<g id="Base_Line">
</g>
<g id="Beak">
</g>
<g id="Bilateral_Serif">
</g>
<g id="Body_Width">
</g>
<g id="Bowl">
</g>
<g id="Bracket">
</g>
<g id="Cap_Height">
</g>
<g id="Charachter_Width">
</g>
<g id="Counter_x28_open_x29_">
</g>
<g id="Counter_x28_closed_x29_">
</g>
<g id="Cross_Stroke_1_">
</g>
<g id="Crotch">
</g>
<g id="Descender">
</g>
<g id="Decent_Line">
</g>
<g id="diacritic">
</g>
<g id="Ear">
</g>
<g id="Eye">
</g>
<g id="Finial">
</g>
<g id="Foot">
</g>
<g id="Hairline_Stroke">
</g>
<g id="Head_Serif">
</g>
<g id="Joint">
</g>
<g id="Leg">
</g>
<g id="Ligature">
</g>
<g id="Link_x2F_Neck">
</g>
<g id="Loop">
</g>
<g id="Overhang">
	<polygon fill="#00CCFF" points="369.239,-7115.364 369.929,-7113.663 378.64,-7113.663 379.378,-7115.364 	"/>
	<path fill="#282828" d="M387.953-7194.924v5.257c4.004,0,6.609,0.401,7.811,1.202c1.202,0.803,1.802,2.354,1.802,4.657
		c0,2.305-0.451,4.957-1.352,7.96c-0.901,3.004-2.403,7.011-4.506,12.017l-13.669,32.294h-0.601l-15.922-43.56
		c-0.502-1.502-0.976-3.004-1.427-4.506s-0.676-3.103-0.676-4.807c0-1.202,0.15-2.126,0.451-2.779c0.3-0.65,0.826-1.15,1.577-1.502
		c0.751-0.35,1.777-0.575,3.079-0.676c1.3-0.099,2.953-0.2,4.957-0.301v-5.257h-39.804v5.257c1.901,0.101,3.53,0.277,4.882,0.526
		c1.352,0.251,2.577,0.826,3.68,1.728c1.101,0.901,2.126,2.229,3.079,3.98c0.951,1.753,2.028,4.13,3.229,7.135l24.695,60.935h10.139
		l21.343-49.219c0.601-1.202,1.251-2.779,1.953-4.731c0.699-1.953,1.476-3.929,2.328-5.933c0.85-2.002,1.702-3.929,2.554-5.783
		c0.85-1.852,1.676-3.328,2.478-4.431c1-1.202,2.152-2.202,3.455-3.004c1.3-0.8,2.753-1.202,4.356-1.202v-5.257H387.953z"/>
</g>
<g id="Serif">
</g>
<g id="Shoulder">
</g>
<g id="Spine">
</g>
<g id="Spur">
</g>
<g id="Stem">
</g>
<g id="Stress">
</g>
<g id="Tail">
</g>
<g id="Tittle">
</g>
<g id="Terminal">
</g>
<g id="Vertex">
</g>
</svg>
