<?xml version="1.0" encoding="utf-8"?>
<!-- Generator: Adobe Illustrator 17.1.0, SVG Export Plug-In . SVG Version: 6.00 Build 0)  -->
<!DOCTYPE svg PUBLIC "-//W3C//DTD SVG 1.1//EN" "http://www.w3.org/Graphics/SVG/1.1/DTD/svg11.dtd">
<svg version="1.1" xmlns="http://www.w3.org/2000/svg" xmlns:xlink="http://www.w3.org/1999/xlink" x="0px" y="0px"
	 viewBox="2429.152 -7256.554 195.305 195.305" enable-background="new 2429.152 -7256.554 195.305 195.305" xml:space="preserve">
<g id="Aperature">
</g>
<g id="Apex">
</g>
<g id="Arc">
</g>
<g id="Arm">
</g>
<g id="Ascender">
</g>
<g id="Ascender_Line">
</g>
<g id="Ascender_height">
</g>
<g id="Ascent_Line">
</g>
<g id="Axis">
</g>
<g id="Base_Line">
</g>
<g id="Beak">
</g>
<g id="Bilateral_Serif">
</g>
<g id="Body_Width">
</g>
<g id="Bowl">
</g>
<g id="Bracket">
</g>
<g id="Cap_Height">
</g>
<g id="Charachter_Width">
</g>
<g id="Counter_x28_open_x29_">
</g>
<g id="Counter_x28_closed_x29_">
</g>
<g id="Cross_Stroke_1_">
</g>
<g id="Crotch">
</g>
<g id="Descender">
</g>
<g id="Decent_Line">
</g>
<g id="diacritic">
</g>
<g id="Ear">
</g>
<g id="Eye">
</g>
<g id="Finial">
</g>
<g id="Foot">
</g>
<g id="Hairline_Stroke">
</g>
<g id="Head_Serif">
</g>
<g id="Joint">
</g>
<g id="Leg">
</g>
<g id="Ligature">
</g>
<g id="Link_x2F_Neck">
</g>
<g id="Loop">
</g>
<g id="Overhang">
</g>
<g id="Serif">
</g>
<g id="Shoulder">
</g>
<g id="Spine">
</g>
<g id="Spur">
</g>
<g id="Stem">
</g>
<g id="Stress">
</g>
<g id="Tail">
</g>
<g id="Tittle">
</g>
<g id="Terminal">
</g>
<g id="Vertex">
	<g>
		<path fill="#282828" d="M2497.59-7176.299c-1.201-3.004-2.279-5.382-3.229-7.135c-0.953-1.751-1.979-3.08-3.079-3.98
			c-1.103-0.901-2.328-1.477-3.68-1.728c-1.352-0.249-2.981-0.425-4.882-0.526v-5.257h39.804v5.257
			c-2.004,0.101-3.657,0.202-4.957,0.301c-1.302,0.101-2.328,0.326-3.079,0.676c-0.751,0.352-1.277,0.852-1.577,1.502
			c-0.301,0.652-0.451,1.577-0.451,2.779c0,1.704,0.225,3.305,0.676,4.807s0.925,3.004,1.427,4.506l15.922,43.56h0.601
			l13.669-32.294c2.103-5.006,3.605-9.012,4.506-12.017c0.901-3.004,1.352-5.656,1.352-7.96c0-2.303-0.601-3.854-1.802-4.657
			c-1.202-0.8-3.807-1.202-7.811-1.202v-5.257h29.891v5.257c-1.603,0-3.056,0.401-4.356,1.202c-1.302,0.803-2.455,1.803-3.455,3.004
			c-0.802,1.103-1.629,2.579-2.478,4.431c-0.852,1.854-1.704,3.781-2.553,5.783c-0.852,2.004-1.629,3.98-2.328,5.933
			c-0.702,1.953-1.352,3.53-1.953,4.731l-22.08,50.92h-8.712L2497.59-7176.299z"/>
	</g>
	<g>
		<polygon fill="#00CCFF" points="2531.085,-7131.538 2544.43,-7163.065 2518.961,-7163.065 2530.485,-7131.538 		"/>
	</g>
</g>
</svg>
