<?xml version="1.0" encoding="utf-8"?>
<!-- Generator: Adobe Illustrator 16.0.0, SVG Export Plug-In . SVG Version: 6.00 Build 0)  -->
<!DOCTYPE svg PUBLIC "-//W3C//DTD SVG 1.1//EN" "http://www.w3.org/Graphics/SVG/1.1/DTD/svg11.dtd">
<svg version="1.1" xmlns="http://www.w3.org/2000/svg" xmlns:xlink="http://www.w3.org/1999/xlink" x="0px" y="0px" width="1000px"
	 height="1000px" viewBox="-6641.902 -7658.901 1000 1000" enable-background="new -6641.902 -7658.901 1000 1000"
	 xml:space="preserve">
<g id="design">
	<g>
		<g>
			
				<line fill="none" stroke="#FF6950" stroke-width="10" stroke-miterlimit="10" x1="-6641.902" y1="-6743.547" x2="-6636.902" y2="-6743.547"/>
			
				<line fill="none" stroke="#FF6950" stroke-width="10" stroke-miterlimit="10" stroke-dasharray="10,10" x1="-6626.902" y1="-6743.547" x2="-5651.902" y2="-6743.547"/>
			
				<line fill="none" stroke="#FF6950" stroke-width="10" stroke-miterlimit="10" x1="-5646.902" y1="-6743.547" x2="-5641.902" y2="-6743.547"/>
		</g>
	</g>
	<g>
		<g>
			
				<line fill="none" stroke="#FF6950" stroke-width="10" stroke-miterlimit="10" x1="-6641.902" y1="-6936.007" x2="-6636.902" y2="-6936.007"/>
			
				<line fill="none" stroke="#FF6950" stroke-width="10" stroke-miterlimit="10" stroke-dasharray="10,10" x1="-6626.902" y1="-6936.007" x2="-5651.902" y2="-6936.007"/>
			
				<line fill="none" stroke="#FF6950" stroke-width="10" stroke-miterlimit="10" x1="-5646.902" y1="-6936.007" x2="-5641.902" y2="-6936.007"/>
		</g>
	</g>
	<g>
		<g>
			
				<line fill="none" stroke="#FF6950" stroke-width="10" stroke-miterlimit="10" x1="-6641.902" y1="-7343.506" x2="-6636.902" y2="-7343.506"/>
			
				<line fill="none" stroke="#FF6950" stroke-width="10" stroke-miterlimit="10" stroke-dasharray="10,10" x1="-6626.902" y1="-7343.506" x2="-5651.902" y2="-7343.506"/>
			
				<line fill="none" stroke="#FF6950" stroke-width="10" stroke-miterlimit="10" x1="-5646.902" y1="-7343.506" x2="-5641.902" y2="-7343.506"/>
		</g>
	</g>
	<g>
		<g>
			
				<line fill="none" stroke="#FF6950" stroke-width="10" stroke-miterlimit="10" x1="-6641.902" y1="-7528.09" x2="-6636.902" y2="-7528.09"/>
			
				<line fill="none" stroke="#FF6950" stroke-width="10" stroke-miterlimit="10" stroke-dasharray="10,10" x1="-6626.902" y1="-7528.09" x2="-5651.902" y2="-7528.09"/>
			
				<line fill="none" stroke="#FF6950" stroke-width="10" stroke-miterlimit="10" x1="-5646.902" y1="-7528.09" x2="-5641.902" y2="-7528.09"/>
		</g>
	</g>
	<g>
		<g>
			
				<line fill="none" stroke="#FF6950" stroke-width="10" stroke-miterlimit="10" x1="-6641.902" y1="-7574.026" x2="-6636.902" y2="-7574.026"/>
			
				<line fill="none" stroke="#FF6950" stroke-width="10" stroke-miterlimit="10" stroke-dasharray="10,10" x1="-6626.902" y1="-7574.026" x2="-5651.902" y2="-7574.026"/>
			
				<line fill="none" stroke="#FF6950" stroke-width="10" stroke-miterlimit="10" x1="-5646.902" y1="-7574.026" x2="-5641.902" y2="-7574.026"/>
		</g>
	</g>
</g>
<g id="Aperature" display="none">
</g>
<g id="Apex">
	<polygon fill="#00CCFF" points="-6091.32,-7433.735 -6129.214,-7527.887 -6162.281,-7527.887 -6199.884,-7433.735 	"/>
	<path fill="#282828" d="M-5871.983-6969.592c-9.492-2.561-18.336-8.194-26.53-16.919c-8.207-8.71-16.666-21.651-25.377-38.834
		c-8.724-17.17-18.973-40.107-30.76-68.825l-136.67-339.565h-108.563l-162.337,406.468c-4.615,10.766-9.361,19.874-14.227,27.299
		c-4.878,7.438-10.513,13.458-16.917,18.072c-6.417,4.614-13.842,8.207-22.301,10.766c-8.459,2.571-18.589,4.615-30.375,6.153
		v29.221h186.867v-29.221c-21.532,0-36.912-2.691-46.14-8.075c-9.229-5.383-13.842-15.248-13.842-29.607
		c0-5.117,0.769-11.787,2.307-19.994c1.538-8.194,4.229-18.19,8.074-29.989c3.845-11.788,8.844-25.763,14.996-41.911
		c6.152-16.148,13.578-34.726,22.302-55.753h205.323l31.528,83.052c3.581,8.725,6.537,16.282,8.844,22.686
		c2.307,6.416,4.098,12.185,5.383,17.303c1.273,5.132,2.175,9.878,2.691,14.228c0.505,4.36,0.77,9.107,0.77,14.226
		c0,11.8-5.131,20.258-15.38,25.378c-10.262,5.13-28.97,7.688-56.138,7.688v29.991h250.694v-29.991
		C-5851.1-6965.748-5862.503-6967.021-5871.983-6969.592z M-6256.099-7188.757l89.972-226.855l85.36,226.855H-6256.099z"/>
</g>
<g id="Arc">
</g>
<g id="Arm">
</g>
<g id="Ascender">
</g>
<g id="Ascender_Line" display="none">
</g>
<g id="Ascender_height" display="none">
</g>
<g id="Ascent_Line" display="none">
</g>
<g id="Axis" display="none">
</g>
<g id="Base_Line" display="none">
</g>
<g id="Beak" display="none">
</g>
<g id="Bilateral_Serif" display="none">
</g>
<g id="Bowl" display="none">
</g>
<g id="Bracket" display="none">
</g>
<g id="Cap_Height" display="none">
</g>
<g id="Counter_x28_open_x29_" display="none">
</g>
<g id="Counter_x28_closed_x29_" display="none">
</g>
<g id="Cross_Stroke_1_" display="none">
</g>
<g id="Crotch" display="none">
</g>
<g id="Descender" display="none">
</g>
<g id="Decent_Line" display="none">
</g>
<g id="diacritic" display="none">
</g>
<g id="Ear" display="none">
</g>
<g id="Eye" display="none">
</g>
<g id="Finial" display="none">
</g>
<g id="Foot" display="none">
</g>
<g id="Hairline_Stroke" display="none">
</g>
<g id="Head_Serif" display="none">
</g>
<g id="Joint" display="none">
</g>
<g id="Leg" display="none">
</g>
<g id="Ligature" display="none">
</g>
<g id="Link_x2F_Neck" display="none">
</g>
<g id="Loop" display="none">
</g>
<g id="Overhang" display="none">
</g>
<g id="Serif" display="none">
</g>
<g id="Shoulder" display="none">
</g>
<g id="Spine" display="none">
</g>
<g id="Spur" display="none">
</g>
<g id="Stem" display="none">
</g>
<g id="Stress" display="none">
</g>
<g id="Tail" display="none">
</g>
<g id="Tittle" display="none">
</g>
<g id="Terminal" display="none">
</g>
<g id="Vertex" display="none">
</g>
</svg>
