<?xml version="1.0" encoding="utf-8"?>
<!-- Generator: Adobe Illustrator 17.1.0, SVG Export Plug-In . SVG Version: 6.00 Build 0)  -->
<!DOCTYPE svg PUBLIC "-//W3C//DTD SVG 1.1//EN" "http://www.w3.org/Graphics/SVG/1.1/DTD/svg11.dtd">
<svg version="1.1" xmlns="http://www.w3.org/2000/svg" xmlns:xlink="http://www.w3.org/1999/xlink" x="0px" y="0px"
	 viewBox="-2522.854 -7256.554 195.305 195.305" enable-background="new -2522.854 -7256.554 195.305 195.305" xml:space="preserve"
	>
<g id="Aperature">
</g>
<g id="Apex">
</g>
<g id="Arc">
</g>
<g id="Arm">
</g>
<g id="Ascender">
</g>
<g id="Ascender_Line">
</g>
<g id="Ascender_height">
</g>
<g id="Ascent_Line">
</g>
<g id="Axis">
</g>
<g id="Base_Line">
</g>
<g id="Beak">
</g>
<g id="Bilateral_Serif">
</g>
<g id="Body_Width">
</g>
<g id="Bowl">
</g>
<g id="Bracket">
</g>
<g id="Cap_Height">
</g>
<g id="Charachter_Width">
</g>
<g id="Counter_x28_open_x29_">
</g>
<g id="Counter_x28_closed_x29_">
</g>
<g id="Cross_Stroke_1_">
</g>
<g id="Crotch">
</g>
<g id="Descender">
</g>
<g id="Decent_Line">
	<polygon fill="#00CCFF" points="-2463.816,-7077.772 -2456.093,-7085.495 -2461.145,-7085.495 -2461.145,-7095.997 
		-2466.488,-7095.997 -2466.488,-7085.495 -2471.54,-7085.495 	"/>
	<g>
		<path fill="#282828" d="M-2408.604-7126.13h-0.601c-3.506,4.408-7.135,7.562-10.89,9.463c-3.755,1.901-8.287,2.854-13.594,2.854
			c-5.609,0-10.716-0.976-15.321-2.929c-4.607-1.953-8.588-4.706-11.941-8.261c-3.356-3.553-5.959-7.811-7.811-12.768
			c-1.854-4.957-2.779-10.387-2.779-16.297c0-5.907,1-11.439,3.004-16.598c2.002-5.156,4.755-9.636,8.261-13.443
			c3.504-3.804,7.609-6.809,12.317-9.012c4.706-2.201,9.763-3.304,15.171-3.304s10.613,1.103,15.621,3.304
			c5.006,2.204,9.163,5.159,12.467,8.862l6.609-10.364h3.755v92.827c0,4.206,0.124,7.51,0.375,9.914
			c0.249,2.403,0.901,4.255,1.953,5.558c1.052,1.3,2.603,2.152,4.656,2.553c2.051,0.399,4.882,0.65,8.487,0.751v5.257h-45.813
			v-5.257c3.204-0.101,5.832-0.427,7.886-0.976c2.051-0.552,3.68-1.502,4.882-2.854c1.202-1.352,2.051-3.154,2.553-5.407
			c0.5-2.253,0.751-5.083,0.751-8.487V-7126.13z M-2409.054-7163.381c0-3.704-0.552-7.135-1.652-10.289
			c-1.103-3.154-2.655-5.858-4.656-8.111c-2.004-2.253-4.356-4.03-7.06-5.333c-2.704-1.3-5.609-1.953-8.712-1.953
			c-3.605,0-6.834,0.803-9.688,2.403c-2.854,1.603-5.309,3.882-7.36,6.834c-2.054,2.955-3.631,6.534-4.731,10.74
			c-1.103,4.206-1.652,8.862-1.652,13.969c0,5.208,0.549,9.914,1.652,14.12c1.101,4.206,2.678,7.787,4.731,10.74
			c2.051,2.955,4.53,5.233,7.435,6.834c2.903,1.603,6.158,2.403,9.763,2.403c4.105,0,7.811-0.95,11.115-2.854
			c3.304-1.901,5.806-4.605,7.51-8.111c2.201-4.405,3.305-10.463,3.305-18.175V-7163.381z"/>
	</g>
</g>
<g id="diacritic">
</g>
<g id="Ear">
</g>
<g id="Eye">
</g>
<g id="Finial">
</g>
<g id="Foot">
</g>
<g id="Hairline_Stroke">
</g>
<g id="Head_Serif">
</g>
<g id="Joint">
</g>
<g id="Leg">
</g>
<g id="Ligature">
</g>
<g id="Link_x2F_Neck">
</g>
<g id="Loop">
</g>
<g id="Overhang">
</g>
<g id="Serif">
</g>
<g id="Shoulder">
</g>
<g id="Spine">
</g>
<g id="Spur">
</g>
<g id="Stem">
</g>
<g id="Stress">
</g>
<g id="Tail">
</g>
<g id="Tittle">
</g>
<g id="Terminal">
</g>
<g id="Vertex">
</g>
</svg>
