<?xml version="1.0" encoding="utf-8"?>
<!-- Generator: Adobe Illustrator 17.1.0, SVG Export Plug-In . SVG Version: 6.00 Build 0)  -->
<!DOCTYPE svg PUBLIC "-//W3C//DTD SVG 1.1//EN" "http://www.w3.org/Graphics/SVG/1.1/DTD/svg11.dtd">
<svg version="1.1" xmlns="http://www.w3.org/2000/svg" xmlns:xlink="http://www.w3.org/1999/xlink" x="0px" y="0px"
	 viewBox="-1446.33 -7256.554 195.305 195.305" enable-background="new -1446.33 -7256.554 195.305 195.305" xml:space="preserve">
<g id="Aperature">
</g>
<g id="Apex">
</g>
<g id="Arc">
</g>
<g id="Arm">
</g>
<g id="Ascender">
</g>
<g id="Ascender_Line">
</g>
<g id="Ascender_height">
</g>
<g id="Ascent_Line">
</g>
<g id="Axis">
</g>
<g id="Base_Line">
</g>
<g id="Beak">
</g>
<g id="Bilateral_Serif">
</g>
<g id="Body_Width">
</g>
<g id="Bowl">
</g>
<g id="Bracket">
</g>
<g id="Cap_Height">
</g>
<g id="Charachter_Width">
</g>
<g id="Counter_x28_open_x29_">
</g>
<g id="Counter_x28_closed_x29_">
</g>
<g id="Cross_Stroke_1_">
</g>
<g id="Crotch">
</g>
<g id="Descender">
</g>
<g id="Decent_Line">
</g>
<g id="diacritic">
</g>
<g id="Ear">
</g>
<g id="Eye">
</g>
<g id="Finial">
</g>
<g id="Foot">
	<path fill="#00CCFF" d="M-1377.142-7139.691v1.544c0,3.506-0.202,6.36-0.601,8.562c-0.401,2.204-1.202,3.905-2.403,5.107
		c-1.202,1.202-2.88,2.054-5.032,2.554c-2.155,0.502-4.983,0.802-8.487,0.901v5.708h53.173v-5.708
		c-4.506-0.099-8.137-0.399-10.89-0.901c-2.755-0.5-4.882-1.375-6.384-2.629c-1.502-1.251-2.478-3.053-2.929-5.407
		c-0.451-2.352-0.676-5.431-0.676-9.238v-0.493H-1377.142z"/>
	<path fill="#282828" d="M-1305.344-7230.974h-86.819v5.708c3.203,0.202,5.806,0.526,7.811,0.977
		c2.002,0.451,3.53,1.302,4.581,2.553c1.052,1.253,1.751,2.955,2.103,5.107c0.35,2.155,0.526,4.983,0.526,8.487v68.452h15.772
		v-30.149c5.107,0,9.362,0.3,12.768,0.901c3.403,0.601,6.182,1.603,8.337,3.004c2.152,1.404,3.779,3.356,4.882,5.858
		c1.101,2.504,1.901,5.658,2.403,9.463h5.257v-44.01h-5.257c-0.3,3.807-1.051,6.909-2.253,9.313
		c-1.202,2.403-2.929,4.306-5.182,5.708c-2.253,1.403-5.107,2.38-8.562,2.929c-3.455,0.551-7.585,0.826-12.392,0.826v-45.362
		c0-1.702,0.85-2.554,2.554-2.554h19.076c5.407,0,9.914,0.326,13.518,0.977c3.605,0.652,6.583,1.779,8.937,3.379
		c2.352,1.603,4.18,3.781,5.483,6.534c1.3,2.755,2.253,6.285,2.854,10.589h5.257L-1305.344-7230.974z"/>
</g>
<g id="Hairline_Stroke">
</g>
<g id="Head_Serif">
</g>
<g id="Joint">
</g>
<g id="Leg">
</g>
<g id="Ligature">
</g>
<g id="Link_x2F_Neck">
</g>
<g id="Loop">
</g>
<g id="Overhang">
</g>
<g id="Serif">
</g>
<g id="Shoulder">
</g>
<g id="Spine">
</g>
<g id="Spur">
</g>
<g id="Stem">
</g>
<g id="Stress">
</g>
<g id="Tail">
</g>
<g id="Tittle">
</g>
<g id="Terminal">
</g>
<g id="Vertex">
</g>
</svg>
