<?xml version="1.0" encoding="utf-8"?>
<!-- Generator: Adobe Illustrator 17.1.0, SVG Export Plug-In . SVG Version: 6.00 Build 0)  -->
<!DOCTYPE svg PUBLIC "-//W3C//DTD SVG 1.1//EN" "http://www.w3.org/Graphics/SVG/1.1/DTD/svg11.dtd">
<svg version="1.1" xmlns="http://www.w3.org/2000/svg" xmlns:xlink="http://www.w3.org/1999/xlink" x="0px" y="0px"
	 viewBox="-3168.767 -7256.554 195.305 195.305" enable-background="new -3168.767 -7256.554 195.305 195.305" xml:space="preserve"
	>
<g id="Aperature">
</g>
<g id="Apex">
</g>
<g id="Arc">
</g>
<g id="Arm">
</g>
<g id="Ascender">
</g>
<g id="Ascender_Line">
</g>
<g id="Ascender_height">
</g>
<g id="Ascent_Line">
</g>
<g id="Axis">
</g>
<g id="Base_Line">
</g>
<g id="Beak">
</g>
<g id="Bilateral_Serif">
</g>
<g id="Body_Width">
</g>
<g id="Bowl">
</g>
<g id="Bracket">
</g>
<g id="Cap_Height">
</g>
<g id="Charachter_Width">
</g>
<g id="Counter_x28_open_x29_">
</g>
<g id="Counter_x28_closed_x29_">
</g>
<g id="Cross_Stroke_1_">
	<g>
		<path fill="#282828" d="M-3056.32-7157.223h-40.105c-1.704,4.107-3.155,7.735-4.356,10.89s-2.178,5.884-2.929,8.187
			c-0.751,2.304-1.277,4.257-1.577,5.858c-0.3,1.603-0.451,2.905-0.451,3.905c0,2.805,0.901,4.731,2.704,5.783
			c1.802,1.052,4.807,1.577,9.012,1.577v5.708h-36.5v-5.708c2.302-0.3,4.281-0.699,5.933-1.202c1.652-0.5,3.103-1.202,4.356-2.103
			c1.251-0.901,2.352-2.077,3.305-3.53c0.95-1.45,1.877-3.229,2.779-5.332l39.053-97.784h6.459l34.097,84.716
			c2.302,5.609,4.304,10.089,6.008,13.443c1.701,3.356,3.354,5.884,4.957,7.585c1.6,1.704,3.328,2.805,5.182,3.305
			c1.852,0.502,4.079,0.751,6.684,0.751v5.858h-48.967v-5.858c5.307,0,8.961-0.5,10.965-1.502c2.002-1,3.004-2.652,3.004-4.957
			c0-1-0.052-1.927-0.15-2.779c-0.101-0.85-0.277-1.776-0.526-2.779c-0.251-1-0.601-2.126-1.052-3.379
			c-0.45-1.251-1.028-2.728-1.727-4.431L-3056.32-7157.223z M-3093.42-7164.733h34.247l-16.673-44.311L-3093.42-7164.733z"/>
	</g>
	<polygon fill="#00CCFF" points="-3059.181,-7164.733 -3093.404,-7164.733 -3096.402,-7157.223 -3056.33,-7157.223 	"/>
</g>
<g id="Crotch">
</g>
<g id="Descender">
</g>
<g id="Decent_Line">
</g>
<g id="diacritic">
</g>
<g id="Ear">
</g>
<g id="Eye">
</g>
<g id="Finial">
</g>
<g id="Foot">
</g>
<g id="Hairline_Stroke">
</g>
<g id="Head_Serif">
</g>
<g id="Joint">
</g>
<g id="Leg">
</g>
<g id="Ligature">
</g>
<g id="Link_x2F_Neck">
</g>
<g id="Loop">
</g>
<g id="Overhang">
</g>
<g id="Serif">
</g>
<g id="Shoulder">
</g>
<g id="Spine">
</g>
<g id="Spur">
</g>
<g id="Stem">
</g>
<g id="Stress">
</g>
<g id="Tail">
</g>
<g id="Tittle">
</g>
<g id="Terminal">
</g>
<g id="Vertex">
</g>
</svg>
