<?xml version="1.0" encoding="utf-8"?>
<!-- Generator: Adobe Illustrator 17.1.0, SVG Export Plug-In . SVG Version: 6.00 Build 0)  -->
<!DOCTYPE svg PUBLIC "-//W3C//DTD SVG 1.1//EN" "http://www.w3.org/Graphics/SVG/1.1/DTD/svg11.dtd">
<svg version="1.1" xmlns="http://www.w3.org/2000/svg" xmlns:xlink="http://www.w3.org/1999/xlink" x="0px" y="0px"
	 viewBox="-3384.072 -7256.554 195.305 195.305" enable-background="new -3384.072 -7256.554 195.305 195.305" xml:space="preserve"
	>
<g id="Aperature">
</g>
<g id="Apex">
</g>
<g id="Arc">
</g>
<g id="Arm">
</g>
<g id="Ascender">
</g>
<g id="Ascender_Line">
</g>
<g id="Ascender_height">
</g>
<g id="Ascent_Line">
</g>
<g id="Axis">
</g>
<g id="Base_Line">
</g>
<g id="Beak">
</g>
<g id="Bilateral_Serif">
</g>
<g id="Body_Width">
</g>
<g id="Bowl">
</g>
<g id="Bracket">
</g>
<g id="Cap_Height">
</g>
<g id="Charachter_Width">
</g>
<g id="Counter_x28_open_x29_">
</g>
<g id="Counter_x28_closed_x29_">
	<g>
		<path fill="#282828" d="M-3303.768-7184.26h0.601c3.204-4.206,6.733-7.285,10.59-9.238c3.854-1.953,8.336-2.929,13.443-2.929
			c5.407,0,10.439,1.051,15.095,3.154c4.657,2.103,8.712,5.008,12.167,8.712c3.455,3.706,6.158,8.087,8.111,13.143
			c1.953,5.058,2.929,10.491,2.929,16.297c0,5.91-1.002,11.392-3.004,16.448c-2.004,5.058-4.732,9.439-8.186,13.143
			c-3.455,3.706-7.536,6.609-12.242,8.712c-4.708,2.103-9.815,3.154-15.321,3.154c-5.708,0-11.04-1.052-15.997-3.154
			c-4.957-2.103-9.038-4.957-12.241-8.562l-7.06,10.064h-3.305v-90.724c0-10.113-0.652-16.572-1.953-19.376
			c-0.3-0.7-0.652-1.277-1.051-1.728c-0.401-0.451-1.002-0.85-1.802-1.202c-0.803-0.35-1.904-0.676-3.304-0.977
			c-1.404-0.3-3.305-0.601-5.708-0.901v-3.755l28.239-6.008V-7184.26z M-3303.468-7146.708c0,3.807,0.549,7.285,1.652,10.439
			c1.101,3.154,2.628,5.858,4.581,8.111c1.953,2.253,4.304,4.032,7.06,5.333c2.753,1.303,5.731,1.953,8.937,1.953
			c3.504,0,6.684-0.8,9.538-2.403c2.854-1.601,5.306-3.879,7.36-6.834c2.051-2.953,3.654-6.508,4.807-10.665
			c1.15-4.154,1.727-8.787,1.727-13.894s-0.601-9.787-1.802-14.044c-1.201-4.255-2.854-7.909-4.957-10.965
			c-2.103-3.053-4.633-5.431-7.585-7.135c-2.955-1.701-6.185-2.553-9.688-2.553c-4.107,0-7.762,0.976-10.965,2.929
			c-3.206,1.953-5.658,4.682-7.36,8.187c-2.204,4.407-3.305,10.465-3.305,18.175V-7146.708z"/>
	</g>
	<g>
		<path fill="#00CCFF" d="M-3272.15-7186.813c-2.955-1.701-6.185-2.553-9.688-2.553c-4.107,0-7.762,0.976-10.965,2.929
			c-3.206,1.953-5.658,4.682-7.36,8.187c-2.204,4.407-3.305,10.465-3.305,18.175v13.368c0,3.807,0.549,7.285,1.652,10.439
			c1.101,3.154,2.628,5.858,4.581,8.111c1.953,2.253,4.304,4.032,7.06,5.333c2.753,1.303,5.731,1.953,8.937,1.953
			c3.504,0,6.684-0.8,9.538-2.403c2.854-1.601,5.306-3.879,7.36-6.834c2.051-2.953,3.654-6.508,4.807-10.665
			c1.15-4.154,1.727-8.787,1.727-13.894s-0.601-9.787-1.802-14.044c-1.201-4.255-2.854-7.909-4.957-10.965
			C-3266.667-7182.732-3269.197-7185.109-3272.15-7186.813z"/>
	</g>
</g>
<g id="Cross_Stroke_1_">
</g>
<g id="Crotch">
</g>
<g id="Descender">
</g>
<g id="Decent_Line">
</g>
<g id="diacritic">
</g>
<g id="Ear">
</g>
<g id="Eye">
</g>
<g id="Finial">
</g>
<g id="Foot">
</g>
<g id="Hairline_Stroke">
</g>
<g id="Head_Serif">
</g>
<g id="Joint">
</g>
<g id="Leg">
</g>
<g id="Ligature">
</g>
<g id="Link_x2F_Neck">
</g>
<g id="Loop">
</g>
<g id="Overhang">
</g>
<g id="Serif">
</g>
<g id="Shoulder">
</g>
<g id="Spine">
</g>
<g id="Spur">
</g>
<g id="Stem">
</g>
<g id="Stress">
</g>
<g id="Tail">
</g>
<g id="Tittle">
</g>
<g id="Terminal">
</g>
<g id="Vertex">
</g>
</svg>
