<svg xmlns="http://www.w3.org/2000/svg" viewBox="0 0 195.3 195.3"><defs><style>.a{fill:#282828;}.b{fill:#0cf;}</style></defs><path class="a" d="M135.77,141.24h-97v-5.71a44.6,44.6,0,0,0,8.49-.9,10.21,10.21,0,0,0,5-2.55,9.45,9.45,0,0,0,2.4-5.11,49.58,49.58,0,0,0,.6-8.56v-70a55.25,55.25,0,0,0-.52-8.49,10.47,10.47,0,0,0-2.11-5.1,8.09,8.09,0,0,0-4.58-2.56,51.57,51.57,0,0,0-7.81-1V25.58H85.9v5.71a36.86,36.86,0,0,0-7.73.9,8.21,8.21,0,0,0-4.51,2.7,11.22,11.22,0,0,0-2.1,5.41A63.5,63.5,0,0,0,71,49.46V114.2a34.41,34.41,0,0,0,1.28,10.29,11.6,11.6,0,0,0,4.36,6.16,19.44,19.44,0,0,0,8.18,3,83.36,83.36,0,0,0,12.92.83,88.62,88.62,0,0,0,14.42-1,26.86,26.86,0,0,0,9.84-3.45,17.67,17.67,0,0,0,6.31-6.91,49.45,49.45,0,0,0,4-11.49H138Z"/><polygon class="b" points="153.96 105.83 153.96 105.43 153.96 104.78 153.96 101.55 153.96 33.3 159.01 33.3 151.29 25.58 143.57 33.3 148.62 33.3 148.62 101.55 148.62 104.78 148.62 105.43 148.62 105.83 148.62 133.51 143.57 133.51 151.29 141.24 159.01 133.51 153.96 133.51 153.96 105.83"/></svg>