<?xml version="1.0" encoding="utf-8"?>
<!-- Generator: Adobe Illustrator 17.1.0, SVG Export Plug-In . SVG Version: 6.00 Build 0)  -->
<!DOCTYPE svg PUBLIC "-//W3C//DTD SVG 1.1//EN" "http://www.w3.org/Graphics/SVG/1.1/DTD/svg11.dtd">
<svg version="1.1" xmlns="http://www.w3.org/2000/svg" xmlns:xlink="http://www.w3.org/1999/xlink" x="0px" y="0px"
	 viewBox="-369.807 -7256.554 195.305 195.305" enable-background="new -369.807 -7256.554 195.305 195.305" xml:space="preserve">
<g id="Aperature">
</g>
<g id="Apex">
</g>
<g id="Arc">
</g>
<g id="Arm">
</g>
<g id="Ascender">
</g>
<g id="Ascender_Line">
</g>
<g id="Ascender_height">
</g>
<g id="Ascent_Line">
</g>
<g id="Axis">
</g>
<g id="Base_Line">
</g>
<g id="Beak">
</g>
<g id="Bilateral_Serif">
</g>
<g id="Body_Width">
</g>
<g id="Bowl">
</g>
<g id="Bracket">
</g>
<g id="Cap_Height">
</g>
<g id="Charachter_Width">
</g>
<g id="Counter_x28_open_x29_">
</g>
<g id="Counter_x28_closed_x29_">
</g>
<g id="Cross_Stroke_1_">
</g>
<g id="Crotch">
</g>
<g id="Descender">
</g>
<g id="Decent_Line">
</g>
<g id="diacritic">
</g>
<g id="Ear">
</g>
<g id="Eye">
</g>
<g id="Finial">
</g>
<g id="Foot">
</g>
<g id="Hairline_Stroke">
</g>
<g id="Head_Serif">
</g>
<g id="Joint">
</g>
<g id="Leg">
</g>
<g id="Ligature">
	<g>
		<path fill="#282828" d="M-276.136-7174.961v36.664c0,3.706-0.15,6.71-0.451,9.012c-0.3,2.305-0.878,4.107-1.727,5.408
			c-0.852,1.302-2.028,2.178-3.53,2.628c-1.502,0.451-3.406,0.676-5.708,0.676v5.257h39.654v-5.257
			c-2.704,0-4.983-0.249-6.834-0.751c-1.854-0.5-3.305-1.401-4.356-2.704c-1.051-1.3-1.802-3.004-2.253-5.107
			c-0.451-2.103-0.676-4.807-0.676-8.111v-37.715H-276.136z"/>
		<path fill="#282828" d="M-229.039-7174.961c0.078,0.979,0.15,2.083,0.218,3.318c0.2,3.706,0.3,8.463,0.3,14.27v18.926
			c0,3.506-0.15,6.41-0.451,8.712c-0.3,2.305-0.927,4.107-1.878,5.408c-0.953,1.302-2.279,2.204-3.981,2.704
			c-1.704,0.502-3.905,0.751-6.609,0.751v5.558h38.603v-5.558c-2.305,0-4.157-0.249-5.558-0.751c-1.404-0.5-2.504-1.427-3.305-2.779
			c-0.803-1.352-1.352-3.253-1.652-5.708c-0.3-2.453-0.451-5.633-0.451-9.538v-35.312H-229.039z"/>
		<path fill="#282828" d="M-324.502-7174.961v36.664c0,3.807-0.101,6.86-0.3,9.163c-0.202,2.305-0.702,4.107-1.502,5.407
			c-0.802,1.303-1.952,2.155-3.455,2.554c-1.502,0.401-3.556,0.601-6.158,0.601v5.257h39.654v-5.257c-2.905,0-5.257-0.3-7.06-0.901
			c-1.803-0.601-3.229-1.601-4.281-3.004c-1.051-1.401-1.779-3.328-2.178-5.783c-0.401-2.453-0.601-5.532-0.601-9.238v-35.462
			H-324.502z"/>
	</g>
	<path fill="#00CCFF" d="M-262.016-7192.521v-11.716c0-5.806,0.376-10.563,1.127-14.27c0.751-3.704,1.878-6.609,3.38-8.712
		c1.502-2.103,3.403-3.553,5.708-4.356c2.302-0.8,5.006-1.202,8.111-1.202c1.3,0,2.427,0.052,3.379,0.15
		c0.951,0.101,1.901,0.326,2.854,0.676c0.951,0.352,1.976,0.852,3.079,1.502c1.101,0.652,2.403,1.479,3.905,2.479
		c2.302,1.603,4.206,2.755,5.708,3.455c1.502,0.702,2.854,1.051,4.055,1.051c1.901,0,3.478-0.676,4.731-2.027
		c1.251-1.352,1.878-3.028,1.878-5.032c0-2.802-2.229-5.081-6.684-6.834c-4.457-1.751-10.24-2.629-17.349-2.629
		c-7.51,0-13.87,1.253-19.076,3.755c-5.208,2.504-9.414,5.858-12.617,10.063c-2.805-2.603-5.759-4.555-8.862-5.858
		c-3.105-1.3-6.71-1.953-10.815-1.953c-11.216,0-19.853,3.229-25.91,9.688c-6.06,6.458-9.087,15.447-9.087,26.962v4.807h-16.973
		v7.06h16.973v10.5h14.119v-10.5h34.247v10.5h14.119v-10.5h18.776c5.006,0,8.411,0.427,10.214,1.276
		c1.802,0.852,2.952,2.479,3.455,4.882c0.2,0.936,0.377,2.385,0.533,4.342h15.238v-21.465l-24.183,3.905H-262.016z
		 M-276.136-7192.521h-34.247v-5.708c0-5.708,0.35-10.388,1.051-14.044c0.7-3.654,1.702-6.557,3.004-8.712
		c1.3-2.152,2.903-3.654,4.806-4.506c1.901-0.85,4.056-1.277,6.459-1.277c1.901,0,3.654,0.3,5.257,0.901
		c1.601,0.601,3.654,1.953,6.158,4.055c2.302,2.004,4.807,3.957,7.51,5.858V-7192.521z"/>
</g>
<g id="Link_x2F_Neck">
</g>
<g id="Loop">
</g>
<g id="Overhang">
</g>
<g id="Serif">
</g>
<g id="Shoulder">
</g>
<g id="Spine">
</g>
<g id="Spur">
</g>
<g id="Stem">
</g>
<g id="Stress">
</g>
<g id="Tail">
</g>
<g id="Tittle">
</g>
<g id="Terminal">
</g>
<g id="Vertex">
</g>
</svg>
