<svg xmlns="http://www.w3.org/2000/svg" viewBox="0 0 195.3 195.3"><defs><style>.a{fill:#282828;}.b{fill:#0cf;}</style></defs><path class="a" d="M111.6,79.44q3.6-4.5,3.6-7.65,0-4.8-8.85-4.8V61.74H139.2V67a18.29,18.29,0,0,0-4.87.6,15.58,15.58,0,0,0-4.28,2,23,23,0,0,0-4.27,3.67Q123.6,75.54,120.9,79L105.45,98.64l20,26.25q4.65,6.15,8.63,8.62A15.75,15.75,0,0,0,142.5,136v5.25H102.6V136q5.4,0,7.5-.83a3.15,3.15,0,0,0,2.1-3.22,6.69,6.69,0,0,0-1.27-3.08q-1.28-2-4.28-5.92l-10.5-13.5L83.4,125.64a8.46,8.46,0,0,0-2.25,5.4,4.33,4.33,0,0,0,1.8,3.52q1.8,1.42,5.7,1.43v5.25H54.3V136a28.49,28.49,0,0,0,6.15-.6,17.12,17.12,0,0,0,5.18-2.1,26.25,26.25,0,0,0,5.1-4.2q2.63-2.7,5.92-6.75L92,103.59,72,75.24q-3.45-4.8-6.3-6.53A13.71,13.71,0,0,0,58.5,67V61.74H95.4V67a13,13,0,0,0-5.85,1,2.94,2.94,0,0,0-1.8,2.63q0,2.25,2.85,6.3l10.8,15.75Z"/><polygon class="b" points="160.51 95.84 160.51 75.31 160.51 69.46 165.57 69.46 157.84 61.74 150.12 69.46 155.17 69.46 155.17 75.31 155.17 95.84 155.17 133.51 150.12 133.51 157.84 141.24 165.57 133.51 160.51 133.51 160.51 95.84"/></svg>