<?xml version="1.0" encoding="utf-8"?>
<!-- Generator: Adobe Illustrator 17.1.0, SVG Export Plug-In . SVG Version: 6.00 Build 0)  -->
<!DOCTYPE svg PUBLIC "-//W3C//DTD SVG 1.1//EN" "http://www.w3.org/Graphics/SVG/1.1/DTD/svg11.dtd">
<svg version="1.1" xmlns="http://www.w3.org/2000/svg" xmlns:xlink="http://www.w3.org/1999/xlink" x="0px" y="0px"
	 viewBox="-5752.422 -7256.554 195.305 195.305" enable-background="new -5752.422 -7256.554 195.305 195.305" xml:space="preserve"
	>
<g id="Aperature">
</g>
<g id="Apex">
</g>
<g id="Arc">
</g>
<g id="Arm">
</g>
<g id="Ascender">
</g>
<g id="Ascender_Line">
</g>
<g id="Ascender_height">
</g>
<g id="Ascent_Line">
	<g>
		<path fill="#282828" d="M-5675.123-7139.198c0,4.107,0.099,7.36,0.301,9.763c0.199,2.403,0.725,4.232,1.577,5.483
			c0.85,1.253,2.077,2.079,3.68,2.478c1.601,0.401,3.854,0.702,6.759,0.901v5.257h-39.955v-5.257c2.903-0.199,5.206-0.5,6.91-0.901
			c1.701-0.399,3.004-1.201,3.905-2.403c0.901-1.202,1.476-2.929,1.727-5.182c0.249-2.253,0.375-5.281,0.375-9.087v-62.937
			c0-5.907-0.075-10.613-0.225-14.119c-0.15-3.504-0.427-6.158-0.826-7.961c-0.202-1.202-0.526-2.178-0.976-2.929
			c-0.451-0.75-1.127-1.352-2.028-1.802c-0.901-0.451-2.103-0.774-3.605-0.977c-1.502-0.199-3.356-0.3-5.558-0.3v-5.107
			l27.638-5.708v57.229h0.601c1.502-2.002,3.379-3.83,5.632-5.482c2.253-1.652,4.68-3.08,7.285-4.281
			c2.603-1.202,5.332-2.152,8.187-2.854c2.854-0.699,5.632-1.051,8.336-1.051c4.605,0,8.836,0.802,12.692,2.403
			c3.854,1.603,6.834,3.755,8.938,6.459c1.701,2.304,2.952,5.332,3.755,9.087c0.8,3.755,1.202,8.839,1.202,15.246v24.033
			c0,4.107,0.099,7.337,0.301,9.688c0.199,2.354,0.725,4.182,1.577,5.482c0.85,1.302,2.077,2.154,3.68,2.553
			c1.601,0.401,3.854,0.702,6.759,0.901v5.257h-39.805v-5.257c2.802-0.099,5.056-0.375,6.76-0.826
			c1.701-0.45,2.978-1.276,3.83-2.478c0.85-1.202,1.401-2.929,1.652-5.182c0.249-2.253,0.375-5.281,0.375-9.087v-18.926
			c0-11.213-1.303-19.2-3.905-23.958c-2.605-4.755-6.961-7.135-13.068-7.135c-4.708,0-8.989,1.202-12.842,3.605
			c-3.856,2.403-6.886,5.708-9.087,9.914c-0.502,1.103-0.927,2.128-1.277,3.079c-0.352,0.953-0.626,2.028-0.826,3.229
			c-0.202,1.202-0.326,2.579-0.375,4.13c-0.052,1.554-0.075,3.481-0.075,5.783V-7139.198z"/>
	</g>
	<polygon fill="#00CCFF" points="-5614.202,-7240.156 -5621.925,-7232.433 -5616.874,-7232.433 -5616.874,-7221.932 
		-5611.531,-7221.932 -5611.531,-7232.433 -5606.479,-7232.433 	"/>
</g>
<g id="Axis">
</g>
<g id="Base_Line">
</g>
<g id="Beak">
</g>
<g id="Bilateral_Serif">
</g>
<g id="Body_Width">
</g>
<g id="Bowl">
</g>
<g id="Bracket">
</g>
<g id="Cap_Height">
</g>
<g id="Charachter_Width">
</g>
<g id="Counter_x28_open_x29_">
</g>
<g id="Counter_x28_closed_x29_">
</g>
<g id="Cross_Stroke_1_">
</g>
<g id="Crotch">
</g>
<g id="Descender">
</g>
<g id="Decent_Line">
</g>
<g id="diacritic">
</g>
<g id="Ear">
</g>
<g id="Eye">
</g>
<g id="Finial">
</g>
<g id="Foot">
</g>
<g id="Hairline_Stroke">
</g>
<g id="Head_Serif">
</g>
<g id="Joint">
</g>
<g id="Leg">
</g>
<g id="Ligature">
</g>
<g id="Link_x2F_Neck">
</g>
<g id="Loop">
</g>
<g id="Overhang">
</g>
<g id="Serif">
</g>
<g id="Shoulder">
</g>
<g id="Spine">
</g>
<g id="Spur">
</g>
<g id="Stem">
</g>
<g id="Stress">
</g>
<g id="Tail">
</g>
<g id="Tittle">
</g>
<g id="Terminal">
</g>
<g id="Vertex">
</g>
</svg>
