<?xml version="1.0" encoding="utf-8"?>
<!-- Generator: Adobe Illustrator 17.1.0, SVG Export Plug-In . SVG Version: 6.00 Build 0)  -->
<!DOCTYPE svg PUBLIC "-//W3C//DTD SVG 1.1//EN" "http://www.w3.org/Graphics/SVG/1.1/DTD/svg11.dtd">
<svg version="1.1" xmlns="http://www.w3.org/2000/svg" xmlns:xlink="http://www.w3.org/1999/xlink" x="0px" y="0px"
	 viewBox="-4891.204 -7256.554 195.305 195.305" enable-background="new -4891.204 -7256.554 195.305 195.305" xml:space="preserve"
	>
<g id="Aperature">
</g>
<g id="Apex">
</g>
<g id="Arc">
</g>
<g id="Arm">
</g>
<g id="Ascender">
</g>
<g id="Ascender_Line">
</g>
<g id="Ascender_height">
</g>
<g id="Ascent_Line">
</g>
<g id="Axis">
</g>
<g id="Base_Line">
</g>
<g id="Beak">
</g>
<g id="Bilateral_Serif">
	<path fill="#00CCFF" d="M-4783.263-7124.253c-1.002-1.352-1.678-3.204-2.028-5.558c-0.352-2.352-0.526-5.482-0.526-9.388v23.883
		h13.969v-5.257c-3.004-0.099-5.407-0.399-7.21-0.901C-4780.859-7121.974-4782.263-7122.901-4783.263-7124.253z"/>
	<path fill="#00CCFF" d="M-4800.536-7138.146c0,3.506-0.176,6.384-0.526,8.637c-0.352,2.253-1.052,4.006-2.103,5.257
		c-1.052,1.253-2.53,2.155-4.431,2.704c-1.903,0.551-4.356,0.877-7.36,0.976v5.257h14.42V-7138.146z"/>
	<g>
		<path fill="#282828" d="M-4793.777-7217.605c2.603,0,4.807-0.901,6.609-2.704s2.704-4.004,2.704-6.609
			c0-2.603-0.901-4.807-2.704-6.609c-1.802-1.802-4.006-2.704-6.609-2.704c-2.605,0-4.807,0.901-6.609,2.704
			c-1.802,1.803-2.704,4.006-2.704,6.609c0,2.605,0.901,4.806,2.704,6.609S-4796.382-7217.605-4793.777-7217.605z"/>
		<path fill="#282828" d="M-4815.257-7185.461c5.006,0,8.412,0.427,10.214,1.277c1.802,0.852,2.953,2.429,3.455,4.731
			c0.399,1.403,0.676,3.98,0.826,7.735c0.15,3.755,0.226,8.539,0.226,14.345v19.227c0,0.005,0,0.01,0,0.015v22.816h14.72v-23.883
			v-3.227v-54.001l-29.44,5.708V-7185.461z"/>
	</g>
</g>
<g id="Body_Width">
</g>
<g id="Bowl">
</g>
<g id="Bracket">
</g>
<g id="Cap_Height">
</g>
<g id="Charachter_Width">
</g>
<g id="Counter_x28_open_x29_">
</g>
<g id="Counter_x28_closed_x29_">
</g>
<g id="Cross_Stroke_1_">
</g>
<g id="Crotch">
</g>
<g id="Descender">
</g>
<g id="Decent_Line">
</g>
<g id="diacritic">
</g>
<g id="Ear">
</g>
<g id="Eye">
</g>
<g id="Finial">
</g>
<g id="Foot">
</g>
<g id="Hairline_Stroke">
</g>
<g id="Head_Serif">
</g>
<g id="Joint">
</g>
<g id="Leg">
</g>
<g id="Ligature">
</g>
<g id="Link_x2F_Neck">
</g>
<g id="Loop">
</g>
<g id="Overhang">
</g>
<g id="Serif">
</g>
<g id="Shoulder">
</g>
<g id="Spine">
</g>
<g id="Spur">
</g>
<g id="Stem">
</g>
<g id="Stress">
</g>
<g id="Tail">
</g>
<g id="Tittle">
</g>
<g id="Terminal">
</g>
<g id="Vertex">
</g>
</svg>
