<?xml version="1.0" encoding="utf-8"?>
<!-- Generator: Adobe Illustrator 16.0.0, SVG Export Plug-In . SVG Version: 6.00 Build 0)  -->
<!DOCTYPE svg PUBLIC "-//W3C//DTD SVG 1.1//EN" "http://www.w3.org/Graphics/SVG/1.1/DTD/svg11.dtd">
<svg version="1.1" xmlns="http://www.w3.org/2000/svg" xmlns:xlink="http://www.w3.org/1999/xlink" x="0px" y="0px" width="1000px"
	 height="1000px" viewBox="0 0 1000 1000" enable-background="new 0 0 1000 1000" xml:space="preserve">
<g id="design">
	<rect fill="#F4F4F4" width="1000" height="1000"/>
	<g>
		<g>
			
				<line fill="none" stroke="#FF6950" stroke-width="10" stroke-miterlimit="10" x1="-272.871" y1="915.354" x2="-267.871" y2="915.354"/>
			
				<line fill="none" stroke="#FF6950" stroke-width="10" stroke-miterlimit="10" stroke-dasharray="10.0382,10.0382" x1="-257.833" y1="915.354" x2="1283.031" y2="915.354"/>
			
				<line fill="none" stroke="#FF6950" stroke-width="10" stroke-miterlimit="10" x1="1288.051" y1="915.354" x2="1293.051" y2="915.354"/>
		</g>
	</g>
	<g>
		<g>
			
				<line fill="none" stroke="#FF6950" stroke-width="10" stroke-miterlimit="10" x1="-272.871" y1="722.895" x2="-267.871" y2="722.895"/>
			
				<line fill="none" stroke="#FF6950" stroke-width="10" stroke-miterlimit="10" stroke-dasharray="10.0382,10.0382" x1="-257.833" y1="722.895" x2="1283.031" y2="722.895"/>
			
				<line fill="none" stroke="#FF6950" stroke-width="10" stroke-miterlimit="10" x1="1288.051" y1="722.895" x2="1293.051" y2="722.895"/>
		</g>
	</g>
	<g>
		<g>
			
				<line fill="none" stroke="#FF6950" stroke-width="10" stroke-miterlimit="10" x1="-272.871" y1="315.395" x2="-267.871" y2="315.395"/>
			
				<line fill="none" stroke="#FF6950" stroke-width="10" stroke-miterlimit="10" stroke-dasharray="10.0382,10.0382" x1="-257.833" y1="315.395" x2="1283.031" y2="315.395"/>
			
				<line fill="none" stroke="#FF6950" stroke-width="10" stroke-miterlimit="10" x1="1288.051" y1="315.395" x2="1293.051" y2="315.395"/>
		</g>
	</g>
	<g>
		<g>
			
				<line fill="none" stroke="#FF6950" stroke-width="10" stroke-miterlimit="10" x1="-272.871" y1="130.812" x2="-267.871" y2="130.812"/>
			
				<line fill="none" stroke="#FF6950" stroke-width="10" stroke-miterlimit="10" stroke-dasharray="10.0382,10.0382" x1="-257.833" y1="130.812" x2="1283.031" y2="130.812"/>
			
				<line fill="none" stroke="#FF6950" stroke-width="10" stroke-miterlimit="10" x1="1288.051" y1="130.812" x2="1293.051" y2="130.812"/>
		</g>
	</g>
	<g>
		<g>
			
				<line fill="none" stroke="#FF6950" stroke-width="10" stroke-miterlimit="10" x1="-272.871" y1="84.875" x2="-267.871" y2="84.875"/>
			
				<line fill="none" stroke="#FF6950" stroke-width="10" stroke-miterlimit="10" stroke-dasharray="10.0382,10.0382" x1="-257.833" y1="84.875" x2="1283.031" y2="84.875"/>
			
				<line fill="none" stroke="#FF6950" stroke-width="10" stroke-miterlimit="10" x1="1288.051" y1="84.875" x2="1293.051" y2="84.875"/>
		</g>
	</g>
</g>
<g id="Aperature">
	<g>
		<path fill="#282828" d="M395.801,600.874c0,21.027,0.504,37.682,1.538,49.984c1.021,12.304,3.712,21.665,8.074,28.069
			c4.35,6.417,10.634,10.646,18.84,12.688c8.195,2.055,19.73,3.593,34.605,4.614v26.915H254.305v-26.915
			c14.863-1.021,26.65-2.56,35.374-4.614c8.711-2.041,15.38-6.15,19.994-12.304c4.614-6.151,7.558-14.995,8.843-26.529
			c1.273-11.536,1.922-27.036,1.922-46.524V284.046c0-30.243-0.384-54.334-1.153-72.286c-0.769-17.939-2.187-31.529-4.229-40.757
			c-1.033-6.152-2.691-11.15-4.999-14.996c-2.307-3.845-5.768-6.921-10.381-9.228c-4.614-2.307-10.766-3.965-18.456-4.999
			c-7.69-1.021-17.183-1.538-28.453-1.538v-26.146l141.496-29.222v292.989h3.076c7.69-10.249,17.302-19.609,28.837-28.068
			c11.535-8.459,23.959-15.765,37.296-21.916c13.325-6.152,27.299-11.019,41.911-14.611c14.61-3.581,28.837-5.383,42.679-5.383
			c23.575,0,45.239,4.109,64.98,12.304c19.729,8.207,34.989,19.225,45.756,33.067c8.711,11.799,15.115,27.299,19.225,46.524
			c4.098,19.225,6.152,45.251,6.152,78.054v123.04c0,21.027,0.505,37.562,1.538,49.6c1.021,12.053,3.713,21.413,8.074,28.07
			c4.35,6.668,10.634,11.03,18.841,13.071c8.194,2.055,19.729,3.593,34.604,4.614v26.915H543.448v-26.915
			c14.347-0.505,25.882-1.922,34.605-4.229c8.711-2.306,15.248-6.535,19.609-12.688c4.35-6.151,7.174-14.995,8.459-26.529
			c1.273-11.536,1.923-27.036,1.923-46.524v-96.895c0-57.411-6.669-98.3-19.994-122.656c-13.338-24.344-35.639-36.527-66.903-36.527
			c-24.103,0-46.02,6.152-65.75,18.456c-19.742,12.304-35.253,29.222-46.524,50.754c-2.571,5.647-4.746,10.898-6.537,15.765
			c-1.802,4.878-3.208,10.381-4.229,16.533c-1.033,6.152-1.67,13.205-1.922,21.147c-0.264,7.954-0.384,17.819-0.384,29.606V600.874z
			"/>
	</g>
	<path fill="#00CCFF" d="M578.054,692c8.711-2.306,15.248-6.535,19.609-12.688c4.35-6.151,7.174-14.995,8.459-26.529
		c1.273-11.536,1.923-27.036,1.923-46.524v-96.895c0-57.411-6.669-98.3-19.994-122.656c-13.338-24.344-35.639-36.527-66.903-36.527
		c-24.103,0-46.02,6.152-65.75,18.456c-19.742,12.304-35.253,29.222-46.524,50.754c-2.571,5.647-4.746,10.898-6.537,15.765
		c-1.802,4.878-3.208,10.381-4.229,16.533c-1.033,6.152-1.67,13.205-1.922,21.147c-0.264,7.954-0.384,17.819-0.384,29.606v98.433
		c0,21.027,0.504,37.682,1.538,49.984c1.021,12.304,3.712,21.665,8.074,28.069c4.35,6.417,10.634,10.646,18.84,12.688
		c8.195,2.055,19.73,3.593,34.605,4.614v26.915h84.59v-26.915C557.795,695.725,569.33,694.308,578.054,692z"/>
</g>
</svg>
