<?xml version="1.0" encoding="UTF-8"?>
<svg id="Body_Width" xmlns="http://www.w3.org/2000/svg" viewBox="0 0 195.3 195.3">
  <defs>
    <style>
      .cls-1 {
        fill: #0cf;
      }

      .cls-2 {
        fill: #282828;
      }
    </style>
  </defs>
  <path class="cls-2" d="M114.25,130.42h-.6c-3.51,4.41-7.13,7.56-10.89,9.46-3.76,1.9-8.29,2.85-13.59,2.85-5.61,0-10.72-.98-15.32-2.93-4.61-1.95-8.59-4.71-11.94-8.26-3.36-3.55-5.96-7.81-7.81-12.77-1.85-4.96-2.78-10.39-2.78-16.3s1-11.44,3-16.6c2-5.16,4.76-9.64,8.26-13.44,3.5-3.8,7.61-6.81,12.32-9.01,4.71-2.2,9.76-3.3,15.17-3.3s10.61,1.1,15.62,3.3c5.01,2.2,9.16,5.16,12.47,8.86l6.61-10.36h3.76v92.83c0,4.21.12,7.51.38,9.91.25,2.4.9,4.26,1.95,5.56,1.05,1.3,2.6,2.15,4.66,2.55,2.05.4,4.88.65,8.49.75v5.26h-45.81v-5.26c3.2-.1,5.83-.43,7.89-.98,2.05-.55,3.68-1.5,4.88-2.85,1.2-1.35,2.05-3.15,2.55-5.41.5-2.25.75-5.08.75-8.49v-25.38ZM113.8,93.17c0-3.7-.55-7.13-1.65-10.29-1.1-3.15-2.65-5.86-4.66-8.11-2-2.25-4.36-4.03-7.06-5.33-2.7-1.3-5.61-1.95-8.71-1.95-3.61,0-6.83.8-9.69,2.4-2.85,1.6-5.31,3.88-7.36,6.83-2.05,2.95-3.63,6.53-4.73,10.74-1.1,4.21-1.65,8.86-1.65,13.97s.55,9.91,1.65,14.12c1.1,4.21,2.68,7.79,4.73,10.74,2.05,2.95,4.53,5.23,7.44,6.83,2.9,1.6,6.16,2.4,9.76,2.4,4.1,0,7.81-.95,11.12-2.85,3.3-1.9,5.81-4.6,7.51-8.11,2.2-4.41,3.3-10.46,3.3-18.17v-13.22Z"/>
  <polygon class="cls-1" points="126.16 40.9 125.77 40.9 59.04 40.9 59.04 35.84 51.31 43.57 59.04 51.29 59.04 46.24 125.77 46.24 126.16 46.24 136.27 46.24 136.27 51.29 143.99 43.57 136.27 35.84 136.27 40.9 126.16 40.9"/>
</svg>