<?xml version="1.0" encoding="utf-8"?>
<!-- Generator: Adobe Illustrator 17.1.0, SVG Export Plug-In . SVG Version: 6.00 Build 0)  -->
<!DOCTYPE svg PUBLIC "-//W3C//DTD SVG 1.1//EN" "http://www.w3.org/Graphics/SVG/1.1/DTD/svg11.dtd">
<svg version="1.1" xmlns="http://www.w3.org/2000/svg" xmlns:xlink="http://www.w3.org/1999/xlink" x="0px" y="0px"
	 viewBox="-2092.244 -7256.554 195.305 195.305" enable-background="new -2092.244 -7256.554 195.305 195.305" xml:space="preserve"
	>
<g id="Aperature">
</g>
<g id="Apex">
</g>
<g id="Arc">
</g>
<g id="Arm">
</g>
<g id="Ascender">
</g>
<g id="Ascender_Line">
</g>
<g id="Ascender_height">
</g>
<g id="Ascent_Line">
</g>
<g id="Axis">
</g>
<g id="Base_Line">
</g>
<g id="Beak">
</g>
<g id="Bilateral_Serif">
</g>
<g id="Body_Width">
</g>
<g id="Bowl">
</g>
<g id="Bracket">
</g>
<g id="Cap_Height">
</g>
<g id="Charachter_Width">
</g>
<g id="Counter_x28_open_x29_">
</g>
<g id="Counter_x28_closed_x29_">
</g>
<g id="Cross_Stroke_1_">
</g>
<g id="Crotch">
</g>
<g id="Descender">
</g>
<g id="Decent_Line">
</g>
<g id="diacritic">
</g>
<g id="Ear">
	<path fill="#00CCFF" d="M-1954.562-7189.344c-2.103-1.703-4.959-2.551-8.564-2.552c-2.303,0-4.752,0.652-7.355,1.954
		c-2.604,1.202-5.611,3.202-9.016,6.006l3.607,4.658c2.503-1.703,4.952-2.558,7.355-2.558c1.201,0,2.208,0.25,3.009,0.75
		c0.801,0.501,1.551,1.054,2.252,1.654c0.801,0.501,1.65,1.001,2.552,1.501c0.901,0.501,2.053,0.751,3.455,0.751
		c1.702,0,3.104-0.5,4.206-1.501c1.202-1.001,1.801-2.351,1.801-4.053C-1951.26-7185.538-1952.359-7187.742-1954.562-7189.344z"/>
	<path fill="#282828" d="M-1985.051-7122.653c-2.303-0.3-4.461-0.603-6.464-0.903c-1.903-0.3-3.851-0.55-5.854-0.751
		c-1.903-0.2-3.857-0.398-5.86-0.598c-2.003-0.2-4.207-0.404-6.611-0.604c-3.505-0.201-6.157-0.648-7.959-1.349
		c-1.803-0.801-2.704-2.005-2.704-3.607c0-2.103,1.204-3.551,3.607-4.352s6.655-1.453,12.763-1.953
		c10.615-0.801,18.577-3.605,23.885-8.412c5.307-4.906,7.959-11.619,7.959-20.13c0-5.608-1.198-10.261-3.601-13.966l-3.607-4.658
		c-2.804-2.604-6.16-4.558-10.065-5.859c-3.905-1.402-8.058-2.1-12.464-2.1c-4.306,0-8.261,0.698-11.866,2.1
		c-3.605,1.302-6.757,3.157-9.461,5.561c-2.604,2.303-4.657,5.054-6.159,8.259c-1.402,3.204-2.106,6.711-2.106,10.517
		c0,2.604,0.401,5.157,1.202,7.66c0.801,2.403,1.854,4.654,3.156,6.757c1.402,2.103,3.054,4.005,4.956,5.707
		c1.903,1.602,3.956,2.853,6.159,3.754v0.604c-4.406,0.701-8.065,2.399-10.969,5.103s-4.352,5.81-4.352,9.315
		c0,4.206,1.448,7.509,4.352,9.913s7.162,3.91,12.77,4.511c1.302,0.2,3.006,0.398,5.109,0.598s4.354,0.45,6.757,0.751
		c2.503,0.3,5.005,0.603,7.508,0.903c2.604,0.4,5.11,0.75,7.514,1.05c3.705,0.501,6.91,2.054,9.614,4.657
		c2.704,2.704,4.053,6.054,4.053,10.06c0,10.514-8.562,15.772-25.685,15.772c-8.011,0-14.217-1.198-18.623-3.602
		c-4.306-2.403-6.458-5.812-6.458-10.218c0-3.004,0.849-5.703,2.551-8.106c1.702-2.303,3.907-3.757,6.611-4.358
		c-2.704-2.103-5.757-3.156-9.162-3.156c-1.803,0-3.559,0.401-5.262,1.203c-1.602,0.801-3.004,1.854-4.206,3.156
		c-1.202,1.402-2.15,3.001-2.851,4.804c-0.701,1.802-1.05,3.757-1.05,5.86c0,3.104,0.902,5.96,2.704,8.564
		c1.903,2.604,4.502,4.802,7.807,6.604c3.305,1.903,7.26,3.357,11.866,4.358c4.706,1.001,9.866,1.501,15.474,1.501
		c12.617,0,22.232-2.205,28.841-6.61c6.709-4.406,10.059-10.81,10.059-19.221c0-6.709-2.199-12.27-6.604-16.676
		C-1972.083-7118.748-1977.841-7121.551-1985.051-7122.653z M-2012.092-7180.634c2.604-3.805,6.058-5.707,10.365-5.707
		c4.306,0,7.609,1.902,9.913,5.707c2.403,3.705,3.607,8.963,3.607,15.773c0,6.909-1.204,12.266-3.607,16.071
		c-2.303,3.806-5.554,5.708-9.76,5.708c-4.306,0-7.761-2.001-10.365-6.006s-3.906-9.31-3.906-15.919
		C-2015.846-7171.617-2014.595-7176.829-2012.092-7180.634z"/>
</g>
<g id="Eye">
</g>
<g id="Finial">
</g>
<g id="Foot">
</g>
<g id="Hairline_Stroke">
</g>
<g id="Head_Serif">
</g>
<g id="Joint">
</g>
<g id="Leg">
</g>
<g id="Ligature">
</g>
<g id="Link_x2F_Neck">
</g>
<g id="Loop">
</g>
<g id="Overhang">
</g>
<g id="Serif">
</g>
<g id="Shoulder">
</g>
<g id="Spine">
</g>
<g id="Spur">
</g>
<g id="Stem">
</g>
<g id="Stress">
</g>
<g id="Tail">
</g>
<g id="Tittle">
</g>
<g id="Terminal">
</g>
<g id="Vertex">
</g>
</svg>
