<?xml version="1.0" encoding="utf-8"?>
<!-- Generator: Adobe Illustrator 17.1.0, SVG Export Plug-In . SVG Version: 6.00 Build 0)  -->
<!DOCTYPE svg PUBLIC "-//W3C//DTD SVG 1.1//EN" "http://www.w3.org/Graphics/SVG/1.1/DTD/svg11.dtd">
<svg version="1.1" xmlns="http://www.w3.org/2000/svg" xmlns:xlink="http://www.w3.org/1999/xlink" x="0px" y="0px"
	 viewBox="-4245.29 -7256.554 195.305 195.305" enable-background="new -4245.29 -7256.554 195.305 195.305" xml:space="preserve">
<g id="Aperature">
</g>
<g id="Apex">
</g>
<g id="Arc">
</g>
<g id="Arm">
</g>
<g id="Ascender">
</g>
<g id="Ascender_Line">
</g>
<g id="Ascender_height">
</g>
<g id="Ascent_Line">
</g>
<g id="Axis">
</g>
<g id="Base_Line">
</g>
<g id="Beak">
</g>
<g id="Bilateral_Serif">
</g>
<g id="Body_Width">
</g>
<g id="Bowl">
</g>
<g id="Bracket">
	<g>
		<path fill="#282828" d="M-4101.375-7139.198c0,3.807,0.2,6.886,0.601,9.238c0.399,2.354,1.176,4.156,2.328,5.407
			c1.15,1.253,2.802,2.129,4.957,2.629c2.152,0.502,4.98,0.802,8.487,0.901v5.708h-48.667v-5.708
			c3.504-0.099,6.332-0.399,8.486-0.901c2.152-0.5,3.83-1.352,5.032-2.554c1.202-1.202,2.002-2.903,2.403-5.107
			c0.399-2.201,0.601-5.055,0.601-8.562v-32.595h-60.833v31.543c0,3.807,0.2,6.886,0.601,9.238c0.399,2.354,1.176,4.156,2.328,5.407
			c1.15,1.253,2.802,2.129,4.957,2.629c2.152,0.502,4.98,0.802,8.487,0.901v5.708h-48.667v-5.708
			c3.504-0.099,6.332-0.399,8.486-0.901c2.152-0.5,3.831-1.352,5.032-2.554c1.201-1.202,2.002-2.903,2.403-5.107
			c0.399-2.201,0.601-5.055,0.601-8.562v-69.996c0-3.504-0.176-6.332-0.526-8.487c-0.352-2.152-1.051-3.854-2.103-5.107
			c-1.052-1.25-2.58-2.103-4.582-2.553c-2.004-0.451-4.607-0.774-7.811-0.977v-5.708h45.663v5.708
			c-3.206,0.101-5.783,0.401-7.736,0.901c-1.953,0.502-3.455,1.403-4.506,2.704c-1.051,1.303-1.753,3.105-2.103,5.408
			c-0.352,2.305-0.526,5.358-0.526,9.163v28.839h60.833v-29.891c0-3.504-0.176-6.332-0.526-8.487
			c-0.352-2.152-1.051-3.854-2.103-5.107c-1.052-1.25-2.58-2.103-4.582-2.553c-2.004-0.451-4.607-0.774-7.811-0.977v-5.708h45.662
			v5.708c-3.206,0.101-5.783,0.401-7.736,0.901c-1.953,0.502-3.455,1.403-4.506,2.704c-1.052,1.303-1.753,3.105-2.103,5.408
			c-0.352,2.305-0.526,5.358-0.526,9.163V-7139.198z"/>
	</g>
	<g>
		<circle fill="#00CCFF" cx="-4094.802" cy="-7128.492" r="8.594"/>
	</g>
	<g>
		<circle fill="#00CCFF" cx="-4123.906" cy="-7128.492" r="8.594"/>
	</g>
	<g>
		<circle fill="#00CCFF" cx="-4199.692" cy="-7217.891" r="8.594"/>
	</g>
	<g>
		<circle fill="#00CCFF" cx="-4171.956" cy="-7217.891" r="8.594"/>
	</g>
</g>
<g id="Cap_Height">
</g>
<g id="Charachter_Width">
</g>
<g id="Counter_x28_open_x29_">
</g>
<g id="Counter_x28_closed_x29_">
</g>
<g id="Cross_Stroke_1_">
</g>
<g id="Crotch">
</g>
<g id="Descender">
</g>
<g id="Decent_Line">
</g>
<g id="diacritic">
</g>
<g id="Ear">
</g>
<g id="Eye">
</g>
<g id="Finial">
</g>
<g id="Foot">
</g>
<g id="Hairline_Stroke">
</g>
<g id="Head_Serif">
</g>
<g id="Joint">
</g>
<g id="Leg">
</g>
<g id="Ligature">
</g>
<g id="Link_x2F_Neck">
</g>
<g id="Loop">
</g>
<g id="Overhang">
</g>
<g id="Serif">
</g>
<g id="Shoulder">
</g>
<g id="Spine">
</g>
<g id="Spur">
</g>
<g id="Stem">
</g>
<g id="Stress">
</g>
<g id="Tail">
</g>
<g id="Tittle">
</g>
<g id="Terminal">
</g>
<g id="Vertex">
</g>
</svg>
