<?xml version="1.0" encoding="utf-8"?>
<!-- Generator: Adobe Illustrator 17.1.0, SVG Export Plug-In . SVG Version: 6.00 Build 0)  -->
<!DOCTYPE svg PUBLIC "-//W3C//DTD SVG 1.1//EN" "http://www.w3.org/Graphics/SVG/1.1/DTD/svg11.dtd">
<svg version="1.1" xmlns="http://www.w3.org/2000/svg" xmlns:xlink="http://www.w3.org/1999/xlink" x="0px" y="0px"
	 viewBox="-154.503 -7256.554 195.305 195.305" enable-background="new -154.503 -7256.554 195.305 195.305" xml:space="preserve">
<g id="Aperature">
</g>
<g id="Apex">
</g>
<g id="Arc">
</g>
<g id="Arm">
</g>
<g id="Ascender">
</g>
<g id="Ascender_Line">
</g>
<g id="Ascender_height">
</g>
<g id="Ascent_Line">
</g>
<g id="Axis">
</g>
<g id="Base_Line">
</g>
<g id="Beak">
</g>
<g id="Bilateral_Serif">
</g>
<g id="Body_Width">
</g>
<g id="Bowl">
</g>
<g id="Bracket">
</g>
<g id="Cap_Height">
</g>
<g id="Charachter_Width">
</g>
<g id="Counter_x28_open_x29_">
</g>
<g id="Counter_x28_closed_x29_">
</g>
<g id="Cross_Stroke_1_">
</g>
<g id="Crotch">
</g>
<g id="Descender">
</g>
<g id="Decent_Line">
</g>
<g id="diacritic">
</g>
<g id="Ear">
</g>
<g id="Eye">
</g>
<g id="Finial">
</g>
<g id="Foot">
</g>
<g id="Hairline_Stroke">
</g>
<g id="Head_Serif">
</g>
<g id="Joint">
</g>
<g id="Leg">
</g>
<g id="Ligature">
</g>
<g id="Link_x2F_Neck">
	<g>
		<path fill="#282828" d="M-16.746-7193.948c-2.155-1.652-5.032-2.478-8.637-2.478c-2.305,0-4.757,0.626-7.36,1.877
			c-2.605,1.253-5.609,3.281-9.012,6.083c-2.805-2.603-6.158-4.581-10.064-5.933c-3.905-1.352-8.062-2.028-12.467-2.028
			c-4.307,0-8.261,0.676-11.866,2.028c-3.605,1.352-6.736,3.206-9.388,5.557c-2.654,2.354-4.708,5.133-6.158,8.336
			c-1.453,3.206-2.178,6.71-2.178,10.515c0,2.605,0.399,5.133,1.202,7.585c0.8,2.455,1.878,4.731,3.229,6.834
			c1.352,2.103,2.978,3.98,4.882,5.632c1.901,1.652,3.955,2.929,6.158,3.831v0.601c-0.865,0.138-1.699,0.315-2.506,0.53l9.195,4.208
			c1.584-0.193,3.358-0.37,5.327-0.532c10.613-0.8,18.574-3.628,23.883-8.486c5.306-4.856,7.961-11.54,7.961-20.053
			c0-5.607-1.202-10.263-3.605-13.969c2.502-1.702,4.957-2.554,7.36-2.554c1.202,0,2.201,0.251,3.004,0.751
			c0.8,0.502,1.577,1.028,2.328,1.577c0.751,0.552,1.577,1.077,2.478,1.577c0.901,0.502,2.051,0.751,3.455,0.751
			c1.702,0,3.129-0.5,4.281-1.502c1.15-1,1.727-2.352,1.727-4.056C-13.516-7190.066-14.594-7192.296-16.746-7193.948z
			 M-53.997-7153.317c-2.354,3.807-5.633,5.708-9.838,5.708c-4.307,0-7.762-2.002-10.364-6.008
			c-2.605-4.004-3.905-9.313-3.905-15.922c0-6.609,1.277-11.814,3.83-15.621c2.554-3.805,5.982-5.708,10.289-5.708
			c4.304,0,7.635,1.877,9.989,5.632c2.352,3.755,3.53,9.038,3.53,15.847C-50.467-7162.48-51.645-7157.122-53.997-7153.317z"/>
		<path fill="#282828" d="M-89.37-7121.173c2.903,2.403,7.158,3.905,12.767,4.506c1.3,0.202,3.004,0.401,5.107,0.601
			c2.103,0.202,4.379,0.451,6.835,0.751c2.452,0.3,4.957,0.625,7.51,0.976c2.554,0.35,5.032,0.676,7.435,0.977
			c3.704,0.5,6.909,2.077,9.613,4.731c2.704,2.652,4.055,5.982,4.055,9.989c0,10.515-8.562,15.771-25.685,15.771
			c-8.013,0-14.195-1.202-18.55-3.605c-4.356-2.403-6.534-5.809-6.534-10.214c0-3.004,0.85-5.685,2.554-8.036
			c1.702-2.354,3.905-3.83,6.609-4.431c-2.704-2.103-5.759-3.155-9.163-3.155c-1.802,0-3.53,0.399-5.182,1.202
			c-1.652,0.8-3.079,1.878-4.281,3.229c-1.202,1.352-2.155,2.929-2.854,4.731c-0.702,1.803-1.051,3.755-1.051,5.858
			c0,3.103,0.925,5.956,2.779,8.562c1.852,2.603,4.431,4.83,7.736,6.684c3.305,1.852,7.285,3.279,11.941,4.281
			c4.656,1,9.787,1.502,15.396,1.502c12.617,0,22.254-2.204,28.915-6.609c6.658-4.408,9.989-10.814,9.989-19.226
			c0-6.71-2.178-12.293-6.534-16.748c-4.356-4.455-10.139-7.233-17.349-8.336c-2.305-0.3-4.431-0.601-6.384-0.901
			c-1.952-0.3-3.905-0.549-5.858-0.751c-1.953-0.2-3.931-0.399-5.933-0.601c-2.004-0.199-4.206-0.399-6.609-0.601
			c-3.029-0.172-5.419-0.552-7.176-1.136l-10.621,9.541C-89.725-7121.475-89.55-7121.322-89.37-7121.173z"/>
	</g>
	<path fill="#00CCFF" d="M-80.057-7131.463c-1.802-0.751-2.704-1.927-2.704-3.53c0-2.103,1.202-3.553,3.605-4.356
		c1.629-0.542,4.11-1.015,7.44-1.42l-9.195-4.208c-3.305,0.879-6.125,2.404-8.459,4.577c-2.906,2.704-4.356,5.809-4.356,9.313
		c0,3.945,1.276,7.097,3.833,9.456l10.621-9.541C-79.55-7131.264-79.812-7131.36-80.057-7131.463z"/>
</g>
<g id="Loop">
</g>
<g id="Overhang">
</g>
<g id="Serif">
</g>
<g id="Shoulder">
</g>
<g id="Spine">
</g>
<g id="Spur">
</g>
<g id="Stem">
</g>
<g id="Stress">
</g>
<g id="Tail">
</g>
<g id="Tittle">
</g>
<g id="Terminal">
</g>
<g id="Vertex">
</g>
</svg>
