<?xml version="1.0" encoding="utf-8"?>
<!-- Generator: Adobe Illustrator 17.1.0, SVG Export Plug-In . SVG Version: 6.00 Build 0)  -->
<!DOCTYPE svg PUBLIC "-//W3C//DTD SVG 1.1//EN" "http://www.w3.org/Graphics/SVG/1.1/DTD/svg11.dtd">
<svg version="1.1" xmlns="http://www.w3.org/2000/svg" xmlns:xlink="http://www.w3.org/1999/xlink" x="0px" y="0px"
	 viewBox="-5106.509 -7256.554 195.305 195.305" enable-background="new -5106.509 -7256.554 195.305 195.305" xml:space="preserve"
	>
<g id="Aperature">
</g>
<g id="Apex">
</g>
<g id="Arc">
</g>
<g id="Arm">
</g>
<g id="Ascender">
</g>
<g id="Ascender_Line">
</g>
<g id="Ascender_height">
</g>
<g id="Ascent_Line">
</g>
<g id="Axis">
</g>
<g id="Base_Line">
</g>
<g id="Beak">
	<path fill="#00CCFF" d="M-5003.583-7188.418c0.929,0.559,1.8,1.244,2.612,2.056c2.603,2.605,5.006,6.961,7.209,13.068h3.906
		v-21.629h-2.854l-3.004,3.154c-2.204-1.401-4.757-2.528-7.66-3.38c-0.07-0.02-0.139-0.037-0.209-0.057V-7188.418z"/>
	<path fill="#282828" d="M-4984.448-7144.155c-0.901-2.201-2.305-4.33-4.206-6.383c-1.903-2.051-4.381-4.13-7.435-6.234
		c-3.056-2.103-6.736-4.506-11.04-7.209c-2.605-1.601-4.832-3.028-6.684-4.281c-1.854-1.251-3.379-2.479-4.581-3.68
		s-2.08-2.427-2.629-3.68c-0.551-1.251-0.826-2.727-0.826-4.431c0-3.203,1.026-5.708,3.08-7.51c2.051-1.803,4.781-2.704,8.186-2.704
		c2.618,0,4.951,0.617,7.001,1.85v-6.789c-2.831-0.81-5.564-1.219-8.203-1.219c-3.206,0-6.158,0.577-8.862,1.727
		c-2.704,1.152-5.058,2.729-7.06,4.731c-2.004,2.004-3.582,4.431-4.731,7.285c-1.152,2.854-1.727,5.985-1.727,9.388
		c0,2.805,0.424,5.257,1.276,7.36c0.85,2.103,2.126,4.081,3.831,5.933c1.702,1.854,3.804,3.68,6.309,5.482
		c2.501,1.802,5.457,3.755,8.862,5.858c3.704,2.305,6.684,4.206,8.938,5.708c2.253,1.502,4.004,2.83,5.257,3.98
		c1.251,1.152,2.103,2.253,2.554,3.304c0.451,1.052,0.676,2.328,0.676,3.831c0,4.006-1.178,6.984-3.53,8.937
		c-2.354,1.953-5.534,2.929-9.538,2.929c-10.315,0-17.423-7.06-21.329-21.179h-3.755v25.835h3.304l3.004-5.257
		c5.606,4.506,12.317,6.759,20.127,6.759c7.51,0,13.568-2.028,18.175-6.083c4.605-4.056,6.91-9.637,6.91-16.748
		C-4983.096-7139.447-4983.547-7141.951-4984.448-7144.155z"/>
</g>
<g id="Bilateral_Serif">
</g>
<g id="Body_Width">
</g>
<g id="Bowl">
</g>
<g id="Bracket">
</g>
<g id="Cap_Height">
</g>
<g id="Charachter_Width">
</g>
<g id="Counter_x28_open_x29_">
</g>
<g id="Counter_x28_closed_x29_">
</g>
<g id="Cross_Stroke_1_">
</g>
<g id="Crotch">
</g>
<g id="Descender">
</g>
<g id="Decent_Line">
</g>
<g id="diacritic">
</g>
<g id="Ear">
</g>
<g id="Eye">
</g>
<g id="Finial">
</g>
<g id="Foot">
</g>
<g id="Hairline_Stroke">
</g>
<g id="Head_Serif">
</g>
<g id="Joint">
</g>
<g id="Leg">
</g>
<g id="Ligature">
</g>
<g id="Link_x2F_Neck">
</g>
<g id="Loop">
</g>
<g id="Overhang">
</g>
<g id="Serif">
</g>
<g id="Shoulder">
</g>
<g id="Spine">
</g>
<g id="Spur">
</g>
<g id="Stem">
</g>
<g id="Stress">
</g>
<g id="Tail">
</g>
<g id="Tittle">
</g>
<g id="Terminal">
</g>
<g id="Vertex">
</g>
</svg>
