<?xml version="1.0" encoding="utf-8"?>
<!-- Generator: Adobe Illustrator 17.1.0, SVG Export Plug-In . SVG Version: 6.00 Build 0)  -->
<!DOCTYPE svg PUBLIC "-//W3C//DTD SVG 1.1//EN" "http://www.w3.org/Graphics/SVG/1.1/DTD/svg11.dtd">
<svg version="1.1" xmlns="http://www.w3.org/2000/svg" xmlns:xlink="http://www.w3.org/1999/xlink" x="0px" y="0px"
	 viewBox="1998.543 -7256.554 195.305 195.305" enable-background="new 1998.543 -7256.554 195.305 195.305" xml:space="preserve">
<g id="Aperature">
</g>
<g id="Apex">
</g>
<g id="Arc">
</g>
<g id="Arm">
</g>
<g id="Ascender">
</g>
<g id="Ascender_Line">
</g>
<g id="Ascender_height">
</g>
<g id="Ascent_Line">
</g>
<g id="Axis">
</g>
<g id="Base_Line">
</g>
<g id="Beak">
</g>
<g id="Bilateral_Serif">
</g>
<g id="Body_Width">
</g>
<g id="Bowl">
</g>
<g id="Bracket">
</g>
<g id="Cap_Height">
</g>
<g id="Charachter_Width">
</g>
<g id="Counter_x28_open_x29_">
</g>
<g id="Counter_x28_closed_x29_">
</g>
<g id="Cross_Stroke_1_">
</g>
<g id="Crotch">
</g>
<g id="Descender">
</g>
<g id="Decent_Line">
</g>
<g id="diacritic">
</g>
<g id="Ear">
</g>
<g id="Eye">
</g>
<g id="Finial">
</g>
<g id="Foot">
</g>
<g id="Hairline_Stroke">
</g>
<g id="Head_Serif">
</g>
<g id="Joint">
</g>
<g id="Leg">
</g>
<g id="Ligature">
</g>
<g id="Link_x2F_Neck">
</g>
<g id="Loop">
</g>
<g id="Overhang">
</g>
<g id="Serif">
</g>
<g id="Shoulder">
</g>
<g id="Spine">
</g>
<g id="Spur">
</g>
<g id="Stem">
</g>
<g id="Stress">
</g>
<g id="Tail">
</g>
<g id="Tittle">
	<g>
		<g>
			<path fill="#282828" d="M2091.54-7115.015c0,12.517-2.629,22.104-7.886,28.765c-5.257,6.658-12.894,9.989-22.906,9.989
				c-6.407,0-11.641-1.277-15.696-3.831c-4.056-2.553-6.083-5.933-6.083-10.139c0-2.305,0.676-4.056,2.028-5.257
				c1.352-1.202,3.229-1.802,5.633-1.802c1.802,0,3.18,0.425,4.131,1.276c0.953,0.85,2.178,2.779,3.68,5.783
				c1.404,3.004,2.704,5.006,3.906,6.008c1.202,1,3.053,1.502,5.557,1.502c4.807,0,8.16-1.652,10.064-4.957
				c1.901-3.304,2.854-9.113,2.854-17.424v-52.271c0-5.807-0.075-10.589-0.225-14.345c-0.15-3.755-0.427-6.332-0.826-7.735
				c-0.502-2.303-1.652-3.88-3.455-4.732c-1.802-0.85-5.208-1.276-10.214-1.276v-5.257l29.44-5.708V-7115.015z"/>
			<path fill="#282828" d="M2139.454-7139.198c0,3.905,0.174,7.036,0.526,9.388c0.349,2.354,1.025,4.206,2.028,5.558
				c1,1.352,2.404,2.279,4.206,2.779c1.803,0.502,4.206,0.803,7.21,0.901v5.257h-43.109v-5.257c3.004-0.099,5.457-0.425,7.36-0.976
				c1.901-0.549,3.38-1.451,4.431-2.704c1.052-1.251,1.751-3.004,2.103-5.257c0.35-2.253,0.526-5.13,0.526-8.637v-19.227
				c0-5.807-0.075-10.589-0.225-14.345c-0.15-3.755-0.427-6.332-0.826-7.735c-0.502-2.303-1.652-3.88-3.454-4.732
				c-1.803-0.85-5.208-1.276-10.214-1.276v-5.257l29.44-5.708V-7139.198z"/>
		</g>
		<g>
			<path fill="#00CCFF" d="M2074.567-7226.918c0-2.603,0.901-4.807,2.704-6.609s4.004-2.704,6.609-2.704
				c2.603,0,4.807,0.901,6.609,2.704c1.802,1.802,2.704,4.006,2.704,6.609c0,2.605-0.901,4.807-2.704,6.609
				c-1.802,1.802-4.006,2.704-6.609,2.704c-2.605,0-4.807-0.901-6.609-2.704C2075.468-7222.112,2074.567-7224.313,2074.567-7226.918
				z"/>
			<path fill="#00CCFF" d="M2122.18-7226.918c0-2.603,0.901-4.807,2.704-6.609c1.802-1.802,4.004-2.704,6.609-2.704
				c2.603,0,4.806,0.901,6.609,2.704c1.802,1.802,2.704,4.006,2.704,6.609c0,2.605-0.901,4.807-2.704,6.609
				c-1.803,1.802-4.006,2.704-6.609,2.704c-2.605,0-4.806-0.901-6.609-2.704C2123.081-7222.112,2122.18-7224.313,2122.18-7226.918z"
				/>
		</g>
	</g>
</g>
<g id="Terminal">
</g>
<g id="Vertex">
</g>
</svg>
