<?xml version="1.0" encoding="utf-8"?>
<!-- Generator: Adobe Illustrator 17.1.0, SVG Export Plug-In . SVG Version: 6.00 Build 0)  -->
<!DOCTYPE svg PUBLIC "-//W3C//DTD SVG 1.1//EN" "http://www.w3.org/Graphics/SVG/1.1/DTD/svg11.dtd">
<svg version="1.1" xmlns="http://www.w3.org/2000/svg" xmlns:xlink="http://www.w3.org/1999/xlink" x="0px" y="0px"
	 viewBox="2213.848 -7256.554 195.305 195.305" enable-background="new 2213.848 -7256.554 195.305 195.305" xml:space="preserve">
<g id="Aperature">
</g>
<g id="Apex">
</g>
<g id="Arc">
</g>
<g id="Arm">
</g>
<g id="Ascender">
</g>
<g id="Ascender_Line">
</g>
<g id="Ascender_height">
</g>
<g id="Ascent_Line">
</g>
<g id="Axis">
</g>
<g id="Base_Line">
</g>
<g id="Beak">
</g>
<g id="Bilateral_Serif">
</g>
<g id="Body_Width">
</g>
<g id="Bowl">
</g>
<g id="Bracket">
</g>
<g id="Cap_Height">
</g>
<g id="Charachter_Width">
</g>
<g id="Counter_x28_open_x29_">
</g>
<g id="Counter_x28_closed_x29_">
</g>
<g id="Cross_Stroke_1_">
</g>
<g id="Crotch">
</g>
<g id="Descender">
</g>
<g id="Decent_Line">
</g>
<g id="diacritic">
</g>
<g id="Ear">
</g>
<g id="Eye">
</g>
<g id="Finial">
</g>
<g id="Foot">
</g>
<g id="Hairline_Stroke">
</g>
<g id="Head_Serif">
</g>
<g id="Joint">
</g>
<g id="Leg">
</g>
<g id="Ligature">
</g>
<g id="Link_x2F_Neck">
</g>
<g id="Loop">
</g>
<g id="Overhang">
</g>
<g id="Serif">
</g>
<g id="Shoulder">
</g>
<g id="Spine">
</g>
<g id="Spur">
</g>
<g id="Stem">
</g>
<g id="Stress">
</g>
<g id="Tail">
</g>
<g id="Tittle">
</g>
<g id="Terminal">
	<path fill="#00CCFF" d="M2337.936-7192.747c-2.354-1.15-5.133-2.051-8.336-2.704c-3.206-0.65-6.76-0.976-10.665-0.976
		c-0.278,0-0.554,0.004-0.83,0.008v7.151c1.938,0.184,3.592,0.626,4.96,1.328c1.852,0.953,3.779,2.579,5.783,4.882
		c1.901,2.605,3.455,4.281,4.656,5.032c1.202,0.751,2.704,1.126,4.506,1.126c2.302,0,4.105-0.549,5.407-1.652
		c1.3-1.101,1.953-2.652,1.953-4.656c0-1.901-0.652-3.68-1.953-5.333C2342.116-7190.193,2340.288-7191.594,2337.936-7192.747z"/>
	<path fill="#282828" d="M2330.051-7124.103c-3.706,1.652-7.661,2.479-11.866,2.479c-7.811,0-13.744-2.979-17.799-8.938
		c-4.056-5.957-6.083-14.694-6.083-26.211c0-10.714,1.826-18.825,5.482-24.333c3.654-5.506,9.036-8.261,16.147-8.261
		c0.761,0,1.486,0.034,2.175,0.099v-7.151c-5.887,0.083-11.293,1.056-16.219,2.921c-5.159,1.953-9.564,4.757-13.218,8.412
		c-3.657,3.656-6.485,8.062-8.487,13.218c-2.004,5.158-3.004,10.941-3.004,17.349c0,6.109,0.875,11.667,2.629,16.673
		c1.75,5.008,4.229,9.289,7.435,12.842c3.204,3.556,7.034,6.309,11.491,8.261c4.455,1.953,9.336,2.929,14.645,2.929
		c6.609,0,12.768-1.228,18.475-3.68s10.364-5.881,13.969-10.289l-4.506-4.356
		C2337.509-7128.433,2333.754-7125.755,2330.051-7124.103z"/>
</g>
<g id="Vertex">
</g>
</svg>
