<?xml version="1.0" encoding="utf-8"?>
<!-- Generator: Adobe Illustrator 17.1.0, SVG Export Plug-In . SVG Version: 6.00 Build 0)  -->
<!DOCTYPE svg PUBLIC "-//W3C//DTD SVG 1.1//EN" "http://www.w3.org/Graphics/SVG/1.1/DTD/svg11.dtd">
<svg version="1.1" xmlns="http://www.w3.org/2000/svg" xmlns:xlink="http://www.w3.org/1999/xlink" x="0px" y="0px"
	 viewBox="-1661.635 -7256.554 195.305 195.305" enable-background="new -1661.635 -7256.554 195.305 195.305" xml:space="preserve"
	>
<g id="Aperature">
</g>
<g id="Apex">
</g>
<g id="Arc">
</g>
<g id="Arm">
</g>
<g id="Ascender">
</g>
<g id="Ascender_Line">
</g>
<g id="Ascender_height">
</g>
<g id="Ascent_Line">
</g>
<g id="Axis">
</g>
<g id="Base_Line">
</g>
<g id="Beak">
</g>
<g id="Bilateral_Serif">
</g>
<g id="Body_Width">
</g>
<g id="Bowl">
</g>
<g id="Bracket">
</g>
<g id="Cap_Height">
</g>
<g id="Charachter_Width">
</g>
<g id="Counter_x28_open_x29_">
</g>
<g id="Counter_x28_closed_x29_">
</g>
<g id="Cross_Stroke_1_">
</g>
<g id="Crotch">
</g>
<g id="Descender">
</g>
<g id="Decent_Line">
</g>
<g id="diacritic">
</g>
<g id="Ear">
</g>
<g id="Eye">
</g>
<g id="Finial">
	<path fill="#00CCFF" d="M-1528.76-7129.285l-4.656-4.206c-3.561,3.934-7.032,6.839-10.416,8.713v7.456
		C-1538.245-7119.894-1533.22-7123.88-1528.76-7129.285z"/>
	<path fill="#282828" d="M-1543.832-7124.777c-0.234,0.129-0.467,0.254-0.7,0.374c-3.605,1.854-7.51,2.779-11.716,2.779
		c-4.006,0-7.637-0.826-10.89-2.479c-3.255-1.652-6.06-3.98-8.411-6.984c-2.354-3.004-4.156-6.633-5.407-10.89
		c-1.253-4.255-1.877-8.986-1.877-14.194c0-1.401,0.049-2.678,0.15-3.83c0.099-1.15,0.249-2.126,0.451-2.929h49.418
		c2.002,0,3.279-0.15,3.83-0.451c0.549-0.3,0.826-1.15,0.826-2.554c0-9.812-2.654-17.349-7.961-22.606
		c-5.309-5.257-12.819-7.885-22.531-7.885c-6.008,0-11.543,1.051-16.598,3.154c-5.058,2.103-9.414,5.008-13.068,8.712
		c-3.657,3.706-6.485,8.163-8.487,13.368c-2.004,5.208-3.004,10.866-3.004,16.973c0,6.008,0.951,11.491,2.854,16.447
		c1.901,4.957,4.581,9.214,8.036,12.768c3.455,3.556,7.585,6.309,12.392,8.261c4.807,1.953,10.162,2.929,16.072,2.929
		c6.006,0,11.546-1.171,16.621-3.508V-7124.777z M-1561.054-7189.217c5.107,0,9.137,1.378,12.092,4.131
		c2.953,2.755,4.431,6.435,4.431,11.04c0,0.901-0.101,1.629-0.3,2.178c-0.202,0.551-0.601,0.976-1.202,1.276
		c-0.601,0.3-1.502,0.502-2.704,0.601c-1.202,0.101-2.805,0.15-4.807,0.15h-27.638
		C-1578.579-7182.758-1571.869-7189.217-1561.054-7189.217z"/>
</g>
<g id="Foot">
</g>
<g id="Hairline_Stroke">
</g>
<g id="Head_Serif">
</g>
<g id="Joint">
</g>
<g id="Leg">
</g>
<g id="Ligature">
</g>
<g id="Link_x2F_Neck">
</g>
<g id="Loop">
</g>
<g id="Overhang">
</g>
<g id="Serif">
</g>
<g id="Shoulder">
</g>
<g id="Spine">
</g>
<g id="Spur">
</g>
<g id="Stem">
</g>
<g id="Stress">
</g>
<g id="Tail">
</g>
<g id="Tittle">
</g>
<g id="Terminal">
</g>
<g id="Vertex">
</g>
</svg>
