<?xml version="1.0" encoding="utf-8"?>
<!-- Generator: Adobe Illustrator 17.1.0, SVG Export Plug-In . SVG Version: 6.00 Build 0)  -->
<!DOCTYPE svg PUBLIC "-//W3C//DTD SVG 1.1//EN" "http://www.w3.org/Graphics/SVG/1.1/DTD/svg11.dtd">
<svg version="1.1" xmlns="http://www.w3.org/2000/svg" xmlns:xlink="http://www.w3.org/1999/xlink" x="0px" y="0px"
	 viewBox="-5321.813 -7256.554 195.305 195.305" enable-background="new -5321.813 -7256.554 195.305 195.305" xml:space="preserve"
	>
<g id="Aperature">
</g>
<g id="Apex">
</g>
<g id="Arc">
</g>
<g id="Arm">
</g>
<g id="Ascender">
</g>
<g id="Ascender_Line">
</g>
<g id="Ascender_height">
</g>
<g id="Ascent_Line">
</g>
<g id="Axis">
</g>
<g id="Base_Line">
	<g>
		<path fill="#282828" d="M-5203.883-7127.933h-0.601c-3.604,5.107-7.435,8.737-11.491,10.89c-4.055,2.152-8.838,3.229-14.345,3.229
			c-5.708,0-10.941-1.028-15.696-3.079c-4.757-2.051-8.862-4.905-12.317-8.562c-3.455-3.655-6.158-8.036-8.111-13.143
			c-1.953-5.107-2.929-10.665-2.929-16.673c0-5.907,0.976-11.39,2.929-16.448c1.953-5.055,4.656-9.411,8.111-13.068
			c3.455-3.654,7.585-6.508,12.392-8.562c4.807-2.051,10.012-3.079,15.621-3.079c4.807,0,9.088,0.802,12.843,2.403
			c3.755,1.603,7.384,4.157,10.89,7.661v-15.321c0-5.708-0.075-10.463-0.226-14.27c-0.15-3.805-0.375-6.407-0.676-7.811
			c-0.502-2.201-1.903-3.755-4.206-4.656c-2.305-0.901-6.06-1.352-11.266-1.352v-4.506l30.792-5.708v86.669
			c0,6.909,0.049,12.594,0.15,17.048c0.099,4.457,0.399,7.637,0.901,9.538c0.3,1.202,0.676,2.204,1.126,3.004
			c0.451,0.803,1.101,1.427,1.953,1.878c0.85,0.45,2.002,0.776,3.455,0.976c1.451,0.202,3.328,0.3,5.633,0.3v5.107l-24.934,1.652
			V-7127.933z M-5206.887-7161.128c0-5.205-0.277-9.163-0.826-11.866c-0.552-2.704-1.629-5.055-3.229-7.06
			c-2.305-3.004-5.234-5.281-8.787-6.834c-3.556-1.551-7.085-2.328-10.59-2.328c-7.209,0-12.692,2.981-16.447,8.938
			c-3.755,5.959-5.633,14.044-5.633,24.258c0,5.309,0.474,10.116,1.427,14.42c0.95,4.307,2.352,7.987,4.206,11.04
			c1.852,3.056,4.154,5.408,6.91,7.06c2.753,1.652,5.933,2.478,9.538,2.478c1.803,0,3.628-0.199,5.483-0.601
			c1.852-0.399,3.654-1.026,5.407-1.877c1.751-0.85,3.38-1.852,4.882-3.004c1.502-1.15,2.753-2.478,3.755-3.98
			c1.401-2.201,2.403-4.856,3.004-7.961c0.601-3.103,0.901-7.36,0.901-12.768V-7161.128z"/>
	</g>
	<polygon fill="#00CCFF" points="-5277.096,-7115.364 -5269.373,-7123.087 -5274.424,-7123.087 -5274.424,-7133.589 
		-5279.767,-7133.589 -5279.767,-7123.087 -5284.819,-7123.087 	"/>
</g>
<g id="Beak">
</g>
<g id="Bilateral_Serif">
</g>
<g id="Body_Width">
</g>
<g id="Bowl">
</g>
<g id="Bracket">
</g>
<g id="Cap_Height">
</g>
<g id="Charachter_Width">
</g>
<g id="Counter_x28_open_x29_">
</g>
<g id="Counter_x28_closed_x29_">
</g>
<g id="Cross_Stroke_1_">
</g>
<g id="Crotch">
</g>
<g id="Descender">
</g>
<g id="Decent_Line">
</g>
<g id="diacritic">
</g>
<g id="Ear">
</g>
<g id="Eye">
</g>
<g id="Finial">
</g>
<g id="Foot">
</g>
<g id="Hairline_Stroke">
</g>
<g id="Head_Serif">
</g>
<g id="Joint">
</g>
<g id="Leg">
</g>
<g id="Ligature">
</g>
<g id="Link_x2F_Neck">
</g>
<g id="Loop">
</g>
<g id="Overhang">
</g>
<g id="Serif">
</g>
<g id="Shoulder">
</g>
<g id="Spine">
</g>
<g id="Spur">
</g>
<g id="Stem">
</g>
<g id="Stress">
</g>
<g id="Tail">
</g>
<g id="Tittle">
</g>
<g id="Terminal">
</g>
<g id="Vertex">
</g>
</svg>
