<?xml version="1.0" encoding="utf-8"?>
<!-- Generator: Adobe Illustrator 17.1.0, SVG Export Plug-In . SVG Version: 6.00 Build 0)  -->
<!DOCTYPE svg PUBLIC "-//W3C//DTD SVG 1.1//EN" "http://www.w3.org/Graphics/SVG/1.1/DTD/svg11.dtd">
<svg version="1.1" xmlns="http://www.w3.org/2000/svg" xmlns:xlink="http://www.w3.org/1999/xlink" x="0px" y="0px"
	 viewBox="1352.629 -7256.554 195.305 195.305" enable-background="new 1352.629 -7256.554 195.305 195.305" xml:space="preserve">
<g id="Aperature">
</g>
<g id="Apex">
</g>
<g id="Arc">
</g>
<g id="Arm">
</g>
<g id="Ascender">
</g>
<g id="Ascender_Line">
</g>
<g id="Ascender_height">
</g>
<g id="Ascent_Line">
</g>
<g id="Axis">
</g>
<g id="Base_Line">
</g>
<g id="Beak">
</g>
<g id="Bilateral_Serif">
</g>
<g id="Body_Width">
</g>
<g id="Bowl">
</g>
<g id="Bracket">
</g>
<g id="Cap_Height">
</g>
<g id="Charachter_Width">
</g>
<g id="Counter_x28_open_x29_">
</g>
<g id="Counter_x28_closed_x29_">
</g>
<g id="Cross_Stroke_1_">
</g>
<g id="Crotch">
</g>
<g id="Descender">
</g>
<g id="Decent_Line">
</g>
<g id="diacritic">
</g>
<g id="Ear">
</g>
<g id="Eye">
</g>
<g id="Finial">
</g>
<g id="Foot">
</g>
<g id="Hairline_Stroke">
</g>
<g id="Head_Serif">
</g>
<g id="Joint">
</g>
<g id="Leg">
</g>
<g id="Ligature">
</g>
<g id="Link_x2F_Neck">
</g>
<g id="Loop">
</g>
<g id="Overhang">
</g>
<g id="Serif">
</g>
<g id="Shoulder">
</g>
<g id="Spine">
</g>
<g id="Spur">
</g>
<g id="Stem">
	<path fill="#00CCFF" d="M1443.517-7217.735c0.029,0.538,0.056,1.105,0.08,1.707c0.15,3.657,0.225,8.186,0.225,13.593v64.739
		c0,1.826-0.048,3.465-0.143,4.923h14.271c-0.106-1.728-0.159-3.718-0.159-5.975v-78.988H1443.517z"/>
	<g>
		<path fill="#282828" d="M1464.175-7121.474c-1.753-0.5-3.105-1.401-4.056-2.704c-0.953-1.3-1.577-3.103-1.877-5.407
			c-0.122-0.938-0.219-2.001-0.292-3.188h-14.271c-0.088,1.343-0.215,2.532-0.382,3.563c-0.352,2.154-1.052,3.83-2.103,5.032
			c-1.052,1.202-2.478,2.08-4.281,2.629c-1.802,0.551-4.206,0.877-7.21,0.976v5.257h41.457v-5.257
			C1468.254-7120.671,1465.926-7120.972,1464.175-7121.474z"/>
		<path fill="#282828" d="M1457.792-7239.986l-28.389,5.558v5.107c4.807,0,8.135,0.401,9.989,1.202
			c1.852,0.802,3.028,2.354,3.53,4.656c0.251,1.088,0.449,3,0.595,5.729h14.275V-7239.986z"/>
	</g>
</g>
<g id="Stress">
</g>
<g id="Tail">
</g>
<g id="Tittle">
</g>
<g id="Terminal">
</g>
<g id="Vertex">
</g>
</svg>
