<?xml version="1.0" encoding="utf-8"?>
<!-- Generator: Adobe Illustrator 17.1.0, SVG Export Plug-In . SVG Version: 6.00 Build 0)  -->
<!DOCTYPE svg PUBLIC "-//W3C//DTD SVG 1.1//EN" "http://www.w3.org/Graphics/SVG/1.1/DTD/svg11.dtd">
<svg version="1.1" xmlns="http://www.w3.org/2000/svg" xmlns:xlink="http://www.w3.org/1999/xlink" x="0px" y="0px"
	 viewBox="-4029.986 -7256.554 195.305 195.305" enable-background="new -4029.986 -7256.554 195.305 195.305" xml:space="preserve"
	>
<g id="Aperature">
</g>
<g id="Apex">
</g>
<g id="Arc">
</g>
<g id="Arm">
</g>
<g id="Ascender">
</g>
<g id="Ascender_Line">
</g>
<g id="Ascender_height">
</g>
<g id="Ascent_Line">
</g>
<g id="Axis">
</g>
<g id="Base_Line">
</g>
<g id="Beak">
</g>
<g id="Bilateral_Serif">
</g>
<g id="Body_Width">
</g>
<g id="Bowl">
</g>
<g id="Bracket">
</g>
<g id="Cap_Height">
	<g>
		<g>
			<path fill="#282828" d="M-3894.213-7115.315h-97.033v-5.708c3.504-0.099,6.332-0.399,8.487-0.901
				c2.152-0.5,3.83-1.352,5.032-2.554s2.002-2.903,2.403-5.107c0.399-2.201,0.601-5.055,0.601-8.562v-69.996
				c0-3.504-0.176-6.332-0.526-8.487c-0.352-2.152-1.052-3.854-2.103-5.107c-1.051-1.25-2.579-2.103-4.581-2.553
				c-2.004-0.451-4.607-0.774-7.811-0.977v-5.708h45.662v5.708c-3.206,0.101-5.783,0.401-7.736,0.901
				c-1.952,0.502-3.455,1.403-4.506,2.704c-1.051,1.303-1.753,3.105-2.103,5.408c-0.352,2.305-0.526,5.358-0.526,9.163v64.738
				c0,4.206,0.425,7.637,1.277,10.289c0.85,2.654,2.302,4.708,4.356,6.158c2.051,1.453,4.781,2.455,8.186,3.004
				c3.403,0.552,7.71,0.826,12.918,0.826c5.708,0,10.514-0.324,14.42-0.977c3.905-0.65,7.184-1.802,9.839-3.455
				c2.652-1.652,4.755-3.955,6.309-6.909c1.551-2.953,2.877-6.783,3.98-11.491h5.708L-3894.213-7115.315z"/>
		</g>
		<rect x="-3883.967" y="-7231.014" fill="#00CCFF" width="10.547" height="115.649"/>
	</g>
</g>
<g id="Charachter_Width">
</g>
<g id="Counter_x28_open_x29_">
</g>
<g id="Counter_x28_closed_x29_">
</g>
<g id="Cross_Stroke_1_">
</g>
<g id="Crotch">
</g>
<g id="Descender">
</g>
<g id="Decent_Line">
</g>
<g id="diacritic">
</g>
<g id="Ear">
</g>
<g id="Eye">
</g>
<g id="Finial">
</g>
<g id="Foot">
</g>
<g id="Hairline_Stroke">
</g>
<g id="Head_Serif">
</g>
<g id="Joint">
</g>
<g id="Leg">
</g>
<g id="Ligature">
</g>
<g id="Link_x2F_Neck">
</g>
<g id="Loop">
</g>
<g id="Overhang">
</g>
<g id="Serif">
</g>
<g id="Shoulder">
</g>
<g id="Spine">
</g>
<g id="Spur">
</g>
<g id="Stem">
</g>
<g id="Stress">
</g>
<g id="Tail">
</g>
<g id="Tittle">
</g>
<g id="Terminal">
</g>
<g id="Vertex">
</g>
</svg>
