<?xml version="1.0" encoding="utf-8"?>
<!-- Generator: Adobe Illustrator 17.1.0, SVG Export Plug-In . SVG Version: 6.00 Build 0)  -->
<!DOCTYPE svg PUBLIC "-//W3C//DTD SVG 1.1//EN" "http://www.w3.org/Graphics/SVG/1.1/DTD/svg11.dtd">
<svg version="1.1" xmlns="http://www.w3.org/2000/svg" xmlns:xlink="http://www.w3.org/1999/xlink" x="0px" y="0px"
	 viewBox="-2307.549 -7256.554 195.305 195.305" enable-background="new -2307.549 -7256.554 195.305 195.305" xml:space="preserve"
	>
<g id="Aperature">
</g>
<g id="Apex">
</g>
<g id="Arc">
</g>
<g id="Arm">
</g>
<g id="Ascender">
</g>
<g id="Ascender_Line">
</g>
<g id="Ascender_height">
</g>
<g id="Ascent_Line">
</g>
<g id="Axis">
</g>
<g id="Base_Line">
</g>
<g id="Beak">
</g>
<g id="Bilateral_Serif">
</g>
<g id="Body_Width">
</g>
<g id="Bowl">
</g>
<g id="Bracket">
</g>
<g id="Cap_Height">
</g>
<g id="Charachter_Width">
</g>
<g id="Counter_x28_open_x29_">
</g>
<g id="Counter_x28_closed_x29_">
</g>
<g id="Cross_Stroke_1_">
</g>
<g id="Crotch">
</g>
<g id="Descender">
</g>
<g id="Decent_Line">
</g>
<g id="diacritic">
	<g>
		<path fill="#282828" d="M-2153.194-7129.285c-8.813,10.315-19.226,15.471-31.243,15.471c-7.412,0-13.871-1.702-19.377-5.107
			c-5.508-3.403-9.763-8.111-12.767-14.119c-2.805,6.109-6.785,10.814-11.941,14.119c-5.159,3.305-11.092,4.957-17.799,4.957
			c-6.511,0-11.618-1.577-15.321-4.731c-3.706-3.154-5.558-7.484-5.558-12.993c0-5.506,1.976-10.289,5.933-14.345
			c3.955-4.055,10.087-7.635,18.4-10.74l21.63-7.96v-7.661c0-6.309-1.277-10.939-3.83-13.894c-2.554-2.953-6.586-4.431-12.092-4.431
			c-3.206,0-5.509,0.676-6.909,2.028c-1.404,1.352-2.805,3.931-4.206,7.736c-1.103,2.905-2.178,4.832-3.229,5.783
			c-1.052,0.953-2.53,1.427-4.431,1.427c-5.107,0-7.661-2.501-7.661-7.51c0-4.807,2.577-8.536,7.736-11.19
			c5.156-2.652,12.441-3.98,21.855-3.98c6.91,0,12.317,0.826,16.222,2.478c3.906,1.652,6.809,4.281,8.712,7.886
			c3.304-3.304,7.184-5.858,11.641-7.66c4.455-1.803,9.388-2.704,14.795-2.704c9.411,0,16.772,2.68,22.08,8.036
			c5.307,5.358,7.961,12.744,7.961,22.155c0,1.103-0.326,1.929-0.976,2.479c-0.652,0.552-1.877,0.826-3.68,0.826h-46.414
			c-0.401,1.202-0.601,3.406-0.601,6.609c0,10.716,2.126,19.177,6.384,25.385c4.255,6.21,10.139,9.313,17.649,9.313
			c7.71,0,15.171-3.955,22.381-11.866L-2153.194-7129.285z M-2221.237-7158.274c-10.815,4.006-18.651,7.886-23.507,11.641
			c-4.858,3.755-7.285,7.886-7.285,12.392c0,3.304,1.126,6.008,3.38,8.111c2.253,2.103,5.131,3.154,8.637,3.154
			c2.502,0,4.905-0.575,7.21-1.727c2.302-1.15,4.304-2.728,6.008-4.732c1.701-2.001,3.053-4.33,4.055-6.984
			c1-2.652,1.502-5.482,1.502-8.487V-7158.274z M-2177.978-7169.84c2.002,0,3.605-0.049,4.807-0.15
			c1.202-0.099,2.103-0.275,2.704-0.526c0.601-0.249,1-0.65,1.202-1.202c0.2-0.549,0.301-1.277,0.301-2.178
			c0-4.605-1.479-8.311-4.431-11.116c-2.955-2.802-6.834-4.206-11.641-4.206s-8.637,1.577-11.491,4.731
			c-2.854,3.154-4.882,8.036-6.083,14.645H-2177.978z"/>
	</g>
	<path fill="#00CCFF" d="M-2222.439-7213.1l19.527-17.874c3.605-3.305,6.959-4.957,10.064-4.957c1.702,0,3.079,0.451,4.131,1.352
		c1.052,0.901,1.577,2.204,1.577,3.905c0,1.603-0.676,3.03-2.028,4.281c-1.352,1.253-3.229,2.429-5.633,3.53l-20.578,9.763
		H-2222.439z"/>
</g>
<g id="Ear">
</g>
<g id="Eye">
</g>
<g id="Finial">
</g>
<g id="Foot">
</g>
<g id="Hairline_Stroke">
</g>
<g id="Head_Serif">
</g>
<g id="Joint">
</g>
<g id="Leg">
</g>
<g id="Ligature">
</g>
<g id="Link_x2F_Neck">
</g>
<g id="Loop">
</g>
<g id="Overhang">
</g>
<g id="Serif">
</g>
<g id="Shoulder">
</g>
<g id="Spine">
</g>
<g id="Spur">
</g>
<g id="Stem">
</g>
<g id="Stress">
</g>
<g id="Tail">
</g>
<g id="Tittle">
</g>
<g id="Terminal">
</g>
<g id="Vertex">
</g>
</svg>
