<?xml version="1.0" encoding="utf-8"?>
<!-- Generator: Adobe Illustrator 17.1.0, SVG Export Plug-In . SVG Version: 6.00 Build 0)  -->
<!DOCTYPE svg PUBLIC "-//W3C//DTD SVG 1.1//EN" "http://www.w3.org/Graphics/SVG/1.1/DTD/svg11.dtd">
<svg version="1.1" xmlns="http://www.w3.org/2000/svg" xmlns:xlink="http://www.w3.org/1999/xlink" x="0px" y="0px"
	 viewBox="-3599.376 -7256.554 195.305 195.305" enable-background="new -3599.376 -7256.554 195.305 195.305" xml:space="preserve"
	>
<g id="Aperature">
</g>
<g id="Apex">
</g>
<g id="Arc">
</g>
<g id="Arm">
</g>
<g id="Ascender">
</g>
<g id="Ascender_Line">
</g>
<g id="Ascender_height">
</g>
<g id="Ascent_Line">
</g>
<g id="Axis">
</g>
<g id="Base_Line">
</g>
<g id="Beak">
</g>
<g id="Bilateral_Serif">
</g>
<g id="Body_Width">
</g>
<g id="Bowl">
</g>
<g id="Bracket">
</g>
<g id="Cap_Height">
</g>
<g id="Charachter_Width">
</g>
<g id="Counter_x28_open_x29_">
	<path fill="#00CCFF" d="M-3523.894-7166.971h57.393v37.687c0,0-26.922,22.669-57.393,0
		C-3531.453-7134.908-3523.894-7166.971-3523.894-7166.971z"/>
	<g>
		<path fill="#282828" d="M-3466.501-7129.285c-8.512,10.315-19.076,15.471-31.693,15.471c-5.91,0-11.265-0.976-16.072-2.929
			c-4.807-1.953-8.937-4.706-12.392-8.261c-3.455-3.553-6.135-7.811-8.036-12.768c-1.903-4.957-2.854-10.439-2.854-16.447
			c0-6.107,1-11.765,3.004-16.973c2.002-5.206,4.83-9.663,8.486-13.368c3.654-3.704,8.01-6.609,13.068-8.712
			c5.055-2.103,10.589-3.154,16.597-3.154c9.712,0,17.222,2.628,22.531,7.885c5.306,5.257,7.961,12.793,7.961,22.606
			c0,1.404-0.277,2.253-0.826,2.554c-0.552,0.3-1.828,0.451-3.83,0.451h-49.418c-0.202,0.803-0.352,1.779-0.451,2.929
			c-0.101,1.152-0.15,2.429-0.15,3.83c0,5.208,0.624,9.939,1.877,14.194c1.251,4.257,3.053,7.886,5.407,10.89
			c2.352,3.004,5.156,5.332,8.411,6.984c3.253,1.652,6.884,2.479,10.89,2.479c4.206,0,8.111-0.925,11.716-2.779
			c3.605-1.852,7.309-4.882,11.115-9.087L-3466.501-7129.285z M-3491.285-7169.84c2.002,0,3.605-0.049,4.806-0.15
			c1.202-0.099,2.103-0.301,2.704-0.601s1-0.725,1.202-1.276c0.199-0.549,0.3-1.277,0.3-2.178c0-4.605-1.479-8.285-4.431-11.04
			c-2.955-2.753-6.985-4.131-12.092-4.131c-10.815,0-17.525,6.459-20.128,19.376H-3491.285z"/>
	</g>
</g>
<g id="Counter_x28_closed_x29_">
</g>
<g id="Cross_Stroke_1_">
</g>
<g id="Crotch">
</g>
<g id="Descender">
</g>
<g id="Decent_Line">
</g>
<g id="diacritic">
</g>
<g id="Ear">
</g>
<g id="Eye">
</g>
<g id="Finial">
</g>
<g id="Foot">
</g>
<g id="Hairline_Stroke">
</g>
<g id="Head_Serif">
</g>
<g id="Joint">
</g>
<g id="Leg">
</g>
<g id="Ligature">
</g>
<g id="Link_x2F_Neck">
</g>
<g id="Loop">
</g>
<g id="Overhang">
</g>
<g id="Serif">
</g>
<g id="Shoulder">
</g>
<g id="Spine">
</g>
<g id="Spur">
</g>
<g id="Stem">
</g>
<g id="Stress">
</g>
<g id="Tail">
</g>
<g id="Tittle">
</g>
<g id="Terminal">
</g>
<g id="Vertex">
</g>
</svg>
