<?xml version="1.0" encoding="utf-8"?>
<!-- Generator: Adobe Illustrator 17.1.0, SVG Export Plug-In . SVG Version: 6.00 Build 0)  -->
<!DOCTYPE svg PUBLIC "-//W3C//DTD SVG 1.1//EN" "http://www.w3.org/Graphics/SVG/1.1/DTD/svg11.dtd">
<svg version="1.1" xmlns="http://www.w3.org/2000/svg" xmlns:xlink="http://www.w3.org/1999/xlink" x="0px" y="0px"
	 viewBox="-1231.026 -7256.554 195.305 195.305" enable-background="new -1231.026 -7256.554 195.305 195.305" xml:space="preserve"
	>
<g id="Aperature">
</g>
<g id="Apex">
</g>
<g id="Arc">
</g>
<g id="Arm">
</g>
<g id="Ascender">
</g>
<g id="Ascender_Line">
</g>
<g id="Ascender_height">
</g>
<g id="Ascent_Line">
</g>
<g id="Axis">
</g>
<g id="Base_Line">
</g>
<g id="Beak">
</g>
<g id="Bilateral_Serif">
</g>
<g id="Body_Width">
</g>
<g id="Bowl">
</g>
<g id="Bracket">
</g>
<g id="Cap_Height">
</g>
<g id="Charachter_Width">
</g>
<g id="Counter_x28_open_x29_">
</g>
<g id="Counter_x28_closed_x29_">
</g>
<g id="Cross_Stroke_1_">
</g>
<g id="Crotch">
</g>
<g id="Descender">
</g>
<g id="Decent_Line">
</g>
<g id="diacritic">
</g>
<g id="Ear">
</g>
<g id="Eye">
</g>
<g id="Finial">
</g>
<g id="Foot">
</g>
<g id="Hairline_Stroke">
	<polygon fill="#00CCFF" points="-1161.705,-7170.002 -1154.707,-7167.184 -1139.118,-7206.489 -1145.827,-7209.758 	"/>
	<g>
		<path fill="#282828" d="M-1080.651-7121.924c-1.854-0.5-3.582-1.601-5.182-3.305c-1.603-1.702-3.255-4.229-4.957-7.585
			c-1.704-3.354-3.706-7.834-6.008-13.443l-34.097-84.716h-6.459l-39.053,97.784c-0.901,2.103-1.828,3.882-2.779,5.332
			c-0.953,1.453-2.053,2.629-3.304,3.53c-1.253,0.901-2.704,1.603-4.356,2.103c-1.652,0.502-3.631,0.901-5.933,1.202v5.708h36.5
			v-5.708c-4.206,0-7.21-0.525-9.012-1.577c-1.802-1.051-2.704-2.978-2.704-5.783c0-1,0.15-2.302,0.451-3.905
			c0.3-1.601,0.826-3.554,1.577-5.858c0.751-2.303,1.728-5.032,2.929-8.187c1.202-3.154,2.652-6.783,4.356-10.89h40.105
			l6.158,16.222c0.699,1.704,1.277,3.18,1.727,4.431c0.451,1.253,0.8,2.379,1.051,3.379c0.249,1.002,0.425,1.929,0.526,2.779
			c0.099,0.852,0.15,1.779,0.15,2.779c0,2.305-1.002,3.957-3.004,4.957c-2.004,1.002-5.659,1.502-10.965,1.502v5.858h48.967v-5.858
			C-1076.572-7121.173-1078.799-7121.422-1080.651-7121.924z M-1155.679-7164.733l0.972-2.451l-6.998-2.819l15.878-39.756
			l6.709,3.27l1.013-2.555l16.673,44.311H-1155.679z"/>
		<rect x="-1146.913" y="-7207.978" fill="#282828" width="0" height="42.283"/>
	</g>
</g>
<g id="Head_Serif">
</g>
<g id="Joint">
</g>
<g id="Leg">
</g>
<g id="Ligature">
</g>
<g id="Link_x2F_Neck">
</g>
<g id="Loop">
</g>
<g id="Overhang">
</g>
<g id="Serif">
</g>
<g id="Shoulder">
</g>
<g id="Spine">
</g>
<g id="Spur">
</g>
<g id="Stem">
</g>
<g id="Stress">
</g>
<g id="Tail">
</g>
<g id="Tittle">
</g>
<g id="Terminal">
</g>
<g id="Vertex">
</g>
</svg>
