<?xml version="1.0" encoding="utf-8"?>
<!-- Generator: Adobe Illustrator 17.1.0, SVG Export Plug-In . SVG Version: 6.00 Build 0)  -->
<!DOCTYPE svg PUBLIC "-//W3C//DTD SVG 1.1//EN" "http://www.w3.org/Graphics/SVG/1.1/DTD/svg11.dtd">
<svg version="1.1" xmlns="http://www.w3.org/2000/svg" xmlns:xlink="http://www.w3.org/1999/xlink" x="0px" y="0px"
	 viewBox="-2738.158 -7256.554 195.305 195.305" enable-background="new -2738.158 -7256.554 195.305 195.305" xml:space="preserve"
	>
<g id="Aperature">
</g>
<g id="Apex">
</g>
<g id="Arc">
</g>
<g id="Arm">
</g>
<g id="Ascender">
</g>
<g id="Ascender_Line">
</g>
<g id="Ascender_height">
</g>
<g id="Ascent_Line">
</g>
<g id="Axis">
</g>
<g id="Base_Line">
</g>
<g id="Beak">
</g>
<g id="Bilateral_Serif">
</g>
<g id="Body_Width">
</g>
<g id="Bowl">
</g>
<g id="Bracket">
</g>
<g id="Cap_Height">
</g>
<g id="Charachter_Width">
</g>
<g id="Counter_x28_open_x29_">
</g>
<g id="Counter_x28_closed_x29_">
</g>
<g id="Cross_Stroke_1_">
</g>
<g id="Crotch">
</g>
<g id="Descender">
	<path fill="#00CCFF" d="M-2629.766-7115.364v10.263c0,8.311-0.953,14.12-2.854,17.424c-1.904,3.305-5.257,4.957-10.064,4.957
		c-2.504,0-4.356-0.502-5.558-1.502c-1.202-1.002-2.502-3.004-3.905-6.008c-1.502-3.004-2.727-4.934-3.68-5.783
		c-0.951-0.852-2.328-1.276-4.131-1.276c-2.404,0-4.281,0.601-5.633,1.802s-2.028,2.953-2.028,5.257
		c0,4.206,2.028,7.585,6.083,10.139c4.056,2.554,9.289,3.831,15.697,3.831c10.012,0,17.649-3.331,22.906-9.989
		c5.257-6.661,7.886-16.248,7.886-28.765v-0.349H-2629.766z"/>
	<g>
		<path fill="#282828" d="M-2622.706-7217.605c2.603,0,4.806-0.901,6.609-2.704c1.802-1.803,2.704-4.004,2.704-6.609
			c0-2.603-0.901-4.807-2.704-6.609s-4.006-2.704-6.609-2.704c-2.605,0-4.807,0.901-6.609,2.704s-2.704,4.006-2.704,6.609
			c0,2.605,0.901,4.807,2.704,6.609C-2627.513-7218.507-2625.312-7217.605-2622.706-7217.605z"/>
		<path fill="#282828" d="M-2630.818-7179.453c0.399,1.403,0.676,3.98,0.826,7.735c0.15,3.755,0.225,8.538,0.225,14.345v42.009
			h14.72v-81.062l-29.44,5.708v5.257c5.006,0,8.411,0.427,10.214,1.276C-2632.47-7183.333-2631.32-7181.756-2630.818-7179.453z"/>
	</g>
</g>
<g id="Decent_Line">
</g>
<g id="diacritic">
</g>
<g id="Ear">
</g>
<g id="Eye">
</g>
<g id="Finial">
</g>
<g id="Foot">
</g>
<g id="Hairline_Stroke">
</g>
<g id="Head_Serif">
</g>
<g id="Joint">
</g>
<g id="Leg">
</g>
<g id="Ligature">
</g>
<g id="Link_x2F_Neck">
</g>
<g id="Loop">
</g>
<g id="Overhang">
</g>
<g id="Serif">
</g>
<g id="Shoulder">
</g>
<g id="Spine">
</g>
<g id="Spur">
</g>
<g id="Stem">
</g>
<g id="Stress">
</g>
<g id="Tail">
</g>
<g id="Tittle">
</g>
<g id="Terminal">
</g>
<g id="Vertex">
</g>
</svg>
