<?xml version="1.0" encoding="utf-8"?>
<!-- Generator: Adobe Illustrator 17.1.0, SVG Export Plug-In . SVG Version: 6.00 Build 0)  -->
<!DOCTYPE svg PUBLIC "-//W3C//DTD SVG 1.1//EN" "http://www.w3.org/Graphics/SVG/1.1/DTD/svg11.dtd">
<svg version="1.1" xmlns="http://www.w3.org/2000/svg" xmlns:xlink="http://www.w3.org/1999/xlink" x="0px" y="0px"
	 viewBox="-2953.463 -7256.554 195.305 195.305" enable-background="new -2953.463 -7256.554 195.305 195.305" xml:space="preserve"
	>
<g id="Aperature">
</g>
<g id="Apex">
</g>
<g id="Arc">
</g>
<g id="Arm">
</g>
<g id="Ascender">
</g>
<g id="Ascender_Line">
</g>
<g id="Ascender_height">
</g>
<g id="Ascent_Line">
</g>
<g id="Axis">
</g>
<g id="Base_Line">
</g>
<g id="Beak">
</g>
<g id="Bilateral_Serif">
</g>
<g id="Body_Width">
</g>
<g id="Bowl">
</g>
<g id="Bracket">
</g>
<g id="Cap_Height">
</g>
<g id="Charachter_Width">
</g>
<g id="Counter_x28_open_x29_">
</g>
<g id="Counter_x28_closed_x29_">
</g>
<g id="Cross_Stroke_1_">
</g>
<g id="Crotch">
	<g>
		<path fill="#282828" d="M-2868.728-7169.99c-1.202-2.903-2.204-5.757-3.004-8.562c-0.803-2.802-1.202-4.855-1.202-6.158
			c0-3.305,3.354-4.957,10.064-4.957v-5.257h-39.805v5.257c2.002,0.202,3.654,0.477,4.957,0.826c1.3,0.352,2.479,1.002,3.53,1.953
			c1.051,0.953,2.051,2.253,3.004,3.906c0.951,1.652,2.077,3.882,3.38,6.684l14.637,31.79h14.977L-2868.728-7169.99z"/>
		<path fill="#282828" d="M-2858.965-7113.663l-5.257,10.514c-0.901,1.901-1.828,3.504-2.779,4.807
			c-0.953,1.3-2.028,2.377-3.229,3.229c-1.202,0.85-2.553,1.551-4.056,2.103c-1.502,0.549-3.304,0.976-5.407,1.277
			c-4.708,0.8-7.937,1.776-9.688,2.929c-1.753,1.15-2.629,2.979-2.629,5.482c0,4.706,3.155,7.06,9.463,7.06
			c9.712,0,16.872-5.159,21.479-15.471l10.6-23.583h-9.258L-2858.965-7113.663z"/>
		<path fill="#282828" d="M-2841.992-7194.924v5.257c4.105,0,6.884,0.451,8.336,1.352c1.45,0.901,2.178,2.654,2.178,5.257
			c0,0.802-0.075,1.652-0.225,2.553c-0.15,0.901-0.451,2.028-0.901,3.38c-0.45,1.352-1.103,3.079-1.953,5.182
			c-0.852,2.103-1.929,4.807-3.229,8.111l-7.815,19.323h8.255l9.023-20.074c2.403-5.607,4.431-10.063,6.083-13.368
			c1.653-3.305,3.155-5.833,4.506-7.585c1.352-1.751,2.678-2.877,3.98-3.379c1.3-0.5,2.903-0.751,4.806-0.751v-5.257H-2841.992z"/>
	</g>
	<polygon fill="#00CCFF" points="-2845.601,-7144.509 -2851.455,-7130.036 -2852.206,-7130.036 -2858.191,-7144.509 
		-2873.167,-7144.509 -2859.748,-7115.364 -2850.446,-7115.364 -2837.346,-7144.509 	"/>
</g>
<g id="Descender">
</g>
<g id="Decent_Line">
</g>
<g id="diacritic">
</g>
<g id="Ear">
</g>
<g id="Eye">
</g>
<g id="Finial">
</g>
<g id="Foot">
</g>
<g id="Hairline_Stroke">
</g>
<g id="Head_Serif">
</g>
<g id="Joint">
</g>
<g id="Leg">
</g>
<g id="Ligature">
</g>
<g id="Link_x2F_Neck">
</g>
<g id="Loop">
</g>
<g id="Overhang">
</g>
<g id="Serif">
</g>
<g id="Shoulder">
</g>
<g id="Spine">
</g>
<g id="Spur">
</g>
<g id="Stem">
</g>
<g id="Stress">
</g>
<g id="Tail">
</g>
<g id="Tittle">
</g>
<g id="Terminal">
</g>
<g id="Vertex">
</g>
</svg>
