<?xml version="1.0" encoding="utf-8"?>
<!-- Generator: Adobe Illustrator 17.1.0, SVG Export Plug-In . SVG Version: 6.00 Build 0)  -->
<!DOCTYPE svg PUBLIC "-//W3C//DTD SVG 1.1//EN" "http://www.w3.org/Graphics/SVG/1.1/DTD/svg11.dtd">
<svg version="1.1" xmlns="http://www.w3.org/2000/svg" xmlns:xlink="http://www.w3.org/1999/xlink" x="0px" y="0px"
	 viewBox="-800.417 -7256.554 195.305 195.305" enable-background="new -800.417 -7256.554 195.305 195.305" xml:space="preserve">
<g id="Aperature">
</g>
<g id="Apex">
</g>
<g id="Arc">
</g>
<g id="Arm">
</g>
<g id="Ascender">
</g>
<g id="Ascender_Line">
</g>
<g id="Ascender_height">
</g>
<g id="Ascent_Line">
</g>
<g id="Axis">
</g>
<g id="Base_Line">
</g>
<g id="Beak">
</g>
<g id="Bilateral_Serif">
</g>
<g id="Body_Width">
</g>
<g id="Bowl">
</g>
<g id="Bracket">
</g>
<g id="Cap_Height">
</g>
<g id="Charachter_Width">
</g>
<g id="Counter_x28_open_x29_">
</g>
<g id="Counter_x28_closed_x29_">
</g>
<g id="Cross_Stroke_1_">
</g>
<g id="Crotch">
</g>
<g id="Descender">
</g>
<g id="Decent_Line">
</g>
<g id="diacritic">
</g>
<g id="Ear">
</g>
<g id="Eye">
</g>
<g id="Finial">
</g>
<g id="Foot">
</g>
<g id="Hairline_Stroke">
</g>
<g id="Head_Serif">
</g>
<g id="Joint">
	<path fill="#00CCFF" d="M-723.417-7239.986l-27.638,5.708v5.107c2.201,0,4.056,0.101,5.558,0.3
		c1.502,0.202,2.704,0.526,3.605,0.977c0.901,0.451,1.577,1.051,2.028,1.802c0.451,0.751,0.775,1.728,0.976,2.929
		c0.261,1.178,0.469,2.721,0.624,4.625h14.847V-7239.986z"/>
	<path fill="#282828" d="M-661.232-7121.474c-1.603-0.399-2.831-1.251-3.68-2.553c-0.852-1.3-1.378-3.128-1.577-5.482
		c-0.202-2.352-0.3-5.582-0.3-9.688v-24.033c0-6.407-0.401-11.491-1.202-15.246c-0.803-3.755-2.054-6.783-3.755-9.087
		c-2.103-2.704-5.084-4.856-8.937-6.459c-3.856-1.601-8.088-2.403-12.692-2.403c-2.704,0-5.482,0.352-8.336,1.051
		c-2.854,0.702-5.583,1.652-8.186,2.854c-2.605,1.201-5.032,2.628-7.285,4.281c-2.253,1.652-4.131,3.48-5.633,5.482h-0.601v-35.78
		h-14.847c0.082,1.011,0.15,2.121,0.202,3.335c0.15,3.506,0.225,8.212,0.225,14.119v62.937c0,3.807-0.127,6.834-0.375,9.087
		c-0.251,2.253-0.826,3.98-1.727,5.182c-0.901,1.202-2.204,2.004-3.905,2.403c-1.704,0.401-4.006,0.702-6.909,0.901v5.257h39.955
		v-5.257c-2.905-0.199-5.159-0.5-6.759-0.901c-1.603-0.399-2.83-1.225-3.68-2.478c-0.852-1.251-1.378-3.08-1.577-5.483
		c-0.202-2.403-0.3-5.656-0.3-9.763v-19.226c0-2.303,0.023-4.229,0.075-5.783c0.049-1.551,0.174-2.929,0.375-4.13
		c0.2-1.202,0.474-2.277,0.826-3.229c0.35-0.951,0.775-1.976,1.277-3.079c2.202-4.206,5.231-7.511,9.087-9.914
		c3.854-2.403,8.135-3.605,12.843-3.605c6.107,0,10.463,2.379,13.068,7.135c2.603,4.757,3.905,12.744,3.905,23.958v18.926
		c0,3.807-0.127,6.834-0.376,9.087c-0.251,2.253-0.803,3.98-1.652,5.182c-0.852,1.202-2.129,2.028-3.83,2.478
		c-1.704,0.451-3.957,0.728-6.759,0.826v5.257h39.805v-5.257C-657.378-7120.772-659.632-7121.073-661.232-7121.474z"/>
</g>
<g id="Leg">
</g>
<g id="Ligature">
</g>
<g id="Link_x2F_Neck">
</g>
<g id="Loop">
</g>
<g id="Overhang">
</g>
<g id="Serif">
</g>
<g id="Shoulder">
</g>
<g id="Spine">
</g>
<g id="Spur">
</g>
<g id="Stem">
</g>
<g id="Stress">
</g>
<g id="Tail">
</g>
<g id="Tittle">
</g>
<g id="Terminal">
</g>
<g id="Vertex">
</g>
</svg>
