<?xml version="1.0" encoding="utf-8"?>
<!-- Generator: Adobe Illustrator 17.1.0, SVG Export Plug-In . SVG Version: 6.00 Build 0)  -->
<!DOCTYPE svg PUBLIC "-//W3C//DTD SVG 1.1//EN" "http://www.w3.org/Graphics/SVG/1.1/DTD/svg11.dtd">
<svg version="1.1" xmlns="http://www.w3.org/2000/svg" xmlns:xlink="http://www.w3.org/1999/xlink" x="0px" y="0px"
	 viewBox="-7044.25 -7256.554 195.305 195.305" enable-background="new -7044.25 -7256.554 195.305 195.305" xml:space="preserve">
<g id="Aperature">
</g>
<g id="Apex">
	<polygon fill="#00CCFF" points="-6936.718,-7212.583 -6944.119,-7230.974 -6950.578,-7230.974 -6957.923,-7212.583 	"/>
	<path fill="#282828" d="M-6893.875-7121.924c-1.854-0.5-3.582-1.601-5.182-3.305c-1.603-1.701-3.255-4.229-4.957-7.585
		c-1.704-3.354-3.706-7.834-6.008-13.443l-26.695-66.326h-21.205l-31.709,79.394c-0.901,2.103-1.828,3.882-2.779,5.332
		c-0.953,1.453-2.053,2.629-3.304,3.53c-1.253,0.901-2.704,1.603-4.356,2.103c-1.652,0.502-3.631,0.902-5.933,1.202v5.708h36.5
		v-5.708c-4.206,0-7.21-0.526-9.013-1.577c-1.802-1.052-2.704-2.979-2.704-5.783c0-1,0.15-2.302,0.451-3.905
		c0.3-1.601,0.826-3.553,1.577-5.858c0.751-2.303,1.728-5.032,2.929-8.187c1.202-3.154,2.652-6.783,4.356-10.89h40.105l6.158,16.222
		c0.7,1.704,1.277,3.18,1.728,4.431c0.45,1.253,0.8,2.38,1.051,3.379c0.249,1.002,0.425,1.93,0.526,2.779
		c0.099,0.852,0.15,1.779,0.15,2.778c0,2.305-1.002,3.957-3.004,4.957c-2.004,1.002-5.659,1.502-10.965,1.502v5.858h48.967v-5.858
		C-6889.796-7121.173-6892.024-7121.422-6893.875-7121.924z M-6968.903-7164.733l17.574-44.311l16.673,44.311H-6968.903z"/>
</g>
<g id="Arc">
</g>
<g id="Arm">
</g>
<g id="Ascender">
</g>
<g id="Ascender_Line">
</g>
<g id="Ascender_height">
</g>
<g id="Ascent_Line">
</g>
<g id="Axis">
</g>
<g id="Base_Line">
</g>
<g id="Beak">
</g>
<g id="Bilateral_Serif">
</g>
<g id="Body_Width">
</g>
<g id="Bowl">
</g>
<g id="Bracket">
</g>
<g id="Cap_Height">
</g>
<g id="Charachter_Width">
</g>
<g id="Counter_x28_open_x29_">
</g>
<g id="Counter_x28_closed_x29_">
</g>
<g id="Cross_Stroke_1_">
</g>
<g id="Crotch">
</g>
<g id="Descender">
</g>
<g id="Decent_Line">
</g>
<g id="diacritic">
</g>
<g id="Ear">
</g>
<g id="Eye">
</g>
<g id="Finial">
</g>
<g id="Foot">
</g>
<g id="Hairline_Stroke">
</g>
<g id="Head_Serif">
</g>
<g id="Joint">
</g>
<g id="Leg">
</g>
<g id="Ligature">
</g>
<g id="Link_x2F_Neck">
</g>
<g id="Loop">
</g>
<g id="Overhang">
</g>
<g id="Serif">
</g>
<g id="Shoulder">
</g>
<g id="Spine">
</g>
<g id="Spur">
</g>
<g id="Stem">
</g>
<g id="Stress">
</g>
<g id="Tail">
</g>
<g id="Tittle">
</g>
<g id="Terminal">
</g>
<g id="Vertex">
</g>
</svg>
