<?xml version="1.0" encoding="utf-8"?>
<!-- Generator: Adobe Illustrator 17.1.0, SVG Export Plug-In . SVG Version: 6.00 Build 0)  -->
<!DOCTYPE svg PUBLIC "-//W3C//DTD SVG 1.1//EN" "http://www.w3.org/Graphics/SVG/1.1/DTD/svg11.dtd">
<svg version="1.1" xmlns="http://www.w3.org/2000/svg" xmlns:xlink="http://www.w3.org/1999/xlink" x="0px" y="0px"
	 viewBox="-6613.641 -7256.554 195.305 195.305" enable-background="new -6613.641 -7256.554 195.305 195.305" xml:space="preserve"
	>
<g id="Aperature">
</g>
<g id="Apex">
</g>
<g id="Arc">
</g>
<g id="Arm">
	<path fill="#00CCFF" d="M-6573.442-7202.285h5.558c0.099-5.306,0.901-9.463,2.403-12.467c1.502-3.004,3.478-5.231,5.933-6.684
		c2.453-1.451,5.355-2.329,8.712-2.628c3.354-0.301,6.984-0.451,10.89-0.451c3.203,0,5.757,0.075,7.66,0.226
		c1.901,0.15,3.38,0.427,4.431,0.826c1.051,0.401,1.75,0.877,2.103,1.427c0.35,0.552,0.525,1.277,0.525,2.178v-11.115h-48.216
		V-7202.285z"/>
	<path fill="#282828" d="M-6460.037-7230.974h-65.189v11.115v30.815v49.545c0,3.206-0.225,5.959-0.676,8.261
		c-0.451,2.305-1.352,4.182-2.704,5.633c-1.352,1.453-3.331,2.553-5.933,3.304c-2.605,0.751-6.008,1.178-10.214,1.277v5.708h56.777
		v-5.708c-4.206-0.099-7.585-0.525-10.139-1.277c-2.554-0.751-4.506-1.852-5.858-3.304c-1.352-1.451-2.253-3.328-2.704-5.633
		c-0.451-2.302-0.676-5.055-0.676-8.261v-80.36c0-0.901,0.174-1.626,0.526-2.178c0.35-0.549,1.126-1.025,2.328-1.427
		c1.202-0.399,2.929-0.676,5.182-0.826s5.231-0.226,8.938-0.226c4.304,0,8.01,0.352,11.115,1.052
		c3.103,0.702,5.682,1.877,7.736,3.53c2.051,1.652,3.628,3.931,4.731,6.834c1.101,2.905,1.803,6.51,2.103,10.814h6.158
		L-6460.037-7230.974z"/>
</g>
<g id="Ascender">
</g>
<g id="Ascender_Line">
</g>
<g id="Ascender_height">
</g>
<g id="Ascent_Line">
</g>
<g id="Axis">
</g>
<g id="Base_Line">
</g>
<g id="Beak">
</g>
<g id="Bilateral_Serif">
</g>
<g id="Body_Width">
</g>
<g id="Bowl">
</g>
<g id="Bracket">
</g>
<g id="Cap_Height">
</g>
<g id="Charachter_Width">
</g>
<g id="Counter_x28_open_x29_">
</g>
<g id="Counter_x28_closed_x29_">
</g>
<g id="Cross_Stroke_1_">
</g>
<g id="Crotch">
</g>
<g id="Descender">
</g>
<g id="Decent_Line">
</g>
<g id="diacritic">
</g>
<g id="Ear">
</g>
<g id="Eye">
</g>
<g id="Finial">
</g>
<g id="Foot">
</g>
<g id="Hairline_Stroke">
</g>
<g id="Head_Serif">
</g>
<g id="Joint">
</g>
<g id="Leg">
</g>
<g id="Ligature">
</g>
<g id="Link_x2F_Neck">
</g>
<g id="Loop">
</g>
<g id="Overhang">
</g>
<g id="Serif">
</g>
<g id="Shoulder">
</g>
<g id="Spine">
</g>
<g id="Spur">
</g>
<g id="Stem">
</g>
<g id="Stress">
</g>
<g id="Tail">
</g>
<g id="Tittle">
</g>
<g id="Terminal">
</g>
<g id="Vertex">
</g>
</svg>
