<?xml version="1.0" encoding="utf-8"?>
<!-- Generator: Adobe Illustrator 17.1.0, SVG Export Plug-In . SVG Version: 6.00 Build 0)  -->
<!DOCTYPE svg PUBLIC "-//W3C//DTD SVG 1.1//EN" "http://www.w3.org/Graphics/SVG/1.1/DTD/svg11.dtd">
<svg version="1.1" xmlns="http://www.w3.org/2000/svg" xmlns:xlink="http://www.w3.org/1999/xlink" x="0px" y="0px"
	 viewBox="-4460.595 -7256.554 195.305 195.305" enable-background="new -4460.595 -7256.554 195.305 195.305" xml:space="preserve"
	>
<g id="Aperature">
</g>
<g id="Apex">
</g>
<g id="Arc">
</g>
<g id="Arm">
</g>
<g id="Ascender">
</g>
<g id="Ascender_Line">
</g>
<g id="Ascender_height">
</g>
<g id="Ascent_Line">
</g>
<g id="Axis">
</g>
<g id="Base_Line">
</g>
<g id="Beak">
</g>
<g id="Bilateral_Serif">
</g>
<g id="Body_Width">
</g>
<g id="Bowl">
	<path fill="#00CCFF" d="M-4378.489-7172.619c0.65-2.753,1.626-5.131,2.929-7.135c2.002-3.004,4.529-5.332,7.585-6.984
		c3.054-1.652,6.384-2.478,9.989-2.478c3.605,0,6.884,0.852,9.838,2.553c2.953,1.704,5.482,4.082,7.585,7.135
		c2.103,3.056,3.729,6.71,4.882,10.965c1.15,4.257,1.728,8.989,1.728,14.195c0,10.514-2.129,18.677-6.384,24.483
		c-4.257,5.809-9.838,8.712-16.748,8.712c-3.506,0-6.86-0.875-10.063-2.629c-3.206-1.75-5.959-4.229-8.262-7.435
		c-0.802-1-1.453-2.051-1.953-3.154c-0.502-1.101-0.901-2.352-1.201-3.755c-0.301-1.401-0.526-3.08-0.676-5.032
		c-0.15-1.953-0.226-4.281-0.226-6.984v26.436c3.305,3.506,6.834,6.034,10.59,7.585c3.755,1.551,7.935,2.328,12.542,2.328
		c5.607,0,10.815-1.002,15.622-3.004s8.961-4.807,12.467-8.412c3.504-3.605,6.257-7.935,8.261-12.993
		c2.002-5.056,3.004-10.639,3.004-16.748c0-6.008-0.977-11.54-2.929-16.598c-1.953-5.055-4.682-9.437-8.186-13.143
		c-3.506-3.703-7.637-6.583-12.392-8.637c-4.757-2.051-9.989-3.079-15.696-3.079c-4.907,0-9.214,1.103-12.918,3.305
		c-3.706,2.203-7.16,5.208-10.364,9.012v22.23C-4379.465-7166.284-4379.141-7169.864-4378.489-7172.619z"/>
	<path fill="#282828" d="M-4376.461-7086.626c-1.202-1.303-2.004-3.154-2.403-5.558c-0.401-2.403-0.601-5.609-0.601-9.613v-6.431
		v-15.499v-26.436v-11.716v-22.23h-0.601v-11.716l-28.84,5.708v5.107c5.006,0,8.412,0.427,10.214,1.277
		c1.802,0.852,2.953,2.478,3.455,4.881c0.399,1.404,0.676,3.957,0.826,7.661c0.15,3.706,0.226,8.463,0.226,14.27v56.177
		c0,3.605-0.202,6.534-0.601,8.787c-0.401,2.253-1.126,4.03-2.178,5.333c-1.051,1.3-2.504,2.201-4.356,2.704
		c-1.854,0.5-4.281,0.8-7.285,0.901v5.257h46.264v-5.257c-3.706-0.101-6.685-0.401-8.938-0.901
		C-4373.532-7084.425-4375.259-7085.326-4376.461-7086.626z"/>
</g>
<g id="Bracket">
</g>
<g id="Cap_Height">
</g>
<g id="Charachter_Width">
</g>
<g id="Counter_x28_open_x29_">
</g>
<g id="Counter_x28_closed_x29_">
</g>
<g id="Cross_Stroke_1_">
</g>
<g id="Crotch">
</g>
<g id="Descender">
</g>
<g id="Decent_Line">
</g>
<g id="diacritic">
</g>
<g id="Ear">
</g>
<g id="Eye">
</g>
<g id="Finial">
</g>
<g id="Foot">
</g>
<g id="Hairline_Stroke">
</g>
<g id="Head_Serif">
</g>
<g id="Joint">
</g>
<g id="Leg">
</g>
<g id="Ligature">
</g>
<g id="Link_x2F_Neck">
</g>
<g id="Loop">
</g>
<g id="Overhang">
</g>
<g id="Serif">
</g>
<g id="Shoulder">
</g>
<g id="Spine">
</g>
<g id="Spur">
</g>
<g id="Stem">
</g>
<g id="Stress">
</g>
<g id="Tail">
</g>
<g id="Tittle">
</g>
<g id="Terminal">
</g>
<g id="Vertex">
</g>
</svg>
