<?xml version="1.0" encoding="utf-8"?>
<!-- Generator: Adobe Illustrator 17.1.0, SVG Export Plug-In . SVG Version: 6.00 Build 0)  -->
<!DOCTYPE svg PUBLIC "-//W3C//DTD SVG 1.1//EN" "http://www.w3.org/Graphics/SVG/1.1/DTD/svg11.dtd">
<svg version="1.1" xmlns="http://www.w3.org/2000/svg" xmlns:xlink="http://www.w3.org/1999/xlink" x="0px" y="0px"
	 viewBox="1567.934 -7256.554 195.305 195.305" enable-background="new 1567.934 -7256.554 195.305 195.305" xml:space="preserve">
<g id="Aperature">
</g>
<g id="Apex">
</g>
<g id="Arc">
</g>
<g id="Arm">
</g>
<g id="Ascender">
</g>
<g id="Ascender_Line">
</g>
<g id="Ascender_height">
</g>
<g id="Ascent_Line">
</g>
<g id="Axis">
</g>
<g id="Base_Line">
</g>
<g id="Beak">
</g>
<g id="Bilateral_Serif">
</g>
<g id="Body_Width">
</g>
<g id="Bowl">
</g>
<g id="Bracket">
</g>
<g id="Cap_Height">
</g>
<g id="Charachter_Width">
</g>
<g id="Counter_x28_open_x29_">
</g>
<g id="Counter_x28_closed_x29_">
</g>
<g id="Cross_Stroke_1_">
</g>
<g id="Crotch">
</g>
<g id="Descender">
</g>
<g id="Decent_Line">
</g>
<g id="diacritic">
</g>
<g id="Ear">
</g>
<g id="Eye">
</g>
<g id="Finial">
</g>
<g id="Foot">
</g>
<g id="Hairline_Stroke">
</g>
<g id="Head_Serif">
</g>
<g id="Joint">
</g>
<g id="Leg">
</g>
<g id="Ligature">
</g>
<g id="Link_x2F_Neck">
</g>
<g id="Loop">
</g>
<g id="Overhang">
</g>
<g id="Serif">
</g>
<g id="Shoulder">
</g>
<g id="Spine">
</g>
<g id="Spur">
</g>
<g id="Stem">
</g>
<g id="Stress">
	<path fill="#00CCFF" d="M1700.434-7184.71c-3.507-3.704-7.637-6.583-12.392-8.637c-4.757-2.051-9.989-3.079-15.696-3.079
		c-4.907,0-9.214,1.103-12.918,3.304c-0.718,0.427-1.426,0.885-2.125,1.372v7.187c1.008-0.822,2.091-1.547,3.251-2.174
		c3.053-1.652,6.384-2.479,9.989-2.479c3.605,0,6.884,0.852,9.838,2.554c2.953,1.704,5.483,4.081,7.585,7.135
		c2.103,3.056,3.729,6.71,4.882,10.965c1.15,4.257,1.728,8.989,1.728,14.194c0,10.515-2.129,18.677-6.384,24.484
		c-4.257,5.809-9.839,8.712-16.748,8.712c-3.506,0-6.86-0.875-10.064-2.629c-1.453-0.793-2.811-1.737-4.078-2.829v9.373
		c0.774,0.415,1.557,0.789,2.35,1.117c3.755,1.551,7.935,2.328,12.542,2.328c5.607,0,10.815-1.002,15.622-3.004
		c4.806-2.002,8.961-4.807,12.467-8.412c3.504-3.605,6.257-7.935,8.261-12.993c2.002-5.056,3.004-10.639,3.004-16.748
		c0-6.008-0.976-11.54-2.929-16.598C1706.667-7176.623,1703.938-7181.005,1700.434-7184.71z"/>
	<g>
		<path fill="#282828" d="M1653.119-7131.237c-0.803-1-1.453-2.051-1.953-3.154c-0.502-1.101-0.901-2.352-1.202-3.755
			c-0.3-1.401-0.526-3.08-0.676-5.032s-0.225-4.281-0.225-6.984v-11.716c0-4.405,0.324-7.984,0.976-10.739
			c0.65-2.753,1.626-5.131,2.929-7.135c1.242-1.864,2.687-3.466,4.334-4.81v-7.187c-2.91,2.027-5.656,4.573-8.239,7.641h-0.601
			v-11.716l-28.839,5.708v5.106c5.006,0,8.411,0.428,10.214,1.277c1.802,0.852,2.952,2.478,3.455,4.881
			c0.399,1.403,0.676,3.957,0.826,7.661c0.15,3.706,0.225,8.463,0.225,14.27v56.177c0,3.605-0.202,6.534-0.601,8.787
			c-0.401,2.253-1.126,4.03-2.178,5.333c-1.051,1.3-2.504,2.201-4.356,2.704c-1.854,0.5-4.281,0.8-7.285,0.901v5.257h46.263v-5.257
			c-3.706-0.101-6.684-0.401-8.937-0.901c-2.253-0.502-3.98-1.403-5.182-2.704c-1.202-1.303-2.004-3.154-2.403-5.558
			c-0.401-2.403-0.601-5.609-0.601-9.613v-21.93c2.606,2.766,5.353,4.919,8.239,6.468v-9.373
			C1655.773-7127.95,1654.378-7129.484,1653.119-7131.237z"/>
	</g>
</g>
<g id="Tail">
</g>
<g id="Tittle">
</g>
<g id="Terminal">
</g>
<g id="Vertex">
</g>
</svg>
