<?xml version="1.0" encoding="utf-8"?>
<!-- Generator: Adobe Illustrator 17.1.0, SVG Export Plug-In . SVG Version: 6.00 Build 0)  -->
<!DOCTYPE svg PUBLIC "-//W3C//DTD SVG 1.1//EN" "http://www.w3.org/Graphics/SVG/1.1/DTD/svg11.dtd">
<svg version="1.1" xmlns="http://www.w3.org/2000/svg" xmlns:xlink="http://www.w3.org/1999/xlink" x="0px" y="0px"
	 viewBox="-1015.721 -7256.554 195.305 195.305" enable-background="new -1015.721 -7256.554 195.305 195.305" xml:space="preserve"
	>
<g id="Aperature">
</g>
<g id="Apex">
</g>
<g id="Arc">
</g>
<g id="Arm">
</g>
<g id="Ascender">
</g>
<g id="Ascender_Line">
</g>
<g id="Ascender_height">
</g>
<g id="Ascent_Line">
</g>
<g id="Axis">
</g>
<g id="Base_Line">
</g>
<g id="Beak">
</g>
<g id="Bilateral_Serif">
</g>
<g id="Body_Width">
</g>
<g id="Bowl">
</g>
<g id="Bracket">
</g>
<g id="Cap_Height">
</g>
<g id="Charachter_Width">
</g>
<g id="Counter_x28_open_x29_">
</g>
<g id="Counter_x28_closed_x29_">
</g>
<g id="Cross_Stroke_1_">
</g>
<g id="Crotch">
</g>
<g id="Descender">
</g>
<g id="Decent_Line">
</g>
<g id="diacritic">
</g>
<g id="Ear">
</g>
<g id="Eye">
</g>
<g id="Finial">
</g>
<g id="Foot">
</g>
<g id="Hairline_Stroke">
</g>
<g id="Head_Serif">
	<g>
		<path fill="#00CCFF" d="M-937.971-7194.924h-27.187v5.257c2.903,0.301,5.182,0.676,6.834,1.126
			c1.652,0.451,2.903,1.303,3.755,2.554c0.85,1.253,1.375,3.056,1.577,5.407c0.128,1.507,0.215,3.375,0.261,5.6h14.759V-7194.924z"
			/>
		<path fill="#00CCFF" d="M-884.047-7194.924h-27.187v5.257c2.903,0.301,5.182,0.676,6.834,1.126
			c1.652,0.451,2.903,1.303,3.755,2.554c0.85,1.253,1.375,3.056,1.577,5.407c0.128,1.507,0.215,3.375,0.261,5.6h14.76V-7194.924z"/>
	</g>
	<path fill="#282828" d="M-880.142-7121.849c-0.901-0.451-1.577-1.052-2.028-1.803c-0.451-0.751-0.777-1.777-0.976-3.079
		c-0.3-1.803-0.526-4.506-0.676-8.111c-0.15-3.605-0.225-8.261-0.225-13.969v-26.168h-14.76c0.026,1.25,0.039,2.612,0.039,4.088
		v14.72c0,2.103-0.052,3.905-0.15,5.407c-0.101,1.502-0.251,2.854-0.451,4.056c-0.202,1.202-0.451,2.305-0.751,3.305
		c-0.3,1.002-0.702,2.103-1.202,3.304c-4.907,11.517-11.768,17.274-20.578,17.274c-5.609,0-9.688-2.453-12.242-7.36
		c-2.553-4.905-3.83-12.816-3.83-23.732v-21.062h-14.759c0.026,1.25,0.039,2.612,0.039,4.088v23.883
		c0,6.21,0.375,11.265,1.127,15.171c0.751,3.905,1.976,6.961,3.68,9.163c2.002,2.704,4.98,4.858,8.937,6.458
		c3.955,1.601,8.036,2.403,12.242,2.403c5.407,0,10.589-1.427,15.546-4.281s9.336-7.383,13.143-13.594h0.601l1.652,18.025
		l24.784-1.803v-5.257c-2.305,0-4.182-0.075-5.633-0.226C-878.065-7121.098-879.241-7121.399-880.142-7121.849z"/>
</g>
<g id="Joint">
</g>
<g id="Leg">
</g>
<g id="Ligature">
</g>
<g id="Link_x2F_Neck">
</g>
<g id="Loop">
</g>
<g id="Overhang">
</g>
<g id="Serif">
</g>
<g id="Shoulder">
</g>
<g id="Spine">
</g>
<g id="Spur">
</g>
<g id="Stem">
</g>
<g id="Stress">
</g>
<g id="Tail">
</g>
<g id="Tittle">
</g>
<g id="Terminal">
</g>
<g id="Vertex">
</g>
</svg>
