<?xml version="1.0" encoding="utf-8"?>
<!-- Generator: Adobe Illustrator 17.1.0, SVG Export Plug-In . SVG Version: 6.00 Build 0)  -->
<!DOCTYPE svg PUBLIC "-//W3C//DTD SVG 1.1//EN" "http://www.w3.org/Graphics/SVG/1.1/DTD/svg11.dtd">
<svg version="1.1" xmlns="http://www.w3.org/2000/svg" xmlns:xlink="http://www.w3.org/1999/xlink" x="0px" y="0px"
	 viewBox="-5537.118 -7256.554 195.305 195.305" enable-background="new -5537.118 -7256.554 195.305 195.305" xml:space="preserve"
	>
<g id="Aperature">
</g>
<g id="Apex">
</g>
<g id="Arc">
</g>
<g id="Arm">
</g>
<g id="Ascender">
</g>
<g id="Ascender_Line">
</g>
<g id="Ascender_height">
</g>
<g id="Ascent_Line">
</g>
<g id="Axis">
	<g>
		<path fill="#282828" d="M-5439.766-7196.426c5.708,0,11.115,1.028,16.222,3.079c5.107,2.054,9.587,4.881,13.443,8.487
			c3.854,3.604,6.909,7.885,9.163,12.842c2.253,4.957,3.379,10.39,3.379,16.297c0,6.109-1.126,11.716-3.379,16.823
			c-2.253,5.107-5.309,9.515-9.163,13.218c-3.856,3.706-8.336,6.609-13.443,8.712c-5.107,2.103-10.515,3.154-16.222,3.154
			c-5.609,0-10.942-1.028-15.997-3.079c-5.058-2.051-9.489-4.931-13.293-8.637c-3.807-3.704-6.811-8.135-9.013-13.293
			c-2.204-5.156-3.304-10.789-3.304-16.898c0-5.907,1.101-11.364,3.304-16.373c2.202-5.006,5.206-9.312,9.013-12.917
			c3.804-3.605,8.235-6.407,13.293-8.412C-5450.708-7195.424-5445.375-7196.426-5439.766-7196.426z M-5439.766-7189.216
			c-3.706,0-7.085,0.803-10.139,2.403c-3.056,1.603-5.658,3.882-7.811,6.834c-2.155,2.955-3.807,6.511-4.957,10.665
			c-1.152,4.157-1.727,8.738-1.727,13.744c0,5.208,0.575,9.913,1.727,14.119c1.15,4.206,2.802,7.787,4.957,10.74
			c2.152,2.955,4.731,5.234,7.735,6.834c3.004,1.603,6.407,2.403,10.214,2.403c3.804,0,7.259-0.8,10.364-2.403
			c3.103-1.601,5.757-3.906,7.961-6.91c2.202-3.004,3.906-6.609,5.107-10.815c1.202-4.206,1.803-8.862,1.803-13.969
			c0-5.006-0.601-9.562-1.803-13.669c-1.201-4.104-2.905-7.635-5.107-10.589c-2.204-2.953-4.858-5.257-7.961-6.91
			C-5432.506-7188.391-5435.961-7189.216-5439.766-7189.216z"/>
	</g>
	<g>
		<g>
			
				<rect x="-5445.143" y="-7206.484" transform="matrix(0.1027 0.9947 -0.9947 0.1027 -12052.6553 -1049.3793)" fill="#FF6950" width="0.977" height="1.953"/>
		</g>
		<g>
			<path fill="#FF6950" d="M-5435.5-7107.157l-0.201-1.956l1.943-0.2l0.202,1.956L-5435.5-7107.157z M-5435.903-7111.068
				l-0.202-1.955l1.943-0.201l0.202,1.956L-5435.903-7111.068z M-5436.306-7114.979l-0.202-1.955l1.943-0.201l0.202,1.956
				L-5436.306-7114.979z M-5436.709-7118.889l-0.201-1.955l1.943-0.2l0.201,1.955L-5436.709-7118.889z M-5437.112-7122.8
				l-0.202-1.955l1.943-0.2l0.202,1.955L-5437.112-7122.8z M-5437.515-7126.71l-0.201-1.956l1.943-0.2l0.201,1.955
				L-5437.515-7126.71z M-5437.918-7130.621l-0.202-1.956l1.943-0.2l0.202,1.956L-5437.918-7130.621z M-5438.321-7134.531
				l-0.201-1.956l1.943-0.2l0.202,1.956L-5438.321-7134.531z M-5438.724-7138.442l-0.202-1.956l1.943-0.2l0.201,1.956
				L-5438.724-7138.442z M-5439.127-7142.353l-0.202-1.955l1.943-0.2l0.202,1.955L-5439.127-7142.353z M-5439.53-7146.263
				l-0.202-1.955l1.943-0.2l0.202,1.955L-5439.53-7146.263z M-5439.933-7150.174l-0.202-1.955l1.943-0.2l0.201,1.955
				L-5439.933-7150.174z M-5440.336-7154.084l-0.201-1.955l1.943-0.2l0.202,1.955L-5440.336-7154.084z M-5440.739-7157.995
				l-0.201-1.956l1.943-0.2l0.201,1.955L-5440.739-7157.995z M-5441.142-7161.905l-0.202-1.956l1.943-0.2l0.202,1.956
				L-5441.142-7161.905z M-5441.545-7165.816l-0.201-1.956l1.943-0.2l0.201,1.956L-5441.545-7165.816z M-5441.948-7169.727
				l-0.202-1.955l1.943-0.201l0.202,1.956L-5441.948-7169.727z M-5442.351-7173.637l-0.202-1.955l1.943-0.2l0.202,1.955
				L-5442.351-7173.637z M-5442.754-7177.548l-0.202-1.955l1.943-0.2l0.202,1.955L-5442.754-7177.548z M-5443.157-7181.458
				l-0.202-1.955l1.943-0.2l0.202,1.955L-5443.157-7181.458z M-5443.561-7185.369l-0.202-1.956l1.943-0.2l0.201,1.955
				L-5443.561-7185.369z M-5443.963-7189.279l-0.202-1.956l1.943-0.2l0.201,1.956L-5443.963-7189.279z M-5444.367-7193.19
				l-0.201-1.955l1.943-0.201l0.202,1.956L-5444.367-7193.19z M-5444.77-7197.101l-0.202-1.955l1.943-0.2l0.201,1.955
				L-5444.77-7197.101z M-5445.172-7201.011l-0.202-1.955l1.943-0.2l0.202,1.955L-5445.172-7201.011z"/>
		</g>
		<g>
			
				<rect x="-5434.765" y="-7105.793" transform="matrix(0.1025 0.9947 -0.9947 0.1025 -11944.4072 -970.6509)" fill="#FF6950" width="0.977" height="1.953"/>
		</g>
	</g>
</g>
<g id="Base_Line">
</g>
<g id="Beak">
</g>
<g id="Bilateral_Serif">
</g>
<g id="Body_Width">
</g>
<g id="Bowl">
</g>
<g id="Bracket">
</g>
<g id="Cap_Height">
</g>
<g id="Charachter_Width">
</g>
<g id="Counter_x28_open_x29_">
</g>
<g id="Counter_x28_closed_x29_">
</g>
<g id="Cross_Stroke_1_">
</g>
<g id="Crotch">
</g>
<g id="Descender">
</g>
<g id="Decent_Line">
</g>
<g id="diacritic">
</g>
<g id="Ear">
</g>
<g id="Eye">
</g>
<g id="Finial">
</g>
<g id="Foot">
</g>
<g id="Hairline_Stroke">
</g>
<g id="Head_Serif">
</g>
<g id="Joint">
</g>
<g id="Leg">
</g>
<g id="Ligature">
</g>
<g id="Link_x2F_Neck">
</g>
<g id="Loop">
</g>
<g id="Overhang">
</g>
<g id="Serif">
</g>
<g id="Shoulder">
</g>
<g id="Spine">
</g>
<g id="Spur">
</g>
<g id="Stem">
</g>
<g id="Stress">
</g>
<g id="Tail">
</g>
<g id="Tittle">
</g>
<g id="Terminal">
</g>
<g id="Vertex">
</g>
</svg>
