<?xml version="1.0" encoding="utf-8"?>
<!-- Generator: Adobe Illustrator 17.1.0, SVG Export Plug-In . SVG Version: 6.00 Build 0)  -->
<!DOCTYPE svg PUBLIC "-//W3C//DTD SVG 1.1//EN" "http://www.w3.org/Graphics/SVG/1.1/DTD/svg11.dtd">
<svg version="1.1" xmlns="http://www.w3.org/2000/svg" xmlns:xlink="http://www.w3.org/1999/xlink" x="0px" y="0px"
	 viewBox="-6398.336 -7256.554 195.305 195.305" enable-background="new -6398.336 -7256.554 195.305 195.305" xml:space="preserve"
	>
<g id="Aperature">
</g>
<g id="Apex">
</g>
<g id="Arc">
</g>
<g id="Arm">
</g>
<g id="Ascender">
	<path fill="#00CCFF" d="M-6321.563-7229.322c4.807,0,8.135,0.401,9.989,1.202c1.852,0.802,3.028,2.354,3.53,4.656
		c0.301,1.302,0.526,3.781,0.676,7.435c0.15,3.657,0.225,8.186,0.225,13.594v7.475h13.969v-45.027l-28.389,5.558V-7229.322z"/>
	<path fill="#282828" d="M-6286.79-7121.474c-1.753-0.5-3.105-1.401-4.056-2.704c-0.953-1.3-1.577-3.103-1.877-5.407
		c-0.301-2.303-0.451-5.356-0.451-9.163v-56.212h-13.969v57.263c0,3.506-0.176,6.334-0.525,8.487
		c-0.353,2.154-1.052,3.83-2.103,5.032c-1.052,1.202-2.479,2.08-4.281,2.629c-1.803,0.551-4.206,0.877-7.21,0.976v5.257h41.457
		v-5.257C-6282.711-7120.671-6285.04-7120.972-6286.79-7121.474z"/>
</g>
<g id="Ascender_Line">
</g>
<g id="Ascender_height">
</g>
<g id="Ascent_Line">
</g>
<g id="Axis">
</g>
<g id="Base_Line">
</g>
<g id="Beak">
</g>
<g id="Bilateral_Serif">
</g>
<g id="Body_Width">
</g>
<g id="Bowl">
</g>
<g id="Bracket">
</g>
<g id="Cap_Height">
</g>
<g id="Charachter_Width">
</g>
<g id="Counter_x28_open_x29_">
</g>
<g id="Counter_x28_closed_x29_">
</g>
<g id="Cross_Stroke_1_">
</g>
<g id="Crotch">
</g>
<g id="Descender">
</g>
<g id="Decent_Line">
</g>
<g id="diacritic">
</g>
<g id="Ear">
</g>
<g id="Eye">
</g>
<g id="Finial">
</g>
<g id="Foot">
</g>
<g id="Hairline_Stroke">
</g>
<g id="Head_Serif">
</g>
<g id="Joint">
</g>
<g id="Leg">
</g>
<g id="Ligature">
</g>
<g id="Link_x2F_Neck">
</g>
<g id="Loop">
</g>
<g id="Overhang">
</g>
<g id="Serif">
</g>
<g id="Shoulder">
</g>
<g id="Spine">
</g>
<g id="Spur">
</g>
<g id="Stem">
</g>
<g id="Stress">
</g>
<g id="Tail">
</g>
<g id="Tittle">
</g>
<g id="Terminal">
</g>
<g id="Vertex">
</g>
</svg>
