<?xml version="1.0" encoding="utf-8"?>
<!-- Generator: Adobe Illustrator 17.1.0, SVG Export Plug-In . SVG Version: 6.00 Build 0)  -->
<!DOCTYPE svg PUBLIC "-//W3C//DTD SVG 1.1//EN" "http://www.w3.org/Graphics/SVG/1.1/DTD/svg11.dtd">
<svg version="1.1" xmlns="http://www.w3.org/2000/svg" xmlns:xlink="http://www.w3.org/1999/xlink" x="0px" y="0px"
	 viewBox="-585.112 -7256.554 195.305 195.305" enable-background="new -585.112 -7256.554 195.305 195.305" xml:space="preserve">
<g id="Aperature">
</g>
<g id="Apex">
</g>
<g id="Arc">
</g>
<g id="Arm">
</g>
<g id="Ascender">
</g>
<g id="Ascender_Line">
</g>
<g id="Ascender_height">
</g>
<g id="Ascent_Line">
</g>
<g id="Axis">
</g>
<g id="Base_Line">
</g>
<g id="Beak">
</g>
<g id="Bilateral_Serif">
</g>
<g id="Body_Width">
</g>
<g id="Bowl">
</g>
<g id="Bracket">
</g>
<g id="Cap_Height">
</g>
<g id="Charachter_Width">
</g>
<g id="Counter_x28_open_x29_">
</g>
<g id="Counter_x28_closed_x29_">
</g>
<g id="Cross_Stroke_1_">
</g>
<g id="Crotch">
</g>
<g id="Descender">
</g>
<g id="Decent_Line">
</g>
<g id="diacritic">
</g>
<g id="Ear">
</g>
<g id="Eye">
</g>
<g id="Finial">
</g>
<g id="Foot">
</g>
<g id="Hairline_Stroke">
</g>
<g id="Head_Serif">
</g>
<g id="Joint">
</g>
<g id="Leg">
	<path fill="#00CCFF" d="M-447.58-7120.948c-1.352-0.249-2.605-0.676-3.755-1.277c-1.152-0.601-2.305-1.427-3.455-2.478
		c-1.152-1.052-2.429-2.427-3.83-4.131l-29.741-33.646l-9.313,9.163l15.922,19.226c2.403,2.906,4.356,5.407,5.858,7.51
		c1.502,2.103,2.302,3.556,2.403,4.356c0,0.502-0.627,0.901-1.878,1.202c-1.253,0.301-3.53,0.451-6.834,0.451v5.257h39.504v-5.257
		C-444.602-7120.573-446.229-7120.697-447.58-7120.948z"/>
	<path fill="#282828" d="M-500.753-7124.253c-0.953-1.352-1.603-3.204-1.953-5.558c-0.352-2.352-0.526-5.482-0.526-9.388v-8.862
		l5.558-5.257l9.313-9.163l21.63-19.227c1.802-1.601,3.403-2.929,4.806-3.98c1.401-1.051,2.727-1.877,3.981-2.478
		c1.251-0.601,2.577-1,3.98-1.202c1.401-0.2,3.053-0.301,4.957-0.301v-5.257h-39.053v5.257c3.905,0,6.909,0.327,9.012,0.977
		c2.103,0.652,3.154,1.528,3.154,2.628c0,1.103-1.103,2.729-3.305,4.882c-2.204,2.155-5.558,5.482-10.064,9.989l-13.969,13.668
		v-82.463l-28.99,5.708v5.107c3.504,0,6.309,0.127,8.411,0.375c2.103,0.251,3.605,1.077,4.506,2.479
		c0.901,1.403,1.427,4.055,1.577,7.961c0.15,3.905,0.225,9.665,0.225,17.273v62.937c0,3.605-0.202,6.51-0.601,8.711
		c-0.401,2.204-1.126,3.958-2.178,5.257c-1.051,1.303-2.504,2.204-4.356,2.704c-1.854,0.502-4.281,0.803-7.285,0.901v5.257h42.658
		v-5.257c-3.004-0.099-5.433-0.399-7.285-0.901C-498.402-7121.974-499.803-7122.901-500.753-7124.253z"/>
</g>
<g id="Ligature">
</g>
<g id="Link_x2F_Neck">
</g>
<g id="Loop">
</g>
<g id="Overhang">
</g>
<g id="Serif">
</g>
<g id="Shoulder">
</g>
<g id="Spine">
</g>
<g id="Spur">
</g>
<g id="Stem">
</g>
<g id="Stress">
</g>
<g id="Tail">
</g>
<g id="Tittle">
</g>
<g id="Terminal">
</g>
<g id="Vertex">
</g>
</svg>
