<?xml version="1.0" encoding="utf-8"?>
<!-- Generator: Adobe Illustrator 17.1.0, SVG Export Plug-In . SVG Version: 6.00 Build 0)  -->
<!DOCTYPE svg PUBLIC "-//W3C//DTD SVG 1.1//EN" "http://www.w3.org/Graphics/SVG/1.1/DTD/svg11.dtd">
<svg version="1.1" xmlns="http://www.w3.org/2000/svg" xmlns:xlink="http://www.w3.org/1999/xlink" x="0px" y="0px"
	 viewBox="-6828.945 -7256.554 195.305 195.305" enable-background="new -6828.945 -7256.554 195.305 195.305" xml:space="preserve"
	>
<g id="Aperature">
</g>
<g id="Apex">
</g>
<g id="Arc">
	<path fill="#00CCFF" d="M-6668.432-7178.627c-0.751-3.755-2.027-6.783-3.83-9.087c-2.004-2.704-4.933-4.83-8.787-6.384
		c-3.856-1.551-8.137-2.328-12.842-2.328c-6.008,0-11.667,1.302-16.974,3.905c-5.309,2.605-9.815,6.259-13.519,10.965h-0.601
		c-1.704-4.807-4.708-8.487-9.012-11.04c-4.307-2.554-9.613-3.83-15.922-3.83c-6.008,0-11.491,1.227-16.448,3.68
		c-4.655,2.306-9.111,5.779-13.368,10.422v17.892c0.049-1.601,0.174-2.979,0.375-4.131c0.2-1.15,0.474-2.201,0.826-3.154
		c0.35-0.95,0.774-1.927,1.277-2.929c2.002-4.105,4.98-7.384,8.937-9.839c3.955-2.452,8.187-3.68,12.692-3.68
		c3.204,0,5.907,0.526,8.111,1.577c2.201,1.051,3.98,2.805,5.333,5.257c1.352,2.455,2.328,5.658,2.929,9.613
		c0.327,2.154,0.564,4.583,0.713,7.285h14.983c0.049-1.601,0.174-2.979,0.376-4.131c0.199-1.15,0.474-2.201,0.826-3.154
		c0.35-0.95,0.775-1.927,1.277-2.929c2.202-4.105,5.231-7.384,9.087-9.839c3.854-2.452,7.984-3.68,12.392-3.68
		c3.204,0,5.933,0.551,8.186,1.652c2.253,1.103,4.079,2.879,5.483,5.332c1.401,2.455,2.403,5.659,3.004,9.613
		c0.323,2.125,0.558,4.505,0.708,7.135h14.909C-6667.354-7170.374-6667.728-7175.106-6668.432-7178.627z"/>
	<g>
		<path fill="#282828" d="M-6721.755-7124.027c-0.852-1.3-1.378-3.154-1.577-5.558c-0.202-2.403-0.301-5.656-0.301-9.764v-19.076
			c0-2.403,0.024-4.405,0.075-6.008h-14.983c0.125,2.262,0.188,4.714,0.188,7.36v18.926c0,3.807-0.127,6.834-0.375,9.087
			c-0.251,2.253-0.803,3.98-1.652,5.182c-0.852,1.202-2.129,2.004-3.83,2.403c-1.704,0.401-3.958,0.702-6.76,0.901v5.257h39.955
			v-5.257c-2.906-0.199-5.208-0.5-6.91-0.901C-6719.628-7121.873-6720.905-7122.725-6721.755-7124.027z"/>
		<path fill="#282828" d="M-6777.932-7123.952c-0.852-1.251-1.377-3.08-1.577-5.483c-0.202-2.403-0.3-5.708-0.3-9.914v-19.076
			c0-2.403,0.023-4.405,0.075-6.008v-17.892c-0.276,0.301-0.552,0.607-0.826,0.918h-0.751l-1.953-15.021l-24.483,5.708v5.257
			c2.302,0,4.18,0.075,5.632,0.225c1.451,0.15,2.629,0.451,3.53,0.901c0.901,0.451,1.551,1.051,1.953,1.802
			c0.399,0.751,0.751,1.779,1.051,3.08c0.399,1.403,0.676,4.006,0.826,7.811c0.15,3.807,0.225,8.562,0.225,14.27v19.227
			c0,3.807-0.126,6.834-0.375,9.087c-0.251,2.253-0.826,3.98-1.727,5.182c-0.901,1.202-2.204,2.004-3.905,2.403
			c-1.704,0.401-4.006,0.702-6.91,0.901v5.257h39.955v-5.257c-2.905-0.199-5.159-0.5-6.759-0.901
			C-6775.855-7121.873-6777.083-7122.699-6777.932-7123.952z"/>
		<path fill="#282828" d="M-6661.673-7121.474c-1.652-0.399-2.879-1.251-3.68-2.553c-0.803-1.3-1.329-3.154-1.577-5.558
			c-0.251-2.403-0.376-5.656-0.376-9.764v-23.882c0-0.406-0.001-0.807-0.004-1.202h-14.909c0.128,2.267,0.194,4.718,0.194,7.36
			v18.926c0,3.807-0.127,6.811-0.375,9.012c-0.251,2.204-0.826,3.931-1.728,5.182c-0.901,1.253-2.204,2.103-3.905,2.553
			c-1.704,0.451-3.957,0.728-6.759,0.826v5.257h39.955v-5.257C-6657.744-7120.772-6660.021-7121.073-6661.673-7121.474z"/>
	</g>
</g>
<g id="Arm">
</g>
<g id="Ascender">
</g>
<g id="Ascender_Line">
</g>
<g id="Ascender_height">
</g>
<g id="Ascent_Line">
</g>
<g id="Axis">
</g>
<g id="Base_Line">
</g>
<g id="Beak">
</g>
<g id="Bilateral_Serif">
</g>
<g id="Body_Width">
</g>
<g id="Bowl">
</g>
<g id="Bracket">
</g>
<g id="Cap_Height">
</g>
<g id="Charachter_Width">
</g>
<g id="Counter_x28_open_x29_">
</g>
<g id="Counter_x28_closed_x29_">
</g>
<g id="Cross_Stroke_1_">
</g>
<g id="Crotch">
</g>
<g id="Descender">
</g>
<g id="Decent_Line">
</g>
<g id="diacritic">
</g>
<g id="Ear">
</g>
<g id="Eye">
</g>
<g id="Finial">
</g>
<g id="Foot">
</g>
<g id="Hairline_Stroke">
</g>
<g id="Head_Serif">
</g>
<g id="Joint">
</g>
<g id="Leg">
</g>
<g id="Ligature">
</g>
<g id="Link_x2F_Neck">
</g>
<g id="Loop">
</g>
<g id="Overhang">
</g>
<g id="Serif">
</g>
<g id="Shoulder">
</g>
<g id="Spine">
</g>
<g id="Spur">
</g>
<g id="Stem">
</g>
<g id="Stress">
</g>
<g id="Tail">
</g>
<g id="Tittle">
</g>
<g id="Terminal">
</g>
<g id="Vertex">
</g>
</svg>
