<?xml version="1.0" encoding="utf-8"?>
<!-- Generator: Adobe Illustrator 17.1.0, SVG Export Plug-In . SVG Version: 6.00 Build 0)  -->
<!DOCTYPE svg PUBLIC "-//W3C//DTD SVG 1.1//EN" "http://www.w3.org/Graphics/SVG/1.1/DTD/svg11.dtd">
<svg version="1.1" xmlns="http://www.w3.org/2000/svg" xmlns:xlink="http://www.w3.org/1999/xlink" x="0px" y="0px"
	 viewBox="922.02 -7256.554 195.305 195.305" enable-background="new 922.02 -7256.554 195.305 195.305" xml:space="preserve">
<g id="Aperature">
</g>
<g id="Apex">
</g>
<g id="Arc">
</g>
<g id="Arm">
</g>
<g id="Ascender">
</g>
<g id="Ascender_Line">
</g>
<g id="Ascender_height">
</g>
<g id="Ascent_Line">
</g>
<g id="Axis">
</g>
<g id="Base_Line">
</g>
<g id="Beak">
</g>
<g id="Bilateral_Serif">
</g>
<g id="Body_Width">
</g>
<g id="Bowl">
</g>
<g id="Bracket">
</g>
<g id="Cap_Height">
</g>
<g id="Charachter_Width">
</g>
<g id="Counter_x28_open_x29_">
</g>
<g id="Counter_x28_closed_x29_">
</g>
<g id="Cross_Stroke_1_">
</g>
<g id="Crotch">
</g>
<g id="Descender">
</g>
<g id="Decent_Line">
</g>
<g id="diacritic">
</g>
<g id="Ear">
</g>
<g id="Eye">
</g>
<g id="Finial">
</g>
<g id="Foot">
</g>
<g id="Hairline_Stroke">
</g>
<g id="Head_Serif">
</g>
<g id="Joint">
</g>
<g id="Leg">
</g>
<g id="Ligature">
</g>
<g id="Link_x2F_Neck">
</g>
<g id="Loop">
</g>
<g id="Overhang">
</g>
<g id="Serif">
</g>
<g id="Shoulder">
</g>
<g id="Spine">
	<g>
		<path fill="#282828" d="M1028.535-7122.901c-2.354,1.953-5.534,2.929-9.538,2.929c-10.315,0-17.424-7.06-21.329-21.179h-3.755
			v25.835h3.305l3.004-5.257c5.607,4.506,12.317,6.759,20.127,6.759c7.51,0,13.568-2.028,18.175-6.083
			c0.096-0.085,0.191-0.172,0.285-0.258l-7.577-6.583C1030.643-7125.187,1029.746-7123.907,1028.535-7122.901z"/>
		<path fill="#282828" d="M1009.759-7187.564c2.051-1.802,4.781-2.704,8.186-2.704c3.804,0,7.008,1.302,9.613,3.905
			c2.603,2.605,5.006,6.961,7.21,13.068h3.905v-21.629h-2.854l-3.004,3.154c-2.204-1.401-4.757-2.528-7.66-3.38
			c-2.906-0.85-5.708-1.276-8.411-1.276c-3.206,0-6.158,0.577-8.862,1.727c-1.967,0.838-3.746,1.904-5.342,3.192l6.021,5.23
			C1008.912-7186.739,1009.309-7187.17,1009.759-7187.564z"/>
	</g>
	<g>
		<path fill="#00CCFF" d="M1029.442-7123.774c-0.022,0.024-0.042,0.049-0.064,0.073
			C1029.4-7123.725,1029.421-7123.75,1029.442-7123.774z"/>
		<path fill="#00CCFF" d="M1029.8-7124.194c-0.014,0.017-0.026,0.035-0.039,0.052
			C1029.774-7124.159,1029.786-7124.177,1029.8-7124.194z"/>
		<path fill="#00CCFF" d="M1030.131-7124.637c-0.006,0.008-0.011,0.018-0.017,0.026
			C1030.12-7124.62,1030.125-7124.629,1030.131-7124.637z"/>
		<path fill="#00CCFF" d="M1044.081-7144.155c-0.901-2.201-2.305-4.33-4.206-6.383c-1.903-2.051-4.382-4.131-7.435-6.234
			c-3.056-2.103-6.736-4.506-11.04-7.209c-2.605-1.601-4.833-3.028-6.684-4.281c-1.854-1.251-3.38-2.479-4.581-3.68
			s-2.079-2.427-2.629-3.68c-0.552-1.251-0.826-2.727-0.826-4.431c0-2.502,0.629-4.575,1.881-6.223l0,0l-6.021-5.23
			c0.338-0.273,0.686-0.533,1.04-0.786c-0.982,0.7-1.904,1.472-2.758,2.326c-2.004,2.004-3.581,4.431-4.731,7.285
			c-1.152,2.854-1.727,5.984-1.727,9.388c0,2.805,0.425,5.257,1.277,7.36c0.85,2.103,2.126,4.082,3.83,5.934
			c1.702,1.854,3.804,3.68,6.309,5.482c2.502,1.802,5.457,3.755,8.862,5.858c3.704,2.305,6.684,4.206,8.937,5.708
			c2.253,1.502,4.004,2.83,5.257,3.98c1.251,1.152,2.103,2.253,2.553,3.304c0.451,1.052,0.676,2.328,0.676,3.831
			c0,1.942-0.28,3.641-0.833,5.101l7.577,6.583c-0.095,0.086-0.189,0.173-0.285,0.258c4.605-4.056,6.909-9.637,6.909-16.748
			C1045.433-7139.447,1044.982-7141.951,1044.081-7144.155z"/>
		<path fill="#00CCFF" d="M1028.969-7123.287c0.028-0.026,0.053-0.055,0.08-0.081
			C1029.022-7123.341,1028.997-7123.313,1028.969-7123.287z"/>
		<path fill="#00CCFF" d="M1009.417-7187.247c0.111-0.108,0.224-0.214,0.342-0.317
			C1009.641-7187.461,1009.528-7187.355,1009.417-7187.247z"/>
		<path fill="#00CCFF" d="M1030.441-7125.111c-0.001,0.001-0.002,0.003-0.003,0.005
			C1030.439-7125.108,1030.44-7125.11,1030.441-7125.111z"/>
		<path fill="#00CCFF" d="M1006.718-7194.163c0.093-0.045,0.185-0.091,0.279-0.136
			C1006.903-7194.254,1006.811-7194.208,1006.718-7194.163z"/>
		<path fill="#00CCFF" d="M1003.868-7192.497c0.143-0.099,0.288-0.196,0.434-0.292
			C1004.156-7192.692,1004.011-7192.595,1003.868-7192.497z"/>
		<path fill="#00CCFF" d="M1008.826-7186.61c0.007-0.008,0.014-0.016,0.021-0.024
			C1008.84-7186.626,1008.833-7186.618,1008.826-7186.61z"/>
		<path fill="#00CCFF" d="M1009.109-7186.931c0.03-0.032,0.062-0.064,0.092-0.096
			C1009.171-7186.995,1009.139-7186.963,1009.109-7186.931z"/>
		<path fill="#00CCFF" d="M1005.821-7193.699c0.099-0.054,0.2-0.106,0.3-0.159
			C1006.021-7193.806,1005.92-7193.753,1005.821-7193.699z"/>
		<path fill="#00CCFF" d="M1004.695-7193.038c0.124-0.077,0.246-0.156,0.372-0.231
			C1004.941-7193.194,1004.819-7193.115,1004.695-7193.038z"/>
	</g>
</g>
<g id="Spur">
</g>
<g id="Stem">
</g>
<g id="Stress">
</g>
<g id="Tail">
</g>
<g id="Tittle">
</g>
<g id="Terminal">
</g>
<g id="Vertex">
</g>
</svg>
