<?xml version="1.0" encoding="utf-8"?>
<!-- Generator: Adobe Illustrator 17.1.0, SVG Export Plug-In . SVG Version: 6.00 Build 0)  -->
<!DOCTYPE svg PUBLIC "-//W3C//DTD SVG 1.1//EN" "http://www.w3.org/Graphics/SVG/1.1/DTD/svg11.dtd">
<svg version="1.1" xmlns="http://www.w3.org/2000/svg" xmlns:xlink="http://www.w3.org/1999/xlink" x="0px" y="0px"
	 viewBox="1137.325 -7256.554 195.305 195.305" enable-background="new 1137.325 -7256.554 195.305 195.305" xml:space="preserve">
<g id="Aperature">
</g>
<g id="Apex">
</g>
<g id="Arc">
</g>
<g id="Arm">
</g>
<g id="Ascender">
</g>
<g id="Ascender_Line">
</g>
<g id="Ascender_height">
</g>
<g id="Ascent_Line">
</g>
<g id="Axis">
</g>
<g id="Base_Line">
</g>
<g id="Beak">
</g>
<g id="Bilateral_Serif">
</g>
<g id="Body_Width">
</g>
<g id="Bowl">
</g>
<g id="Bracket">
</g>
<g id="Cap_Height">
</g>
<g id="Charachter_Width">
</g>
<g id="Counter_x28_open_x29_">
</g>
<g id="Counter_x28_closed_x29_">
</g>
<g id="Cross_Stroke_1_">
</g>
<g id="Crotch">
</g>
<g id="Descender">
</g>
<g id="Decent_Line">
</g>
<g id="diacritic">
</g>
<g id="Ear">
</g>
<g id="Eye">
</g>
<g id="Finial">
</g>
<g id="Foot">
</g>
<g id="Hairline_Stroke">
</g>
<g id="Head_Serif">
</g>
<g id="Joint">
</g>
<g id="Leg">
</g>
<g id="Ligature">
</g>
<g id="Link_x2F_Neck">
</g>
<g id="Loop">
</g>
<g id="Overhang">
</g>
<g id="Serif">
</g>
<g id="Shoulder">
</g>
<g id="Spine">
</g>
<g id="Spur">
	<path fill="#00CCFF" d="M1246.919-7118.019c2.152,2.802,5.431,4.206,9.839,4.206c3.504,0,6.858-0.777,10.064-2.328
		c3.204-1.551,5.407-3.479,6.609-5.783l-2.103-3.605c-0.901,1.502-2.004,2.429-3.305,2.779c-1.303,0.352-2.654,0.525-4.056,0.525
		c-2.191,0-3.848-1.354-4.974-4.053h-15.103C1244.293-7122.876,1245.302-7120.123,1246.919-7118.019z"/>
	<path fill="#282828" d="M1243.69-7129.885c0,1.274,0.067,2.476,0.201,3.607h15.103c-1.189-2.852-1.785-7.206-1.785-13.07v-33.646
		c0-8.51-2.103-14.544-6.309-18.1c-4.206-3.553-11.317-5.332-21.329-5.332c-9.414,0-16.673,1.328-21.78,3.98
		c-5.107,2.655-7.661,6.384-7.661,11.19c0,5.009,2.502,7.51,7.51,7.51c2.002,0,3.53-0.474,4.581-1.427
		c1.051-0.951,2.126-2.877,3.229-5.783c0.601-1.901,1.225-3.504,1.878-4.807c0.65-1.3,1.375-2.302,2.178-3.004
		c0.8-0.699,1.802-1.202,3.004-1.502c1.202-0.3,2.652-0.451,4.356-0.451c10.413,0,15.621,6.109,15.621,18.325v6.158l-21.63,9.463
		c-4.506,2.004-8.313,3.98-11.416,5.934c-3.105,1.953-5.609,3.931-7.51,5.933c-1.903,2.004-3.281,4.107-4.131,6.309
		c-0.852,2.204-1.277,4.506-1.277,6.909c0,5.408,1.802,9.714,5.407,12.918c3.605,3.206,8.562,4.806,14.87,4.806
		c5.607,0,10.714-1.427,15.321-4.281c4.605-2.854,8.21-6.733,10.815-11.641H1243.69z M1242.488-7147.91
		c0,3.405-0.502,6.635-1.502,9.688c-1.002,3.056-2.354,5.708-4.056,7.961c-1.704,2.253-3.68,4.032-5.933,5.332
		c-2.253,1.303-4.682,1.953-7.285,1.953c-3.605,0-6.51-1.051-8.712-3.154c-2.204-2.103-3.304-4.807-3.304-8.111
		c0-2.202,0.526-4.356,1.577-6.459c1.052-2.103,2.779-4.206,5.182-6.309c2.403-2.103,5.581-4.206,9.538-6.309
		c3.955-2.103,8.787-4.255,14.495-6.459V-7147.91z"/>
</g>
<g id="Stem">
</g>
<g id="Stress">
</g>
<g id="Tail">
</g>
<g id="Tittle">
</g>
<g id="Terminal">
</g>
<g id="Vertex">
</g>
</svg>
