<?xml version="1.0" encoding="UTF-8" standalone="no"?>
<!-- Generator: Adobe Illustrator 16.0.0, SVG Export Plug-In . SVG Version: 6.00 Build 0)  -->

<svg
   xmlns:dc="http://purl.org/dc/elements/1.1/"
   xmlns:cc="http://creativecommons.org/ns#"
   xmlns:rdf="http://www.w3.org/1999/02/22-rdf-syntax-ns#"
   xmlns:svg="http://www.w3.org/2000/svg"
   xmlns="http://www.w3.org/2000/svg"
   xmlns:sodipodi="http://sodipodi.sourceforge.net/DTD/sodipodi-0.dtd"
   xmlns:inkscape="http://www.inkscape.org/namespaces/inkscape"
   version="1.1"
   id="Layer_1"
   x="0px"
   y="0px"
   width="196"
   height="196"
   viewBox="0 0 196 196"
   enable-background="new 0 0 904.8 598.972"
   xml:space="preserve"
   inkscape:version="0.48.4 r9939"
   sodipodi:docname="favicon.svg"
   inkscape:export-filename="/home/nicholas/Desktop/favicon.png"
   inkscape:export-xdpi="90"
   inkscape:export-ydpi="90"><metadata
     id="metadata37"><rdf:RDF><cc:Work
         rdf:about=""><dc:format>image/svg+xml</dc:format><dc:type
           rdf:resource="http://purl.org/dc/dcmitype/StillImage" /><dc:title /></cc:Work></rdf:RDF></metadata><defs
     id="defs35" /><sodipodi:namedview
     pagecolor="#ffffff"
     bordercolor="#666666"
     borderopacity="1"
     objecttolerance="10"
     gridtolerance="10"
     guidetolerance="10"
     inkscape:pageopacity="0"
     inkscape:pageshadow="2"
     inkscape:window-width="1317"
     inkscape:window-height="744"
     id="namedview33"
     showgrid="false"
     inkscape:zoom="1.3351017"
     inkscape:cx="114.62245"
     inkscape:cy="38.865733"
     inkscape:window-x="49"
     inkscape:window-y="24"
     inkscape:window-maximized="1"
     inkscape:current-layer="Layer_1"
     fit-margin-top="0"
     fit-margin-left="0"
     fit-margin-right="0"
     fit-margin-bottom="0"><inkscape:grid
       type="xygrid"
       id="grid2982"
       empspacing="5"
       visible="true"
       enabled="true"
       snapvisiblegridlinesonly="true" /></sodipodi:namedview><rect
     style="fill:#f4f4f4;fill-opacity:1;stroke:none;stroke-opacity:1"
     id="rect2984"
     width="196"
     height="196"
     x="0"
     y="0" /><path
     style="font-size:40px;font-style:normal;font-weight:normal;line-height:125%;letter-spacing:0px;word-spacing:0px;fill:#282828;fill-opacity:1;stroke:none;font-family:Sans"
     d="M 94.936958,53.585643 64.936996,128.63057 c -0.691903,1.61444 -1.393402,2.991 -2.162158,4.14414 -0.691901,1.07629 -1.52313,2.01082 -2.522523,2.7027 -0.922525,0.69191 -2.026427,1.23723 -3.333327,1.62161 -1.230034,0.38441 -2.736335,0.67028 -4.5045,0.90092 l 0,4.4144 28.017984,0 0,-4.4144 c -3.22885,0 -5.553169,-0.40241 -6.93693,-1.17118 -1.383802,-0.84564 -2.072085,-2.35193 -2.072069,-4.50451 -1.6e-5,-0.76874 0.129705,-1.74291 0.360359,-2.97296 0.230597,-1.23 0.542925,-2.73631 1.081081,-4.50448 0.614994,-1.76815 1.4198,-3.83302 2.342341,-6.21621 0.922498,-2.46005 2.026398,-5.22641 3.333328,-8.37839 l 30.810778,0 4.68466,12.43242 c 0.53808,1.30693 0.9537,2.42406 1.26127,3.42342 0.38433,0.92255 0.65699,1.75376 0.8108,2.52252 0.23065,0.76879 0.46362,1.56039 0.54055,2.25225 0.0769,0.61502 0.09,1.30333 0.09,2.07207 -7e-5,1.76819 -0.80487,3.01502 -2.34233,3.78379 -1.5376,0.76876 -4.30395,1.17117 -8.37837,1.17117 l 0,4.50451 37.56751,0 0,-4.50451 c -1.99888,0 -3.76463,-0.24622 -5.22521,-0.63061 -1.38388,-0.3844 -2.64392,-1.21564 -3.87387,-2.52255 -1.2301,-1.30688 -2.47696,-3.22879 -3.78377,-5.76572 -1.307,-2.61382 -2.8265,-6.05524 -4.5946,-10.36035 l -26.21618,-65.044977 -4.954948,0 z m -0.54054,16.846813 12.792762,34.054004 -26.306259,0 13.513497,-34.054004 z"
     id="text3014"
     inkscape:connector-curvature="0" /></svg>