<?xml version="1.0" encoding="UTF-8" standalone="no"?>
<!-- Created with Inkscape (http://www.inkscape.org/) -->

<svg
   width="1200"
   height="630"
   viewBox="0 0 317.5 166.6875"
   version="1.1"
   id="svg1"
   inkscape:version="1.4 (e7c3feb1, 2024-10-09)"
   sodipodi:docname="social-share.svg"
   xmlns:inkscape="http://www.inkscape.org/namespaces/inkscape"
   xmlns:sodipodi="http://sodipodi.sourceforge.net/DTD/sodipodi-0.dtd"
   xmlns="http://www.w3.org/2000/svg"
   xmlns:svg="http://www.w3.org/2000/svg">
  <sodipodi:namedview
     id="namedview1"
     pagecolor="#ffffff"
     bordercolor="#000000"
     borderopacity="0.25"
     inkscape:showpageshadow="2"
     inkscape:pageopacity="0.0"
     inkscape:pagecheckerboard="0"
     inkscape:deskcolor="#d1d1d1"
     inkscape:document-units="px"
     inkscape:zoom="0.52410024"
     inkscape:cx="512.30657"
     inkscape:cy="217.51564"
     inkscape:window-width="1496"
     inkscape:window-height="905"
     inkscape:window-x="0"
     inkscape:window-y="34"
     inkscape:window-maximized="0"
     inkscape:current-layer="layer1" />
  <defs
     id="defs1" />
  <g
     inkscape:label="Layer 1"
     inkscape:groupmode="layer"
     id="layer1">
    <rect
       style="fill:#282828;fill-opacity:1;stroke-width:0.264583"
       id="rect1"
       width="317.5"
       height="166.6875"
       x="0"
       y="0" />
    <g
       id="g11"
       transform="matrix(0.26458333,0,0,0.26458333,39.052502,-18.249105)"
       style="fill:#f4f4f4;fill-opacity:1">
	<path
   fill="#fafafa"
   d="m 92.948,497.033 h -4.981 c -0.243,-3.48 -0.811,-6.396 -1.701,-8.748 -0.892,-2.348 -2.168,-4.191 -3.827,-5.527 -1.661,-1.336 -3.748,-2.287 -6.257,-2.854 -2.512,-0.566 -5.509,-0.852 -8.991,-0.852 -2.998,0 -5.407,0.063 -7.229,0.184 -1.822,0.121 -3.22,0.346 -4.192,0.668 -0.972,0.322 -1.6,0.709 -1.883,1.152 -0.285,0.447 -0.425,1.033 -0.425,1.764 v 65.002 c 0,2.594 0.182,4.818 0.546,6.684 0.365,1.863 1.094,3.383 2.187,4.555 1.094,1.176 2.673,2.066 4.739,2.674 2.066,0.608 4.799,0.953 8.201,1.033 v 4.617 H 23.207 v -4.617 c 3.402,-0.08 6.155,-0.426 8.262,-1.033 2.105,-0.607 3.706,-1.498 4.799,-2.674 1.093,-1.172 1.822,-2.691 2.187,-4.555 0.364,-1.863 0.547,-4.09 0.547,-6.684 V 482.82 c 0,-0.73 -0.143,-1.316 -0.425,-1.764 -0.285,-0.443 -0.851,-0.83 -1.701,-1.152 -0.851,-0.322 -2.046,-0.547 -3.584,-0.668 -1.54,-0.121 -3.605,-0.184 -6.196,-0.184 -3.159,0 -6.096,0.121 -8.809,0.363 -2.715,0.244 -5.063,0.953 -7.047,2.127 -1.985,1.176 -3.584,2.977 -4.799,5.406 -1.215,2.43 -1.864,5.793 -1.944,10.084 H 0 v -23.205 h 91.733 z"
   id="path1"
   style="fill:#f4f4f4;fill-opacity:1" />

	<path
   fill="#fafafa"
   d="m 110.601,586.457 c -3.727,8.342 -9.519,12.516 -17.375,12.516 -5.103,0 -7.655,-1.902 -7.655,-5.711 0,-2.023 0.708,-3.504 2.126,-4.436 1.416,-0.932 4.028,-1.721 7.837,-2.369 1.701,-0.242 3.159,-0.588 4.374,-1.031 1.215,-0.447 2.308,-1.014 3.28,-1.701 0.972,-0.687 1.841,-1.561 2.612,-2.611 0.769,-1.055 1.519,-2.352 2.248,-3.889 l 4.252,-8.506 -23.328,-50.666 c -1.054,-2.266 -1.965,-4.068 -2.734,-5.406 -0.771,-1.336 -1.58,-2.389 -2.43,-3.156 -0.85,-0.771 -1.803,-1.295 -2.855,-1.58 -1.054,-0.283 -2.39,-0.506 -4.01,-0.668 v -4.254 h 32.198 v 4.254 c -5.428,0 -8.141,1.336 -8.141,4.01 0,1.053 0.323,2.713 0.972,4.98 0.647,2.27 1.458,4.576 2.43,6.926 l 13.365,32.316 h 0.607 l 11.057,-27.336 c 1.052,-2.674 1.923,-4.859 2.612,-6.563 0.687,-1.699 1.215,-3.098 1.579,-4.191 0.365,-1.094 0.608,-2.004 0.729,-2.732 0.122,-0.729 0.183,-1.416 0.183,-2.064 0,-2.105 -0.589,-3.523 -1.762,-4.252 -1.175,-0.729 -3.423,-1.094 -6.744,-1.094 v -4.254 h 26.73 v 4.254 c -1.54,0 -2.836,0.203 -3.888,0.605 -1.054,0.406 -2.126,1.318 -3.22,2.734 -1.094,1.418 -2.309,3.463 -3.645,6.135 -1.336,2.674 -2.977,6.279 -4.921,10.814 z"
   id="path2"
   style="fill:#f4f4f4;fill-opacity:1" />

	<path
   fill="#fafafa"
   d="m 181.678,511.736 h 0.486 c 2.591,-3.078 5.386,-5.508 8.383,-7.291 2.996,-1.781 6.479,-2.674 10.449,-2.674 4.617,0 8.849,0.832 12.697,2.492 3.846,1.66 7.188,3.99 10.024,6.986 2.834,2.996 5.042,6.541 6.622,10.631 1.58,4.09 2.369,8.564 2.369,13.426 0,4.941 -0.811,9.457 -2.43,13.547 -1.622,4.092 -3.848,7.594 -6.683,10.51 -2.836,2.916 -6.197,5.186 -10.084,6.805 -3.888,1.619 -8.101,2.43 -12.636,2.43 -3.727,0 -7.107,-0.629 -10.145,-1.883 -3.038,-1.256 -5.893,-3.301 -8.566,-6.137 v 17.738 c 0,3.24 0.162,5.832 0.486,7.777 0.323,1.943 0.972,3.441 1.944,4.494 0.972,1.053 2.369,1.781 4.191,2.188 1.823,0.404 4.232,0.648 7.229,0.729 v 4.254 h -37.422 v -4.254 c 2.43,-0.08 4.393,-0.324 5.893,-0.729 1.498,-0.406 2.673,-1.135 3.523,-2.188 0.85,-1.053 1.437,-2.49 1.762,-4.313 0.323,-1.822 0.486,-4.191 0.486,-7.107 v -45.441 c 0,-4.695 -0.061,-8.545 -0.183,-11.543 -0.122,-2.996 -0.345,-5.061 -0.668,-6.195 -0.406,-1.943 -1.336,-3.26 -2.794,-3.949 -1.458,-0.688 -4.213,-1.033 -8.262,-1.033 v -4.131 l 23.328,-4.617 z m 3.645,3.521 c -1.054,1.621 -1.844,3.545 -2.37,5.771 -0.527,2.229 -0.79,5.125 -0.79,8.688 v 9.479 c 0,2.186 0.061,4.068 0.182,5.648 0.122,1.58 0.304,2.938 0.547,4.07 0.243,1.135 0.566,2.146 0.972,3.037 0.404,0.893 0.93,1.744 1.58,2.553 1.862,2.592 4.089,4.598 6.682,6.014 2.591,1.418 5.304,2.127 8.141,2.127 5.589,0 10.104,-2.35 13.547,-7.049 3.442,-4.695 5.164,-11.299 5.164,-19.803 0,-4.211 -0.467,-8.039 -1.397,-11.482 -0.932,-3.441 -2.248,-6.398 -3.949,-8.869 -1.701,-2.471 -3.748,-4.395 -6.136,-5.771 -2.39,-1.377 -5.042,-2.064 -7.958,-2.064 -2.916,0 -5.61,0.668 -8.08,2.006 -2.471,1.333 -4.516,3.216 -6.135,5.645 z"
   id="path3"
   style="fill:#f4f4f4;fill-opacity:1" />

	<path
   fill="#fafafa"
   d="m 299.968,556.083 c -6.885,8.342 -15.43,12.514 -25.636,12.514 -4.78,0 -9.113,-0.791 -13,-2.369 -3.888,-1.578 -7.229,-3.807 -10.024,-6.684 -2.794,-2.873 -4.962,-6.316 -6.5,-10.326 -1.54,-4.01 -2.309,-8.443 -2.309,-13.305 0,-4.939 0.809,-9.518 2.43,-13.73 1.62,-4.209 3.907,-7.813 6.865,-10.813 2.956,-2.996 6.479,-5.346 10.571,-7.047 4.089,-1.701 8.565,-2.551 13.426,-2.551 7.855,0 13.931,2.125 18.225,6.377 4.292,4.254 6.439,10.35 6.439,18.287 0,1.135 -0.224,1.822 -0.668,2.064 -0.446,0.242 -1.479,0.365 -3.098,0.365 h -39.974 c -0.163,0.646 -0.285,1.438 -0.364,2.369 -0.082,0.932 -0.122,1.965 -0.122,3.098 0,4.213 0.505,8.039 1.519,11.482 1.012,3.441 2.47,6.379 4.374,8.809 1.902,2.43 4.171,4.313 6.804,5.648 2.631,1.338 5.568,2.006 8.809,2.006 3.402,0 6.561,-0.748 9.477,-2.248 2.916,-1.498 5.912,-3.949 8.991,-7.352 z M 279.92,523.277 c 1.619,0 2.916,-0.039 3.888,-0.121 0.972,-0.08 1.701,-0.242 2.187,-0.486 0.486,-0.242 0.809,-0.586 0.972,-1.031 0.162,-0.443 0.243,-1.031 0.243,-1.762 0,-3.727 -1.196,-6.703 -3.584,-8.932 -2.39,-2.227 -5.649,-3.342 -9.781,-3.342 -8.748,0 -14.175,5.225 -16.281,15.674 z"
   id="path4"
   style="fill:#f4f4f4;fill-opacity:1" />

	<path
   fill="#fafafa"
   d="m 400.326,533.484 h -32.441 c -1.378,3.322 -2.552,6.258 -3.522,8.809 -0.973,2.551 -1.763,4.76 -2.369,6.621 -0.608,1.865 -1.033,3.443 -1.276,4.738 -0.243,1.297 -0.365,2.352 -0.365,3.16 0,2.268 0.729,3.826 2.188,4.678 1.458,0.85 3.888,1.275 7.29,1.275 v 4.617 h -29.524 v -4.617 c 1.862,-0.244 3.463,-0.566 4.799,-0.973 1.337,-0.404 2.511,-0.973 3.523,-1.701 1.012,-0.729 1.902,-1.68 2.673,-2.854 0.77,-1.174 1.52,-2.613 2.248,-4.314 l 31.59,-79.096 h 5.226 l 27.58,68.525 c 1.86,4.537 3.481,8.16 4.858,10.873 1.377,2.717 2.713,4.76 4.011,6.137 1.295,1.379 2.69,2.27 4.19,2.674 1.498,0.406 3.301,0.607 5.408,0.607 v 4.738 h -39.609 v -4.738 c 4.291,0 7.248,-0.404 8.869,-1.217 1.619,-0.809 2.43,-2.145 2.43,-4.008 0,-0.811 -0.04,-1.559 -0.12,-2.248 -0.082,-0.688 -0.226,-1.438 -0.427,-2.248 -0.203,-0.809 -0.485,-1.721 -0.85,-2.734 -0.365,-1.012 -0.832,-2.205 -1.398,-3.584 z m -30.011,-6.076 h 27.701 l -13.485,-35.842 z"
   id="path5"
   style="fill:#f4f4f4;fill-opacity:1" />

	<path
   fill="#fafafa"
   d="m 466.421,548.306 c 0,3.322 0.08,5.936 0.242,7.836 0.162,1.904 0.586,3.363 1.273,4.375 0.689,1.014 1.701,1.682 3.037,2.006 1.338,0.324 3.182,0.566 5.529,0.729 v 4.131 H 444.67 v -4.131 c 2.268,-0.162 4.07,-0.404 5.407,-0.729 1.336,-0.324 2.369,-0.973 3.098,-1.945 0.729,-0.971 1.193,-2.348 1.396,-4.131 0.201,-1.781 0.305,-4.211 0.305,-7.289 v -16.16 c 0,-9.639 -0.242,-15.51 -0.729,-17.617 -0.244,-1.053 -0.547,-1.924 -0.912,-2.611 -0.366,-0.688 -0.912,-1.217 -1.641,-1.58 -0.729,-0.363 -1.661,-0.607 -2.794,-0.729 -1.136,-0.121 -2.594,-0.182 -4.374,-0.182 v -3.891 l 19.44,-4.615 1.459,12.027 h 0.484 c 3.076,-3.807 6.684,-6.762 10.814,-8.869 4.131,-2.104 8.627,-3.158 13.486,-3.158 3.725,0 7.127,0.607 10.207,1.822 3.074,1.217 5.426,2.875 7.047,4.98 1.375,1.865 2.348,4.273 2.916,7.229 0.563,2.959 0.85,7.029 0.85,12.211 v 20.291 c 0,3.322 0.102,5.936 0.305,7.836 0.201,1.904 0.627,3.363 1.275,4.375 0.645,1.014 1.641,1.682 2.977,2.006 1.336,0.324 3.098,0.566 5.285,0.729 v 4.131 h -31.469 v -4.131 c 2.268,-0.08 4.07,-0.305 5.406,-0.67 1.338,-0.363 2.35,-1.031 3.039,-2.004 0.688,-0.973 1.133,-2.369 1.336,-4.191 0.201,-1.822 0.303,-4.232 0.303,-7.229 v -16.039 c 0,-4.617 -0.242,-8.504 -0.73,-11.664 -0.484,-3.158 -1.273,-5.711 -2.367,-7.654 -1.096,-1.941 -2.531,-3.342 -4.314,-4.189 -1.783,-0.852 -3.93,-1.275 -6.438,-1.275 -3.646,0 -6.986,0.951 -10.023,2.854 -3.039,1.904 -5.408,4.518 -7.109,7.838 -0.406,0.811 -0.75,1.58 -1.031,2.309 -0.285,0.729 -0.508,1.578 -0.668,2.551 -0.164,0.973 -0.285,2.086 -0.365,3.342 -0.082,1.258 -0.121,2.855 -0.121,4.799 v 16.279 h 10e-4 z"
   id="path6"
   style="fill:#f4f4f4;fill-opacity:1" />

	<path
   fill="#fafafa"
   d="m 564.919,526.193 v -4.98 c 0,-9.881 -4.213,-14.824 -12.635,-14.824 -1.379,0 -2.553,0.123 -3.523,0.365 -0.973,0.242 -1.783,0.65 -2.43,1.215 -0.65,0.568 -1.236,1.379 -1.762,2.432 -0.529,1.055 -1.033,2.35 -1.521,3.889 -0.893,2.35 -1.762,3.908 -2.613,4.678 -0.85,0.771 -2.086,1.154 -3.705,1.154 -4.051,0 -6.072,-2.023 -6.072,-6.076 0,-3.887 2.063,-6.904 6.193,-9.051 4.133,-2.146 10.006,-3.221 17.617,-3.221 8.102,0 13.854,1.438 17.254,4.313 3.402,2.877 5.105,7.758 5.105,14.641 v 27.217 c 0,9.232 1.822,13.852 5.467,13.852 1.133,0 2.227,-0.141 3.281,-0.426 1.051,-0.281 1.941,-1.031 2.672,-2.248 l 1.701,2.916 c -0.973,1.865 -2.754,3.424 -5.348,4.678 -2.594,1.256 -5.307,1.885 -8.141,1.885 -3.564,0 -6.217,-1.135 -7.959,-3.402 -1.742,-2.267 -2.611,-5.467 -2.611,-9.6 h -0.605 c -2.107,3.971 -5.023,7.109 -8.748,9.418 -3.729,2.309 -7.857,3.463 -12.395,3.463 -5.104,0 -9.111,-1.295 -12.027,-3.889 -2.916,-2.592 -4.373,-6.076 -4.373,-10.449 0,-1.943 0.344,-3.807 1.031,-5.59 0.688,-1.779 1.803,-3.48 3.342,-5.102 1.539,-1.619 3.563,-3.223 6.076,-4.801 2.51,-1.578 5.588,-3.178 9.23,-4.801 z m 0,5.224 c -4.617,1.783 -8.525,3.523 -11.725,5.225 -3.201,1.701 -5.771,3.402 -7.717,5.104 -1.943,1.703 -3.342,3.402 -4.189,5.104 -0.854,1.701 -1.275,3.443 -1.275,5.225 0,2.674 0.891,4.859 2.672,6.563 1.781,1.701 4.131,2.551 7.047,2.551 2.105,0 4.07,-0.525 5.893,-1.578 1.824,-1.053 3.422,-2.492 4.801,-4.314 1.375,-1.822 2.469,-3.967 3.279,-6.438 0.809,-2.471 1.215,-5.082 1.215,-7.838 v -9.604 z"
   id="path7"
   style="fill:#f4f4f4;fill-opacity:1" />

	<path
   fill="#fafafa"
   d="m 591.576,510.64 v -4.494 c 4.291,-2.51 7.654,-5.021 10.084,-7.533 2.43,-2.51 4.293,-5.508 5.588,-8.99 h 3.523 v 15.309 h 16.281 v 5.711 h -16.281 v 36.938 c 0,2.836 0.141,5.225 0.426,7.168 0.283,1.943 0.748,3.504 1.398,4.678 0.646,1.176 1.496,2.004 2.551,2.49 1.051,0.486 2.389,0.729 4.01,0.729 2.023,0 3.746,-0.426 5.164,-1.275 1.416,-0.852 2.813,-2.287 4.191,-4.313 l 3.037,2.309 c -1.135,2.998 -3.098,5.285 -5.893,6.865 -2.795,1.578 -6.258,2.369 -10.391,2.369 -5.346,0 -9.416,-1.275 -12.211,-3.828 -2.795,-2.551 -4.189,-6.215 -4.189,-10.994 v -43.135 h -7.289 v -0.004 z"
   id="path8"
   style="fill:#f4f4f4;fill-opacity:1" />

	<path
   fill="#fafafa"
   d="m 667.949,501.773 c 4.617,0 8.992,0.83 13.123,2.49 4.131,1.66 7.754,3.947 10.873,6.863 3.117,2.916 5.59,6.379 7.412,10.389 1.822,4.01 2.734,8.404 2.734,13.184 0,4.941 -0.912,9.477 -2.734,13.607 -1.822,4.129 -4.295,7.695 -7.412,10.691 -3.119,2.998 -6.742,5.346 -10.873,7.047 -4.131,1.701 -8.506,2.553 -13.123,2.553 -4.537,0 -8.85,-0.832 -12.939,-2.49 -4.088,-1.66 -7.676,-3.988 -10.752,-6.986 -3.08,-2.996 -5.51,-6.58 -7.291,-10.754 -1.781,-4.17 -2.672,-8.727 -2.672,-13.668 0,-4.779 0.891,-9.193 2.672,-13.244 1.781,-4.049 4.211,-7.533 7.291,-10.449 3.076,-2.916 6.662,-5.182 10.752,-6.803 4.089,-1.62 8.402,-2.43 12.939,-2.43 z m 0,5.83 c -2.996,0 -5.73,0.65 -8.201,1.945 -2.471,1.295 -4.576,3.139 -6.318,5.527 -1.742,2.391 -3.078,5.266 -4.008,8.627 -0.934,3.361 -1.396,7.066 -1.396,11.117 0,4.213 0.465,8.02 1.396,11.42 0.93,3.402 2.266,6.301 4.008,8.688 1.742,2.391 3.828,4.234 6.258,5.529 2.432,1.297 5.186,1.943 8.264,1.943 3.078,0 5.873,-0.646 8.385,-1.943 2.51,-1.295 4.656,-3.16 6.439,-5.59 1.777,-2.432 3.156,-5.348 4.131,-8.748 0.971,-3.402 1.457,-7.168 1.457,-11.299 0,-4.051 -0.486,-7.734 -1.457,-11.059 -0.975,-3.318 -2.354,-6.176 -4.131,-8.564 -1.783,-2.389 -3.932,-4.252 -6.439,-5.588 -2.515,-1.335 -5.31,-2.005 -8.388,-2.005 z"
   id="path9"
   style="fill:#f4f4f4;fill-opacity:1" />

	<path
   fill="#fafafa"
   d="m 730.156,547.943 c 0,3.4 0.08,6.074 0.244,8.018 0.16,1.945 0.586,3.424 1.275,4.436 0.688,1.016 1.68,1.684 2.977,2.006 1.295,0.324 3.117,0.566 5.467,0.729 v 4.252 H 707.8 v -4.252 c 2.348,-0.162 4.211,-0.404 5.59,-0.729 1.375,-0.322 2.43,-0.973 3.158,-1.943 0.729,-0.973 1.193,-2.369 1.396,-4.191 0.199,-1.822 0.305,-4.271 0.305,-7.352 v -15.553 c 0,-4.617 -0.061,-8.463 -0.182,-11.541 -0.123,-3.078 -0.348,-5.186 -0.67,-6.318 -0.242,-1.053 -0.527,-1.883 -0.852,-2.49 -0.325,-0.607 -0.852,-1.094 -1.58,-1.459 -0.729,-0.363 -1.682,-0.607 -2.854,-0.729 -1.174,-0.123 -2.693,-0.184 -4.557,-0.184 v -4.254 l 19.805,-4.615 1.58,12.148 h 0.605 c 3.646,-4.131 7.475,-7.188 11.482,-9.172 4.01,-1.984 8.443,-2.977 13.305,-2.977 5.102,0 9.396,1.031 12.879,3.098 3.48,2.064 5.91,5.041 7.289,8.93 h 0.486 c 2.996,-3.807 6.641,-6.762 10.936,-8.869 4.291,-2.104 8.869,-3.158 13.73,-3.158 3.807,0 7.27,0.629 10.389,1.885 3.117,1.256 5.486,2.977 7.107,5.162 1.459,1.865 2.488,4.313 3.098,7.352 0.607,3.037 0.912,7.189 0.912,12.453 v 19.318 c 0,3.322 0.102,5.955 0.305,7.896 0.201,1.943 0.625,3.443 1.275,4.496 0.645,1.053 1.641,1.742 2.977,2.064 1.336,0.324 3.178,0.568 5.527,0.729 v 4.254 h -32.318 v -4.254 c 2.268,-0.078 4.09,-0.303 5.467,-0.668 1.377,-0.363 2.43,-1.051 3.16,-2.064 0.729,-1.012 1.193,-2.41 1.396,-4.191 0.201,-1.781 0.305,-4.211 0.305,-7.291 v -15.309 c 0,-4.617 -0.244,-8.523 -0.73,-11.725 -0.484,-3.199 -1.295,-5.791 -2.43,-7.777 -1.135,-1.982 -2.611,-3.42 -4.434,-4.313 -1.822,-0.891 -4.031,-1.336 -6.623,-1.336 -3.564,0 -6.906,0.992 -10.023,2.977 -3.119,1.986 -5.57,4.639 -7.35,7.959 -0.406,0.813 -0.75,1.602 -1.033,2.369 -0.285,0.771 -0.508,1.621 -0.668,2.551 -0.164,0.934 -0.264,2.049 -0.305,3.344 -0.041,1.295 -0.063,2.916 -0.063,4.857 v 15.432 c 0,3.322 0.08,5.953 0.242,7.896 0.162,1.943 0.588,3.443 1.277,4.496 0.686,1.053 1.719,1.742 3.098,2.064 1.377,0.324 3.238,0.568 5.588,0.729 v 4.254 h -32.316 v -4.254 c 2.268,-0.16 4.09,-0.404 5.469,-0.729 1.375,-0.322 2.408,-0.973 3.098,-1.943 0.688,-0.973 1.133,-2.369 1.336,-4.191 0.201,-1.822 0.305,-4.27 0.305,-7.352 v -15.309 c 0,-4.697 -0.244,-8.646 -0.73,-11.846 -0.484,-3.199 -1.275,-5.791 -2.369,-7.777 -1.094,-1.982 -2.531,-3.4 -4.313,-4.252 -1.783,-0.852 -3.971,-1.275 -6.561,-1.275 -3.646,0 -7.068,0.992 -10.268,2.977 -3.201,1.986 -5.609,4.639 -7.23,7.959 -0.404,0.813 -0.75,1.602 -1.031,2.369 -0.285,0.771 -0.51,1.621 -0.67,2.551 -0.162,0.934 -0.264,2.049 -0.305,3.344 -0.041,1.295 -0.061,2.916 -0.061,4.857 v 15.432 h 0.005 z"
   id="path10"
   style="fill:#f4f4f4;fill-opacity:1" />

	<path
   fill="#fafafa"
   d="m 862.64,586.457 c -3.727,8.342 -9.52,12.516 -17.375,12.516 -5.104,0 -7.654,-1.902 -7.654,-5.711 0,-2.023 0.707,-3.504 2.125,-4.436 1.418,-0.932 4.029,-1.721 7.838,-2.369 1.701,-0.242 3.158,-0.588 4.373,-1.031 1.215,-0.447 2.309,-1.014 3.281,-1.701 0.972,-0.687 1.842,-1.561 2.611,-2.611 0.77,-1.053 1.52,-2.352 2.248,-3.889 l 4.254,-8.506 -23.328,-50.666 c -1.055,-2.266 -1.965,-4.068 -2.734,-5.406 -0.771,-1.336 -1.58,-2.389 -2.43,-3.156 -0.852,-0.771 -1.805,-1.295 -2.855,-1.58 -1.055,-0.283 -2.391,-0.506 -4.01,-0.668 v -4.254 h 32.197 v 4.254 c -5.428,0 -8.141,1.336 -8.141,4.01 0,1.053 0.324,2.713 0.973,4.98 0.646,2.27 1.457,4.576 2.43,6.926 l 13.365,32.316 h 0.607 l 11.057,-27.336 c 1.051,-2.674 1.924,-4.859 2.611,-6.563 0.688,-1.699 1.215,-3.098 1.58,-4.191 0.365,-1.092 0.607,-2.004 0.729,-2.732 0.123,-0.729 0.184,-1.416 0.184,-2.064 0,-2.105 -0.59,-3.523 -1.762,-4.252 -1.176,-0.729 -3.424,-1.094 -6.744,-1.094 v -4.254 h 26.73 v 4.254 c -1.539,0 -2.836,0.203 -3.889,0.605 -1.053,0.406 -2.125,1.318 -3.219,2.734 -1.096,1.418 -2.311,3.463 -3.646,6.135 -1.336,2.674 -2.977,6.279 -4.92,10.814 z"
   id="path11"
   style="fill:#f4f4f4;fill-opacity:1" />

</g>
    <g
       id="g13"
       transform="matrix(0.17107056,0,0,0.17107056,81.357679,26.458334)"
       style="fill:#f4f4f4;fill-opacity:1">
	<g
   id="g12"
   style="fill:#f4f4f4;fill-opacity:1">
		<path
   fill="#fafafa"
   d="M 658.537,401.441 H 486.273 v -24.13 h 2 c 17.836,0 30.213,-1.666 36.787,-4.952 6.201,-3.098 9.217,-8.083 9.217,-15.242 0,-3.296 -0.17,-6.431 -0.506,-9.32 -0.328,-2.795 -0.922,-5.924 -1.76,-9.297 -0.846,-3.367 -2.041,-7.211 -3.553,-11.42 -1.523,-4.228 -3.455,-9.181 -5.904,-15.141 L 501.863,257.434 H 366.764 c -5.592,13.509 -10.445,25.66 -14.435,36.132 -4.104,10.775 -7.479,20.21 -10.032,28.04 -2.549,7.819 -4.35,14.509 -5.354,19.877 -1.008,5.368 -1.519,9.759 -1.519,13.052 0,8.951 2.715,14.887 8.301,18.146 5.855,3.414 15.938,5.146 29.962,5.146 h 2 V 401.44 H 246.263 v -23.369 l 1.742,-0.229 c 7.802,-1.018 14.552,-2.383 20.062,-4.059 5.425,-1.641 10.263,-3.975 14.383,-6.938 4.076,-2.937 7.728,-6.841 10.851,-11.601 3.191,-4.867 6.349,-10.929 9.384,-18.017 L 437.368,0 h 24.899 l 0.506,1.253 117.17,291.113 c 7.848,19.131 14.77,34.624 20.57,46.035 5.734,11.308 11.355,19.921 16.707,25.601 5.215,5.554 10.891,9.185 16.869,10.795 6.15,1.668 13.701,2.515 22.447,2.515 h 2 v 24.129 z m -168.264,-4 h 164.264 v -16.145 c -8.26,-0.123 -15.482,-1.008 -21.49,-2.639 -6.703,-1.807 -13.01,-5.816 -18.74,-11.916 -5.609,-5.955 -11.451,-14.883 -17.357,-26.529 -5.85,-11.506 -12.816,-27.098 -20.711,-46.34 L 459.568,4 h -19.49 L 306.38,338.759 c -3.146,7.349 -6.416,13.617 -9.735,18.68 -3.393,5.172 -7.382,9.43 -11.858,12.654 -4.479,3.222 -9.714,5.75 -15.559,7.518 -5.3,1.612 -11.673,2.944 -18.965,3.963 v 15.867 h 121.425 v -15.627 c -13.888,-0.161 -23.706,-2.021 -29.978,-5.68 -6.825,-3.981 -10.285,-11.25 -10.285,-21.6 0,-3.541 0.533,-8.18 1.586,-13.789 1.035,-5.539 2.881,-12.396 5.482,-20.381 2.573,-7.892 5.97,-17.388 10.097,-28.224 4.123,-10.827 9.167,-23.435 14.99,-37.475 l 0.512,-1.234 H 504.62 l 21.652,57.034 c 2.451,5.965 4.404,10.973 5.947,15.258 1.559,4.334 2.793,8.305 3.672,11.805 0.879,3.541 1.5,6.836 1.852,9.801 0.354,3.047 0.533,6.336 0.533,9.785 0,8.701 -3.846,15.034 -11.43,18.821 -6.977,3.485 -18.951,5.245 -36.576,5.366 v 16.139 h 0.003 z m 6.051,-165.816 H 372.81 L 436.19,71.812 Z m -117.624,-4 H 490.544 L 436.092,82.909 Z"
   id="path12"
   style="fill:#f4f4f4;fill-opacity:1" />

	</g>

</g>
  </g>
</svg>
